%FSTAX44Y44*%
%MOIN*%
%SFA1B1*%

%IPPOS*%
%ADD10C,0.007874*%
%ADD11C,0.007008*%
%ADD12C,0.010000*%
%ADD13C,0.005000*%
%ADD14C,0.003937*%
%LNnixie_in12-1*%
%LPD*%
G36*
X00005887Y00013064D02*
X00005887D01*
Y00013063*
X00005887*
Y00013064*
X00005886*
Y00013064*
X00005887*
Y00013064*
G37*
G36*
X00006393Y0001296D02*
X00006393D01*
Y00012959*
X00006393*
Y0001296*
X00006392*
Y00012961*
X00006393*
Y0001296*
G37*
G36*
X00014339Y00013385D02*
X0001434Y00013385D01*
X00014342Y00013383*
X00014345Y00013382*
X00014348Y00013381*
X00014349*
X00014388*
Y00012366*
Y0001236*
X00014387Y00012355*
Y00011899*
X0001238*
Y00012384*
X0001238*
Y00013385*
X0001244*
Y00013267*
X00012519Y00012992*
X00012598Y00012834*
X00012834Y00012598*
X00013031Y0001248*
X00013228Y0001244*
X00013464*
X000137Y0001248*
X00013937Y00012598*
X00014055Y00012716*
X00014173Y00012874*
X00014291Y0001311*
X00014339Y00013385*
G37*
G36*
X00000953D02*
X00000954Y00013385D01*
X00000957Y00013383*
X00000959Y00013382*
X00000962Y00013381*
X00000963*
X00001002*
Y00012366*
Y0001236*
X00001001Y00012355*
Y0001194*
X-00001003*
Y00012384*
X-00001003*
Y00013385*
X-00000944*
Y00013267*
X-00000866Y00012992*
X-00000787Y00012834*
X-00000551Y00012598*
X-00000354Y0001248*
X-00000157Y0001244*
X00000078*
X00000314Y0001248*
X00000551Y00012598*
X00000669Y00012716*
X00000787Y00012874*
X00000905Y0001311*
X00000953Y00013385*
G37*
G36*
X00012757Y00010852D02*
X0001155D01*
Y00011242*
X00012757*
Y00010852*
G37*
G36*
X00001456Y00010814D02*
X00000618D01*
Y00011205*
X00001456*
Y00010814*
G37*
G36*
X00012703Y00009812D02*
X00011865D01*
Y00010202*
X00012703*
Y00009812*
G37*
G36*
X00001456Y00008814D02*
X00000618D01*
Y00009205*
X00001456*
Y00008814*
G37*
G36*
X00012703Y00008812D02*
X00011865D01*
Y00009202*
X00012703*
Y00008812*
G37*
G36*
X00001456Y00007814D02*
X00000618D01*
Y00008205*
X00001456*
Y00007814*
G37*
G36*
X00012703Y00007812D02*
X00011865D01*
Y00008202*
X00012703*
Y00007812*
G37*
G36*
X00001456Y00006814D02*
X00000618D01*
Y00007205*
X00001456*
Y00006814*
G37*
G36*
X00012703Y00006812D02*
X00011865D01*
Y00007202*
X00012703*
Y00006812*
G37*
G36*
X00001456Y00005814D02*
X00000618D01*
Y00006205*
X00001456*
Y00005814*
G37*
G36*
X00012703Y00005812D02*
X00011865D01*
Y00006202*
X00012703*
Y00005812*
G37*
G36*
X00002396Y00004862D02*
X00001643D01*
Y00005252*
X00002396*
Y00004862*
G37*
G36*
X00011788Y00004813D02*
X00011045D01*
Y00005203*
X00011788*
Y00004813*
G37*
G36*
X00001452Y00002877D02*
X00000614D01*
Y00003268*
X00001452*
Y00002877*
G37*
G36*
X00012693Y000028D02*
X00011855D01*
Y0000319*
X00012693*
Y000028*
G37*
G36*
X00014386Y00001001D02*
X00014384D01*
Y0*
X0001433*
Y00000118*
X00014251Y00000393*
X00014173Y00000551*
X00013937Y00000787*
X0001374Y00000905*
X00013543Y00000944*
X00013307*
X0001307Y00000905*
X00012834Y00000787*
X00012716Y00000669*
X00012598Y00000511*
X0001248Y00000275*
X00012431Y0*
X00012431Y0*
X00012428Y00000002*
X00012426Y00000003*
X00012423Y00000003*
X00012422*
X00012383*
Y00001019*
Y00001025*
X00012384Y0000103*
Y00001551*
X00014386*
Y00001001*
G37*
G36*
X00001001D02*
D01*
Y0*
X00000944*
Y00000118*
X00000866Y00000393*
X00000787Y00000551*
X00000551Y00000787*
X00000354Y00000905*
X00000157Y00000944*
X-00000078*
X-00000314Y00000905*
X-00000551Y00000787*
X-00000669Y00000669*
X-00000787Y00000511*
X-00000905Y00000275*
X-00000953Y0*
X-00000954Y0*
X-00000957Y00000002*
X-00000959Y00000003*
X-00000962Y00000003*
X-00000963*
X-00001002*
Y00001019*
Y00001025*
X-00001001Y0000103*
Y00001433*
X00001001*
Y00001001*
G37*
G36*
X00001456Y00009814D02*
X00000618D01*
Y00010205*
X00001456*
Y00009814*
G37*
%LNnixie_in12-2*%
%LPC*%
G36*
X00013693Y00012289D02*
X0001358D01*
X00013642*
X0001361Y00012108*
X00013505Y00012289*
X00013481*
X00013427Y00011998*
X00013479*
X00013511Y00012181*
X00013619Y00011994*
X00013693*
X00013639*
X00013693Y00012289*
G37*
G36*
X00013324D02*
X00013266D01*
X00013164Y00012096*
X00013129Y00012289*
X00013074*
X00013132Y00011994*
X0001316*
X00013324Y00012289*
G37*
G36*
X00013423D02*
X00013371D01*
X00013318Y00011998*
X00013324*
X0001337*
X00013423Y00012289*
G37*
G36*
X-00000145Y00012312D02*
X-00000392D01*
X-00000215*
X-0000023Y00012312*
X-00000244Y0001231*
X-00000257Y00012308*
X-0000027Y00012305*
X-00000281Y00012301*
X-00000292Y00012296*
X-00000301Y00012292*
X-0000031Y00012287*
X-00000318Y00012282*
X-00000325Y00012277*
X-00000331Y00012274*
X-00000335Y0001227*
X-00000339Y00012266*
X-00000342Y00012264*
X-00000344Y00012262*
X-00000344Y00012262*
X-00000352Y00012252*
X-0000036Y00012241*
X-00000366Y0001223*
X-00000372Y00012219*
X-00000376Y00012207*
X-0000038Y00012196*
X-00000383Y00012185*
X-00000386Y00012174*
X-00000388Y00012164*
X-00000389Y00012155*
X-0000039Y00012146*
X-00000391Y00012139*
Y00012136*
X-00000392Y00012133*
Y00012131*
Y00012129*
Y00012012*
Y00012125*
Y00012116*
X-0000039Y00012107*
X-00000389Y00012099*
X-00000387Y00012091*
X-00000385Y00012084*
X-00000382Y00012077*
X-00000379Y00012071*
X-00000376Y00012066*
X-00000374Y00012061*
X-0000037Y00012056*
X-00000368Y00012052*
X-00000366Y0001205*
X-00000364Y00012047*
X-00000362Y00012045*
X-00000361Y00012044*
X-00000361*
X-00000355Y00012038*
X-00000348Y00012033*
X-00000342Y00012029*
X-00000335Y00012025*
X-00000328Y00012022*
X-00000321Y0001202*
X-00000315Y00012017*
X-00000308Y00012016*
X-00000302Y00012014*
X-00000297Y00012013*
X-00000292Y00012012*
X-00000288Y00012012*
X-00000284*
X-00000282Y00012012*
X-00000279*
X-00000268Y00012012*
X-00000256Y00012013*
X-00000245Y00012014*
X-00000235Y00012016*
X-00000225Y00012019*
X-00000216Y00012022*
X-00000207Y00012024*
X-000002Y00012027*
X-00000193Y0001203*
X-00000187Y00012033*
X-00000182Y00012036*
X-00000177Y00012038*
X-00000174Y0001204*
X-00000172Y00012042*
X-0000017Y00012042*
X-0000017Y00012043*
X-00000145Y00012174*
X-00000237*
X-00000244Y0001213*
X-00000204*
X-00000215Y00012072*
X-00000219Y0001207*
X-00000223Y00012067*
X-00000232Y00012063*
X-0000024Y00012061*
X-00000248Y00012059*
X-00000251Y00012058*
X-00000255Y00012058*
X-00000258Y00012057*
X-0000026*
X-00000262Y00012057*
X-00000265*
X-00000271Y00012057*
X-00000277Y00012058*
X-00000283Y00012059*
X-00000288Y0001206*
X-00000292Y00012061*
X-00000297Y00012063*
X-00000301Y00012065*
X-00000305Y00012067*
X-00000308Y00012069*
X-00000311Y0001207*
X-00000313Y00012072*
X-00000315Y00012074*
X-00000317Y00012075*
X-00000318Y00012075*
X-00000318Y00012076*
X-00000319Y00012077*
X-00000322Y00012081*
X-00000325Y00012085*
X-00000328Y00012089*
X-0000033Y00012094*
X-00000332Y00012098*
X-00000333Y00012103*
X-00000336Y00012112*
X-00000337Y00012116*
X-00000337Y0001212*
X-00000338Y00012124*
X-00000338Y00012126*
X-00000338Y00012129*
Y00012131*
Y00012132*
X-00000338Y00012143*
X-00000337Y00012153*
X-00000335Y00012162*
X-00000333Y00012172*
X-00000331Y0001218*
X-00000328Y00012188*
X-00000325Y00012195*
X-00000322Y00012202*
X-00000319Y00012208*
X-00000317Y00012213*
X-00000314Y00012218*
X-00000311Y00012222*
X-00000309Y00012224*
X-00000308Y00012227*
X-00000307Y00012228*
X-00000307*
X-000003Y00012235*
X-00000294Y00012241*
X-00000287Y00012246*
X-0000028Y00012251*
X-00000273Y00012255*
X-00000266Y00012258*
X-00000259Y0001226*
X-00000252Y00012262*
X-00000246Y00012264*
X-0000024Y00012265*
X-00000235Y00012266*
X-00000231Y00012266*
X-00000227Y00012267*
X-00000225Y00012267*
X-00000222*
X-00000217Y00012267*
X-00000211Y00012266*
X-00000201Y00012264*
X-00000191Y00012262*
X-00000187Y0001226*
X-00000182Y00012258*
X-00000179Y00012257*
X-00000175Y00012255*
X-00000172Y00012254*
X-00000169Y00012252*
X-00000167Y00012251*
X-00000166Y0001225*
X-00000164*
X-00000164Y0001225*
X-00000148Y00012292*
X-00000153Y00012296*
X-00000158Y00012299*
X-00000162Y00012301*
X-00000168Y00012304*
X-00000174Y00012306*
X-00000179Y00012307*
X-0000019Y0001231*
X-00000195Y00012311*
X-000002Y00012311*
X-00000204Y00012312*
X-00000207Y00012312*
X-00000211Y00012312*
X-00000145*
G37*
G36*
X00000141Y00012307D02*
X0000009D01*
X00000058Y00012127*
X-00000046Y00012307*
X00000007*
X-00000123*
Y00012012*
Y00012307*
X-0000007*
X-00000123Y00012016*
X-00000072*
X-0000004Y000122*
X00000067Y00012012*
X00000141*
X00000087*
X00000141Y00012307*
G37*
G36*
X0000039Y00012312D02*
X00000143D01*
X0000025*
X00000241Y00012312*
X00000231Y00012311*
X00000222Y00012311*
X00000214Y00012309*
X0000021Y00012309*
X00000207Y00012309*
X00000203Y00012308*
X00000201Y00012308*
X00000199Y00012307*
X00000197Y00012307*
X00000196*
X00000196*
X00000143Y00012016*
X00000213*
X00000228Y00012017*
X00000242Y00012018*
X00000255Y00012021*
X00000267Y00012024*
X00000278Y00012028*
X00000289Y00012032*
X00000298Y00012036*
X00000307Y0001204*
X00000315Y00012045*
X00000322Y0001205*
X00000327Y00012053*
X00000333Y00012057*
X00000337Y0001206*
X00000339Y00012062*
X0000034Y00012064*
X00000341Y00012064*
X0000035Y00012074*
X00000357Y00012084*
X00000364Y00012094*
X00000369Y00012105*
X00000374Y00012116*
X00000378Y00012126*
X00000381Y00012137*
X00000384Y00012147*
X00000386Y00012157*
X00000387Y00012166*
X00000388Y00012174*
X00000389Y0001218*
Y00012183*
X00000389Y00012186*
Y00012188*
X0000039Y0001219*
Y00012057*
Y00012202*
Y00012194*
X00000389Y00012204*
X00000388Y00012214*
X00000386Y00012223*
X00000384Y00012232*
X00000381Y0001224*
X00000378Y00012247*
X00000375Y00012253*
X00000372Y00012259*
X00000368Y00012264*
X00000364Y00012269*
X00000362Y00012273*
X00000359Y00012276*
X00000356Y00012278*
X00000355Y0001228*
X00000353Y00012281*
X00000353*
X00000346Y00012287*
X00000338Y00012292*
X0000033Y00012296*
X00000322Y00012299*
X00000313Y00012302*
X00000305Y00012305*
X00000296Y00012307*
X00000288Y00012308*
X0000028Y00012309*
X00000274Y00012311*
X00000267Y00012311*
X00000261Y00012312*
X00000257*
X00000253Y00012312*
X0000039*
G37*
%LNnixie_in12-3*%
%LPD*%
G36*
X00000265Y00012267D02*
X00000271Y00012266D01*
X00000276Y00012265*
X00000281Y00012264*
X00000286Y00012262*
X00000291Y00012261*
X00000295Y00012259*
X00000299Y00012257*
X00000302Y00012255*
X00000305Y00012254*
X00000308Y00012252*
X0000031Y0001225*
X00000311Y0001225*
X00000313Y00012248*
X00000313Y00012248*
X00000314Y00012248*
X00000318Y00012244*
X00000321Y0001224*
X00000324Y00012236*
X00000326Y00012231*
X00000329Y00012227*
X0000033Y00012222*
X00000333Y00012214*
X00000334Y00012211*
X00000335Y00012207*
Y00012204*
X00000335Y00012201*
X00000335Y00012199*
Y00012197*
Y00012196*
Y00012196*
X00000335Y00012185*
X00000334Y00012175*
X00000333Y00012165*
X00000331Y00012156*
X00000328Y00012148*
X00000325Y0001214*
X00000323Y00012132*
X0000032Y00012126*
X00000317Y0001212*
X00000314Y00012114*
X00000311Y0001211*
X00000309Y00012107*
X00000307Y00012103*
X00000305Y00012101*
X00000304Y000121*
X00000304Y000121*
X00000298Y00012093*
X00000291Y00012087*
X00000285Y00012082*
X00000277Y00012078*
X0000027Y00012074*
X00000263Y00012071*
X00000256Y00012069*
X0000025Y00012067*
X00000244Y00012065*
X00000238Y00012064*
X00000233Y00012063*
X00000228Y00012063*
X00000224Y00012062*
X00000222Y00012062*
X00000214*
X00000209Y00012062*
X00000207*
X00000205Y00012063*
X00000203*
X00000239Y00012265*
X00000246Y00012266*
X0000025Y00012266*
X00000253Y00012267*
X00000255Y00012267*
X00000259*
X00000265Y00012267*
G37*
%LNnixie_in12-4*%
%LPC*%
G36*
X00012423Y00011192D02*
X0001237D01*
X00012334Y00010997*
X00012331Y00010988*
X00012329Y00010979*
X00012325Y00010973*
X00012321Y00010967*
X00012317Y00010962*
X00012314Y00010959*
X00012313Y00010958*
X00012312Y00010957*
X00012312Y00010957*
X00012311Y00010956*
X00012308Y00010953*
X00012305Y00010951*
X00012297Y00010948*
X00012289Y00010945*
X00012283Y00010944*
X00012276Y00010942*
X00012274Y00010942*
X00012272*
X0001227Y00010942*
X00012267*
X0001226Y00010942*
X00012253Y00010943*
X00012248Y00010945*
X00012242Y00010947*
X00012239Y00010949*
X00012236Y00010951*
X00012235Y00010952*
X00012234Y00010952*
X0001223Y00010957*
X00012227Y00010961*
X00012225Y00010967*
X00012224Y00010972*
X00012222Y00010976*
Y00010979*
X00012222Y00010981*
Y00010982*
Y00010983*
X00012222Y00010987*
Y0001099*
Y00010992*
X00012223Y00010993*
Y00010994*
Y00010994*
X0001226Y00011192*
X00012207*
X0001217Y00010993*
X0001217Y00010988*
X00012169Y00010985*
X00012168Y00010981*
Y00010977*
X00012168Y00010975*
Y00010896*
Y00010971*
X00012168Y00010964*
X00012169Y00010958*
X0001217Y00010953*
X00012172Y00010947*
X00012174Y00010943*
X00012176Y00010938*
X00012179Y00010934*
X00012181Y0001093*
X00012183Y00010927*
X00012186Y00010924*
X00012188Y00010922*
X0001219Y0001092*
X00012192Y00010918*
X00012193Y00010917*
X00012194Y00010916*
X00012194Y00010916*
X00012199Y00010912*
X00012204Y0001091*
X0001221Y00010907*
X00012215Y00010905*
X00012221Y00010903*
X00012226Y00010901*
X00012237Y00010899*
X00012242Y00010898*
X00012246Y00010898*
X00012251Y00010897*
X00012254Y00010897*
X00012257Y00010896*
X00012168*
X00012423*
X00012261*
X0001227Y00010897*
X00012279Y00010898*
X00012287Y00010899*
X00012295Y000109*
X00012302Y00010902*
X00012309Y00010904*
X00012315Y00010907*
X00012321Y00010909*
X00012326Y00010911*
X00012331Y00010913*
X00012335Y00010916*
X00012338Y00010917*
X0001234Y00010919*
X00012342Y0001092*
X00012343Y00010921*
X00012344Y00010921*
X0001235Y00010926*
X00012355Y00010931*
X0001236Y00010937*
X00012364Y00010942*
X00012368Y00010948*
X00012372Y00010954*
X00012374Y0001096*
X00012377Y00010965*
X00012379Y00010971*
X00012381Y00010975*
X00012383Y0001098*
X00012384Y00010983*
X00012385Y00010987*
X00012385Y00010989*
X00012386Y0001099*
Y00010991*
X00012423Y00011192*
G37*
G36*
X00011856Y00011197D02*
X00011609D01*
X00011717*
X00011708*
X00011698Y00011196*
X00011688Y00011195*
X0001168Y00011194*
X00011676Y00011194*
X00011673Y00011193*
X0001167Y00011193*
X00011668*
X00011666Y00011192*
X00011664Y00011192*
X00011663Y00011192*
X00011662*
X00011609Y00010901*
X0001168*
X00011694Y00010902*
X00011708Y00010903*
X00011721Y00010906*
X00011733Y00010909*
X00011745Y00010912*
X00011755Y00010916*
X00011765Y00010921*
X00011774Y00010925*
X00011782Y0001093*
X00011788Y00010934*
X00011794Y00010938*
X00011799Y00010942*
X00011803Y00010945*
X00011806Y00010947*
X00011807Y00010949*
X00011808Y00010949*
X00011816Y00010959*
X00011824Y00010969*
X0001183Y00010979*
X00011836Y0001099*
X0001184Y00011001*
X00011844Y00011011*
X00011848Y00011022*
X0001185Y00011032*
X00011852Y00011042*
X00011853Y0001105*
X00011855Y00011058*
X00011855Y00011065*
Y00011068*
X00011856Y00011071*
Y00011073*
X00011856Y00011075*
Y0001094*
Y00011088*
Y00011079*
X00011856Y00011089*
X00011855Y00011099*
X00011853Y00011108*
X00011851Y00011116*
X00011848Y00011124*
X00011845Y00011132*
X00011841Y00011138*
X00011838Y00011144*
X00011835Y0001115*
X00011831Y00011153*
X00011828Y00011157*
X00011825Y00011161*
X00011823Y00011163*
X00011822Y00011165*
X0001182Y00011166*
X0001182Y00011166*
X00011812Y00011172*
X00011805Y00011177*
X00011797Y00011181*
X00011788Y00011184*
X0001178Y00011187*
X00011771Y00011189*
X00011763Y00011191*
X00011755Y00011193*
X00011747Y00011194*
X0001174Y00011195*
X00011733Y00011196*
X00011728Y00011197*
X00011723*
X0001172*
X00011856*
G37*
G36*
X00012139Y00011197D02*
X00011878D01*
Y00010896*
Y00011009*
X00011878Y00011*
X00011879Y00010991*
X00011881Y00010983*
X00011882Y00010975*
X00011884Y00010968*
X00011887Y00010961*
X00011888Y00010955*
X00011891Y00010949*
X00011894Y00010944*
X00011896Y0001094*
X00011898Y00010936*
X000119Y00010933*
X00011902Y00010931*
X00011903Y00010929*
X00011904Y00010927*
X0001191Y00010922*
X00011915Y00010917*
X00011921Y00010913*
X00011927Y0001091*
X00011933Y00010907*
X00011939Y00010904*
X00011945Y00010902*
X00011951Y000109*
X00011956Y00010899*
X00011961Y00010898*
X00011966Y00010898*
X0001197Y00010897*
X00011973Y00010897*
X00011975Y00010896*
X00011983*
X00011977*
X00011991Y00010897*
X00012004Y00010899*
X00012016Y00010901*
X00012027Y00010905*
X00012038Y00010909*
X00012048Y00010914*
X00012057Y00010918*
X00012064Y00010924*
X00012072Y00010928*
X00012078Y00010933*
X00012083Y00010937*
X00012088Y00010942*
X00012091Y00010945*
X00012094Y00010948*
X00012095Y00010949*
X00012096Y0001095*
X00012103Y00010961*
X0001211Y00010971*
X00012116Y00010983*
X00012121Y00010994*
X00012125Y00011006*
X00012129Y00011018*
X00012131Y00011029*
X00012134Y0001104*
X00012136Y0001105*
X00012137Y00011059*
X00012138Y00011068*
Y00011072*
X00012138Y00011075*
X00012139Y00011078*
Y00011081*
X00012139Y00011083*
Y00010918*
Y00011089*
X00012139Y00011099*
X00012138Y00011108*
X00012137Y00011116*
X00012135Y00011124*
X00012133Y00011131*
X0001213Y00011138*
X00012128Y00011144*
X00012125Y00011149*
X00012122Y00011153*
X0001212Y00011158*
X00012118Y00011161*
X00012115Y00011164*
X00012114Y00011166*
X00012112Y00011168*
X00012111Y00011169*
X00012111*
X00012105Y00011174*
X000121Y00011179*
X00012093Y00011182*
X00012087Y00011185*
X0001208Y00011188*
X00012073Y0001119*
X00012066Y00011192*
X0001206Y00011194*
X00012054Y00011195*
X00012048Y00011196*
X00012044Y00011196*
X00012039Y00011197*
X00012035*
X00012033Y00011197*
X00012139*
G37*
G36*
X00012698Y00011192D02*
X00012453D01*
X00012461*
X00012453Y00011147*
X00012545*
X000125Y00010901*
X00012552*
X00012597Y00011147*
X00012689*
X00012698Y00011192*
G37*
%LNnixie_in12-5*%
%LPD*%
G36*
X00011731Y00011151D02*
X00011737Y00011151D01*
X00011743Y0001115*
X00011748Y00011149*
X00011753Y00011148*
X00011757Y00011146*
X00011762Y00011144*
X00011765Y00011142*
X00011769Y0001114*
X00011772Y00011138*
X00011774Y00011137*
X00011776Y00011135*
X00011778Y00011134*
X00011779Y00011133*
X0001178Y00011133*
Y00011132*
X00011784Y00011129*
X00011788Y00011124*
X0001179Y0001112*
X00011793Y00011116*
X00011795Y00011112*
X00011797Y00011107*
X000118Y00011099*
X000118Y00011096*
X00011801Y00011092*
X00011801Y00011089*
X00011802Y00011086*
Y00011084*
Y00011082*
Y00011081*
Y0001107*
X00011801Y0001106*
X00011799Y0001105*
X00011797Y00011041*
X00011795Y00011032*
X00011792Y00011024*
X00011789Y00011017*
X00011786Y00011011*
X00011783Y00011004*
X0001178Y00011*
X00011778Y00010995*
X00011775Y00010991*
X00011774Y00010988*
X00011772Y00010986*
X00011771Y00010985*
X0001177*
X00011764Y00010978*
X00011758Y00010972*
X00011751Y00010967*
X00011744Y00010963*
X00011737Y00010959*
X0001173Y00010956*
X00011723Y00010953*
X00011716Y00010951*
X0001171Y0001095*
X00011704Y00010949*
X000117Y00010948*
X00011695Y00010948*
X00011691Y00010947*
X00011688*
X00011681*
X00011675*
X00011674*
X00011672Y00010948*
X0001167*
X00011706Y0001115*
X00011713Y00011151*
X00011716Y00011151*
X00011719*
X00011722Y00011152*
X00011725*
X00011731Y00011151*
G37*
G36*
X00012018Y00011197D02*
X00012006Y00011195D01*
X00011995Y00011192*
X00011985Y00011189*
X00011975Y00011185*
X00011966Y0001118*
X00011957Y00011175*
X0001195Y0001117*
X00011943Y00011164*
X00011937Y00011159*
X00011932Y00011155*
X00011928Y00011151*
X00011924Y00011148*
X00011922Y00011144*
X00011921Y00011143*
X0001192Y00011142*
X00011912Y00011132*
X00011906Y0001112*
X000119Y00011109*
X00011896Y00011098*
X00011892Y00011087*
X00011888Y00011076*
X00011885Y00011065*
X00011883Y00011055*
X00011881Y00011046*
X0001188Y00011037*
X00011879Y00011029*
X00011879Y00011022*
X00011878Y0001102*
Y00011017*
Y00011014*
X00011878Y00011013*
Y00011197*
X0001203*
X00012018Y00011197*
G37*
G36*
X00012032Y00011152D02*
X00012037Y00011151D01*
X00012042Y00011151*
X00012046Y0001115*
X00012054Y00011146*
X00012061Y00011142*
X00012067Y00011137*
X00012071Y00011131*
X00012075Y00011125*
X00012079Y00011119*
X00012081Y00011112*
X00012083Y00011107*
X00012084Y00011101*
X00012085Y00011096*
X00012085Y00011092*
X00012086Y00011088*
Y00011087*
Y00011086*
Y00011086*
Y00011085*
X00012085Y00011075*
X00012085Y00011064*
X00012083Y00011054*
X00012081Y00011045*
X00012079Y00011036*
X00012077Y00011027*
X00012075Y0001102*
X00012072Y00011012*
X00012069Y00011006*
X00012067Y00011*
X00012065Y00010996*
X00012062Y00010992*
X00012061Y00010988*
X00012059Y00010986*
X00012059Y00010985*
X00012058Y00010984*
X00012053Y00010977*
X00012047Y0001097*
X00012041Y00010964*
X00012035Y00010959*
X00012029Y00010955*
X00012022Y00010952*
X00012016Y00010949*
X00012011Y00010947*
X00012005Y00010945*
X00012Y00010944*
X00011995Y00010943*
X00011991Y00010942*
X00011988Y00010942*
X00011985Y00010942*
X00011983*
X00011979Y00010942*
X00011975Y00010943*
X0001197Y00010944*
X00011967Y00010945*
X0001196Y00010948*
X00011954Y00010951*
X0001195Y00010955*
X00011947Y00010959*
X00011946Y00010959*
X00011945Y00010961*
X00011945Y00010961*
X00011944Y00010961*
X0001194Y0001097*
X00011937Y00010978*
X00011935Y00010987*
X00011933Y00010996*
X00011932Y00011*
X00011932Y00011003*
Y00011007*
Y00011009*
X00011931Y00011012*
Y00011014*
Y00011014*
Y00011015*
X00011932Y00011024*
X00011933Y00011033*
X00011934Y00011042*
X00011936Y00011051*
X00011938Y00011059*
X0001194Y00011066*
X00011942Y00011074*
X00011945Y00011081*
X00011948Y00011087*
X0001195Y00011092*
X00011952Y00011097*
X00011954Y00011101*
X00011955Y00011104*
X00011957Y00011106*
X00011958Y00011108*
X00011958*
X00011963Y00011116*
X00011969Y00011123*
X00011975Y00011129*
X00011981Y00011134*
X00011986Y00011138*
X00011992Y00011142*
X00011998Y00011144*
X00012003Y00011147*
X00012008Y00011149*
X00012012Y0001115*
X00012016Y00011151*
X0001202Y00011151*
X00012023Y00011152*
X00012025Y00011152*
X00012027*
X00012032Y00011152*
G37*
%LNnixie_in12-6*%
%LPC*%
G36*
X00001086Y00011155D02*
D01*
Y00010864*
X00001033*
X00001086Y00011155*
X00001034*
X00000981Y00010864*
X00001086*
Y00011155*
G37*
G36*
X00000829Y00011159D02*
X00000718D01*
X00000826*
X00000817Y00011159*
X00000807Y00011159*
X00000798Y00011158*
X00000789Y00011157*
X00000785Y00011156*
X00000782Y00011156*
X00000779Y00011155*
X00000777Y00011155*
X00000775Y00011155*
X00000773Y00011154*
X00000772Y00011154*
X00000772*
X00000718Y00010864*
X00000789*
X00000803Y00010864*
X00000817Y00010866*
X00000831Y00010868*
X00000842Y00010871*
X00000854Y00010875*
X00000864Y00010879*
X00000874Y00010883*
X00000883Y00010888*
X00000891Y00010892*
X00000898Y00010896*
X00000903Y000109*
X00000908Y00010904*
X00000912Y00010907*
X00000915Y0001091*
X00000916Y00010911*
X00000917Y00010912*
X00000925Y00010921*
X00000933Y00010931*
X00000939Y00010942*
X00000945Y00010952*
X0000095Y00010963*
X00000953Y00010974*
X00000957Y00010984*
X00000959Y00010994*
X00000961Y00011004*
X00000962Y00011012*
X00000964Y0001102*
X00000964Y00011027*
Y0001103*
X00000965Y00011033*
Y00011035*
X00000965Y00011037*
Y00011043*
Y00011041*
X00000965Y00011051*
X00000964Y00011061*
X00000962Y0001107*
X0000096Y00011079*
X00000957Y00011087*
X00000954Y00011094*
X0000095Y00011101*
X00000947Y00011107*
X00000944Y00011112*
X0000094Y00011116*
X00000937Y0001112*
X00000935Y00011123*
X00000932Y00011125*
X00000931Y00011127*
X00000929Y00011128*
X00000929Y00011129*
X00000922Y00011134*
X00000914Y00011139*
X00000906Y00011143*
X00000898Y00011146*
X00000889Y0001115*
X0000088Y00011152*
X00000872Y00011154*
X00000864Y00011155*
X00000856Y00011157*
X00000849Y00011158*
X00000842Y00011158*
X00000837Y00011159*
X00000833*
X00000829Y00011159*
G37*
G36*
X00001356Y00011155D02*
X0000109D01*
X00001144*
X0000109Y00010864*
X00001142*
X00001174Y00011048*
X00001282Y0001086*
X00001302*
X00001356Y00011155*
G37*
%LNnixie_in12-7*%
%LPD*%
G36*
X0000084Y00011114D02*
X00000846Y00011113D01*
X00000852Y00011112*
X00000857Y00011111*
X00000862Y0001111*
X00000866Y00011108*
X00000871Y00011107*
X00000874Y00011105*
X00000878Y00011103*
X00000881Y00011101*
X00000884Y00011099*
X00000886Y00011098*
X00000887Y00011097*
X00000888Y00011096*
X00000889Y00011095*
X0000089Y00011095*
X00000894Y00011091*
X00000897Y00011087*
X000009Y00011083*
X00000902Y00011079*
X00000904Y00011074*
X00000906Y0001107*
X00000909Y00011062*
X00000909Y00011058*
X0000091Y00011054*
X00000911Y00011051*
X00000911Y00011048*
X00000911Y00011046*
Y00011044*
Y00011044*
Y00011043*
X00000911Y00011032*
X0000091Y00011022*
X00000908Y00011012*
X00000906Y00011003*
X00000904Y00010995*
X00000901Y00010987*
X00000898Y00010979*
X00000896Y00010973*
X00000892Y00010967*
X0000089Y00010962*
X00000887Y00010957*
X00000885Y00010953*
X00000883Y00010951*
X00000881Y00010948*
X0000088Y00010947*
Y00010947*
X00000874Y0001094*
X00000867Y00010934*
X0000086Y00010929*
X00000853Y00010925*
X00000846Y00010922*
X00000839Y00010918*
X00000832Y00010916*
X00000825Y00010914*
X00000819Y00010912*
X00000813Y00010911*
X00000809Y00010911*
X00000804Y0001091*
X000008Y0001091*
X00000797Y00010909*
X0000079*
X00000785Y0001091*
X00000783*
X00000781Y0001091*
X00000779*
X00000815Y00011112*
X00000822Y00011113*
X00000825Y00011114*
X00000829Y00011114*
X00000831Y00011114*
X00000835*
X0000084Y00011114*
G37*
G36*
X00001273Y00010974D02*
X00001168Y00011155D01*
X00001305*
X00001273Y00010974*
G37*
%LNnixie_in12-8*%
%LPC*%
G36*
X00012542Y00010152D02*
X00012354D01*
X00012301Y00009861*
X00012542*
X00012486*
X00012495Y00009907*
X00012362*
X00012379Y00009997*
X00012475*
X00012483Y0001004*
X00012387*
X00012399Y00010107*
X00012533*
X00012542Y00010152*
G37*
G36*
X00012288Y00010157D02*
X00012027D01*
Y00009856*
Y00009969*
X00012027Y0000996*
X00012028Y00009951*
X00012029Y00009942*
X00012031Y00009935*
X00012033Y00009927*
X00012035Y00009921*
X00012038Y00009915*
X0001204Y00009909*
X00012042Y00009904*
X00012045Y000099*
X00012047Y00009896*
X00012049Y00009893*
X00012051Y0000989*
X00012052Y00009888*
X00012053Y00009887*
X00012053*
X00012059Y00009881*
X00012064Y00009877*
X0001207Y00009873*
X00012076Y0000987*
X00012082Y00009866*
X00012088Y00009864*
X00012094Y00009862*
X000121Y0000986*
X00012105Y00009859*
X0001211Y00009858*
X00012114Y00009857*
X00012118Y00009857*
X00012122Y00009857*
X00012124Y00009856*
X00012288*
Y00010049*
X00012288Y00010059*
X00012287Y00010068*
X00012285Y00010076*
X00012284Y00010084*
X00012282Y00010091*
X00012279Y00010098*
X00012277Y00010103*
X00012274Y00010109*
X00012272Y00010113*
X00012269Y00010118*
X00012266Y00010121*
X00012264Y00010124*
X00012262Y00010126*
X00012261Y00010128*
X0001226Y00010129*
X00012254Y00010134*
X00012248Y00010138*
X00012242Y00010142*
X00012235Y00010145*
X00012229Y00010148*
X00012222Y0001015*
X00012215Y00010152*
X00012209Y00010153*
X00012203Y00010155*
X00012197Y00010156*
X00012192Y00010156*
X00012188Y00010157*
X00012184*
X00012181Y00010157*
X00012288*
G37*
%LNnixie_in12-9*%
%LPD*%
G36*
X00012167Y00010157D02*
X00012155Y00010155D01*
X00012144Y00010152*
X00012133Y00010149*
X00012124Y00010144*
X00012114Y0001014*
X00012106Y00010135*
X00012099Y00010129*
X00012092Y00010124*
X00012086Y00010119*
X00012081Y00010115*
X00012077Y00010111*
X00012073Y00010107*
X00012071Y00010104*
X0001207Y00010103*
X00012069Y00010102*
X00012061Y00010092*
X00012055Y0001008*
X0001205Y00010069*
X00012044Y00010058*
X0001204Y00010047*
X00012037Y00010036*
X00012034Y00010025*
X00012032Y00010015*
X0001203Y00010005*
X00012029Y00009997*
X00012028Y00009989*
X00012027Y00009982*
X00012027Y00009979*
Y00009977*
Y00009974*
X00012027Y00009973*
Y00010157*
X00012179*
X00012167Y00010157*
G37*
G36*
X00012181Y00010112D02*
X00012186Y00010111D01*
X00012191Y00010111*
X00012195Y00010109*
X00012203Y00010106*
X0001221Y00010101*
X00012216Y00010097*
X0001222Y00010091*
X00012224Y00010085*
X00012227Y00010079*
X0001223Y00010072*
X00012232Y00010066*
X00012233Y00010061*
X00012234Y00010056*
X00012235Y00010051*
Y00010048*
Y00010047*
Y00010046*
Y00010046*
Y00010045*
Y00010035*
X00012233Y00010024*
X00012232Y00010014*
X00012231Y00010005*
X00012229Y00009996*
X00012226Y00009987*
X00012224Y0000998*
X00012221Y00009972*
X00012218Y00009966*
X00012216Y0000996*
X00012214Y00009955*
X00012211Y00009951*
X0001221Y00009948*
X00012209Y00009946*
X00012207Y00009944*
X00012207Y00009944*
X00012202Y00009937*
X00012196Y0000993*
X0001219Y00009924*
X00012184Y00009919*
X00012177Y00009915*
X00012172Y00009912*
X00012165Y00009909*
X0001216Y00009907*
X00012154Y00009905*
X00012149Y00009904*
X00012144Y00009903*
X0001214Y00009902*
X00012137Y00009902*
X00012134Y00009901*
X00012132*
X00012128Y00009902*
X00012124Y00009903*
X00012119Y00009903*
X00012116Y00009905*
X00012109Y00009908*
X00012103Y00009911*
X00012099Y00009915*
X00012096Y00009918*
X00012095Y00009919*
X00012094Y0000992*
X00012094Y00009921*
X00012093Y00009921*
X00012089Y00009929*
X00012086Y00009938*
X00012083Y00009947*
X00012082Y00009955*
X00012081Y00009959*
Y00009963*
X00012081Y00009966*
Y00009969*
X0001208Y00009972*
Y00009974*
Y00009974*
Y00009975*
X00012081Y00009984*
X00012081Y00009993*
X00012083Y00010002*
X00012085Y00010011*
X00012087Y00010018*
X00012089Y00010026*
X00012091Y00010033*
X00012094Y0001004*
X00012096Y00010046*
X00012099Y00010052*
X00012101Y00010057*
X00012103Y00010061*
X00012105Y00010064*
X00012106Y00010066*
X00012107Y00010068*
X00012107Y00010068*
X00012112Y00010076*
X00012118Y00010083*
X00012124Y00010088*
X00012129Y00010094*
X00012135Y00010098*
X00012141Y00010101*
X00012146Y00010104*
X00012152Y00010107*
X00012157Y00010109*
X00012161Y0001011*
X00012165Y00010111*
X00012169Y00010111*
X00012172Y00010112*
X00012174Y00010112*
X00012175*
X00012181Y00010112*
G37*
G36*
X00012288Y00009856D02*
X00012126D01*
X0001214Y00009857*
X00012153Y00009859*
X00012165Y00009861*
X00012176Y00009865*
X00012187Y00009869*
X00012197Y00009874*
X00012205Y00009878*
X00012213Y00009883*
X00012221Y00009888*
X00012227Y00009893*
X00012232Y00009897*
X00012237Y00009901*
X0001224Y00009905*
X00012242Y00009907*
X00012244Y00009909*
X00012244Y0000991*
X00012252Y0000992*
X00012259Y00009931*
X00012265Y00009942*
X0001227Y00009954*
X00012274Y00009966*
X00012278Y00009977*
X0001228Y00009989*
X00012283Y0001*
X00012285Y0001001*
X00012286Y00010019*
X00012287Y00010027*
X00012287Y00010031*
X00012288Y00010035*
Y00010038*
Y00010041*
X00012288Y00010043*
Y00009856*
G37*
%LNnixie_in12-10*%
%LPC*%
G36*
X00001142Y0000916D02*
X00000918D01*
X00001079*
X00001066Y00009159*
X00001053Y00009158*
X00001042Y00009155*
X0000103Y00009151*
X0000102Y00009148*
X00001011Y00009143*
X00001002Y00009138*
X00000994Y00009133*
X00000987Y00009128*
X00000981Y00009123*
X00000975Y00009118*
X00000971Y00009114*
X00000967Y00009111*
X00000964Y00009108*
X00000963Y00009106*
X00000962Y00009105*
X00000955Y00009095*
X00000948Y00009084*
X00000942Y00009073*
X00000937Y00009062*
X00000933Y0000905*
X00000929Y00009039*
X00000926Y00009028*
X00000924Y00009018*
X00000922Y00009008*
X0000092Y00008999*
X0000092Y00008991*
X00000919Y00008984*
X00000918Y00008981*
Y00008979*
Y00008976*
X00000918Y00008974*
Y00008971*
X00000918Y00008961*
X0000092Y00008953*
X00000921Y00008945*
X00000923Y00008937*
X00000925Y0000893*
X00000927Y00008924*
X0000093Y00008917*
X00000933Y00008912*
X00000935Y00008907*
X00000938Y00008902*
X0000094Y00008899*
X00000942Y00008896*
X00000944Y00008893*
X00000946Y00008891*
X00000947Y0000889*
X00000947Y0000889*
X00000953Y00008885*
X00000959Y0000888*
X00000965Y00008875*
X00000971Y00008872*
X00000977Y00008869*
X00000984Y00008867*
X0000099Y00008865*
X00000996Y00008863*
X00001001Y00008862*
X00001007Y00008861*
X00001011Y0000886*
X00001015Y0000886*
X00001018Y00008859*
X00001021Y00008859*
X00001023*
X00001033Y00008859*
X00001042Y0000886*
X0000105Y00008861*
X00001058Y00008863*
X00001065Y00008865*
X00001072Y00008867*
X00001078Y00008869*
X00001083Y00008872*
X00001088Y00008874*
X00001093Y00008876*
X00001096Y00008878*
X00001099Y0000888*
X00001101Y00008881*
X00001103Y00008883*
X00001104Y00008883*
X00001104Y00008884*
X00001105Y00008929*
X000011Y00008925*
X00001095Y00008921*
X00001089Y00008918*
X00001083Y00008915*
X00001077Y00008912*
X00001071Y00008911*
X00001065Y00008909*
X0000106Y00008908*
X00001054Y00008906*
X0000105Y00008906*
X00001045Y00008905*
X00001041Y00008905*
X00001038*
X00001036Y00008904*
X00001034*
X00001028Y00008905*
X00001024Y00008905*
X00001018Y00008906*
X00001014Y00008908*
X0000101Y00008909*
X00001007Y00008911*
X00001003Y00008912*
X00001Y00008914*
X00000997Y00008916*
X00000995Y00008918*
X00000993Y0000892*
X00000991Y00008922*
X0000099Y00008922*
X00000989Y00008924*
X00000988Y00008924*
X00000988Y00008924*
X00000985Y00008928*
X00000983Y00008933*
X00000981Y00008937*
X00000979Y00008941*
X00000975Y0000895*
X00000974Y00008959*
X00000973Y00008962*
X00000973Y00008966*
X00000972Y0000897*
X00000972Y00008972*
X00000972Y00008975*
Y00008977*
Y00008977*
Y00008978*
X00000972Y00008987*
X00000973Y00008997*
X00000975Y00009006*
X00000976Y00009014*
X00000979Y00009023*
X00000981Y00009031*
X00000984Y00009038*
X00000987Y00009044*
X0000099Y00009051*
X00000992Y00009056*
X00000995Y00009061*
X00000997Y00009065*
X00000999Y00009068*
X00001001Y0000907*
X00001001Y00009072*
X00001002Y00009072*
X00001008Y0000908*
X00001014Y00009087*
X0000102Y00009092*
X00001026Y00009097*
X00001033Y00009101*
X00001039Y00009105*
X00001045Y00009107*
X00001051Y0000911*
X00001056Y00009111*
X00001061Y00009112*
X00001065Y00009114*
X00001069Y00009114*
X00001072*
X00001075Y00009115*
X00001077*
X00001082Y00009114*
X00001087*
X00001096Y00009112*
X00001105Y0000911*
X00001112Y00009107*
X00001115Y00009105*
X00001118Y00009104*
X0000112Y00009103*
X00001123Y00009101*
X00001124Y000091*
X00001126Y00009099*
X00001126Y00009099*
X00001127*
X00001142Y00009148*
X00001131Y00009152*
X0000112Y00009155*
X0000111Y00009157*
X000011Y00009159*
X00001096Y00009159*
X00001092Y00009159*
X00001088Y0000916*
X00001085*
X00001083*
X00001142*
G37*
G36*
X00001422Y00009155D02*
X00001159D01*
X00001212*
X00001159Y00008864*
X00001211*
X00001225Y00008943*
X00001266Y00008988*
X00001321Y00008864*
X00001379*
X00001307Y00009027*
X00001422Y00009155*
G37*
G36*
X00000883Y00009158D02*
X00000653D01*
Y00008864*
Y00009158*
X00000773*
X00000768*
X00000762*
X00000756Y00009157*
X0000075Y00009157*
X00000737Y00009157*
X00000731Y00009156*
X00000725Y00009156*
X0000072*
X00000715Y00009155*
X00000711*
X00000708Y00009155*
X00000706*
X00000653Y00008864*
X00000706*
X00000728Y00008986*
X00000735Y00008985*
X00000741Y00008985*
X00000747*
X00000752*
X00000756Y00008985*
X00000761*
X00000817Y00008864*
X00000875*
X0000081Y00008993*
X00000816Y00008995*
X00000822Y00008997*
X00000827Y00008999*
X00000833Y00009001*
X00000837Y00009004*
X00000842Y00009007*
X00000846Y0000901*
X00000849Y00009012*
X00000853Y00009015*
X00000855Y00009018*
X00000858Y0000902*
X0000086Y00009022*
X00000861Y00009024*
X00000862Y00009025*
X00000863Y00009026*
X00000863*
X00000867Y00009031*
X0000087Y00009037*
X00000873Y00009042*
X00000875Y00009047*
X00000877Y00009052*
X00000879Y00009057*
X00000881Y00009066*
X00000882Y00009071*
X00000883Y00009075*
Y00009078*
X00000883Y00009081*
X00000883Y00009084*
Y00009087*
X00000883Y00009093*
X00000882Y00009099*
X00000881Y00009105*
X00000879Y0000911*
X00000877Y00009114*
X00000875Y00009119*
X00000872Y00009123*
X0000087Y00009126*
X00000867Y00009129*
X00000865Y00009132*
X00000862Y00009134*
X0000086Y00009136*
X00000859Y00009138*
X00000857Y00009138*
X00000856Y00009139*
X00000856Y0000914*
X00000851Y00009143*
X00000845Y00009146*
X00000839Y00009148*
X00000833Y0000915*
X0000082Y00009153*
X00000808Y00009156*
X00000803Y00009156*
X00000798Y00009157*
X00000793Y00009157*
X00000789Y00009158*
X00000786*
X00000883*
G37*
%LNnixie_in12-11*%
%LPD*%
G36*
X0000124Y00009023D02*
X00001264Y00009155D01*
X00001361*
X0000124Y00009023*
G37*
G36*
X00000781Y00009112D02*
X00000786Y00009111D01*
X00000791Y00009111*
X00000796Y0000911*
X000008Y00009109*
X00000803Y00009109*
X00000806Y00009108*
X00000809Y00009107*
X00000811Y00009106*
X00000813Y00009105*
X00000815Y00009105*
X00000816Y00009104*
X00000817Y00009104*
X00000818Y00009103*
X0000082Y00009102*
X00000822Y000091*
X00000825Y00009095*
X00000828Y00009091*
X0000083Y00009086*
X00000831Y00009082*
Y00009078*
X00000832Y00009077*
Y00009076*
Y00009075*
Y00009075*
X00000831Y00009071*
X00000831Y00009067*
X0000083Y00009063*
X00000829Y0000906*
X00000827Y00009056*
X00000825Y00009053*
X0000082Y00009048*
X00000814Y00009043*
X00000808Y00009039*
X00000801Y00009036*
X00000794Y00009034*
X00000787Y00009032*
X00000781Y0000903*
X00000774Y00009029*
X00000768Y00009028*
X00000763*
X00000761*
X0000076Y00009028*
X00000757*
X00000749Y00009028*
X00000746*
X00000743*
X0000074Y00009029*
X00000738*
X00000737Y00009029*
X00000736*
X00000751Y00009111*
X00000756Y00009111*
X00000761Y00009111*
X00000764Y00009112*
X00000766*
X00000768Y00009112*
X00000775*
X00000781Y00009112*
G37*
%LNnixie_in12-12*%
%LPC*%
G36*
X00012389Y00009157D02*
X00012165D01*
X00012326*
X00012313Y00009157*
X000123Y00009155*
X00012288Y00009152*
X00012277Y00009149*
X00012267Y00009145*
X00012257Y0000914*
X00012249Y00009135*
X00012241Y0000913*
X00012234Y00009125*
X00012227Y0000912*
X00012222Y00009115*
X00012218Y00009111*
X00012214Y00009107*
X00012212Y00009105*
X0001221Y00009103*
X0001221Y00009103*
X00012202Y00009092*
X00012195Y00009081*
X00012189Y0000907*
X00012184Y00009059*
X0001218Y00009047*
X00012176Y00009036*
X00012173Y00009025*
X00012171Y00009015*
X00012169Y00009005*
X00012168Y00008996*
X00012166Y00008988*
X00012166Y00008981*
X00012166Y00008978*
Y00008976*
Y00008974*
X00012165Y00008972*
Y00008968*
X00012166Y00008959*
X00012166Y0000895*
X00012168Y00008942*
X0001217Y00008935*
X00012172Y00008927*
X00012174Y00008921*
X00012177Y00008914*
X0001218Y00008909*
X00012182Y00008904*
X00012185Y000089*
X00012188Y00008896*
X0001219Y00008893*
X00012192Y0000889*
X00012193Y00008888*
X00012194Y00008887*
X000122Y00008881*
X00012206Y00008877*
X00012212Y00008873*
X00012218Y0000887*
X00012225Y00008866*
X00012231Y00008864*
X00012237Y00008862*
X00012243Y0000886*
X00012249Y00008859*
X00012254Y00008858*
X00012259Y00008857*
X00012262Y00008857*
X00012266Y00008857*
X00012268Y00008856*
X0001227*
X0001228Y00008857*
X00012289Y00008857*
X00012298Y00008859*
X00012305Y0000886*
X00012312Y00008862*
X00012319Y00008864*
X00012325Y00008866*
X00012331Y00008869*
X00012336Y00008871*
X0001234Y00008873*
X00012343Y00008875*
X00012346Y00008877*
X00012348Y00008879*
X0001235Y0000888*
X00012351Y00008881*
X00012351Y00008881*
X00012353Y00008927*
X00012348Y00008922*
X00012342Y00008918*
X00012336Y00008915*
X0001233Y00008912*
X00012324Y0000891*
X00012318Y00008908*
X00012312Y00008906*
X00012307Y00008905*
X00012301Y00008903*
X00012296Y00008903*
X00012292Y00008902*
X00012288Y00008902*
X00012285*
X00012283Y00008901*
X00012281*
X00012275Y00008902*
X00012271Y00008903*
X00012266Y00008903*
X00012261Y00008905*
X00012257Y00008906*
X00012253Y00008908*
X0001225Y0000891*
X00012247Y00008912*
X00012244Y00008913*
X00012242Y00008915*
X0001224Y00008917*
X00012238Y00008919*
X00012237Y0000892*
X00012236Y00008921*
X00012235Y00008921*
Y00008922*
X00012232Y00008925*
X0001223Y0000893*
X00012227Y00008934*
X00012225Y00008938*
X00012223Y00008947*
X00012221Y00008956*
X0001222Y0000896*
X0001222Y00008964*
Y00008967*
X00012219Y0000897*
X00012219Y00008972*
Y00008974*
Y00008975*
Y00008975*
X00012219Y00008985*
X0001222Y00008994*
X00012222Y00009003*
X00012224Y00009012*
X00012225Y0000902*
X00012228Y00009028*
X00012231Y00009035*
X00012234Y00009042*
X00012237Y00009048*
X00012239Y00009053*
X00012242Y00009058*
X00012244Y00009062*
X00012246Y00009065*
X00012248Y00009068*
X00012249Y00009069*
X00012249Y0000907*
X00012255Y00009077*
X00012261Y00009084*
X00012267Y00009089*
X00012273Y00009094*
X0001228Y00009098*
X00012286Y00009101*
X00012292Y00009105*
X00012298Y00009107*
X00012303Y00009109*
X00012308Y0000911*
X00012312Y00009111*
X00012316Y00009111*
X0001232Y00009112*
X00012322Y00009112*
X00012324*
X00012329Y00009112*
X00012334Y00009111*
X00012343Y00009109*
X00012351Y00009107*
X00012359Y00009104*
X00012362Y00009102*
X00012365Y00009101*
X00012368Y000091*
X0001237Y00009098*
X00012372Y00009098*
X00012373Y00009096*
X00012374Y00009096*
X00012374Y00009096*
X00012389Y00009145*
X00012378Y00009149*
X00012367Y00009152*
X00012357Y00009154*
X00012347Y00009156*
X00012343Y00009156*
X00012339Y00009157*
X00012335*
X00012332*
X0001233Y00009157*
X00012389*
G37*
G36*
X00012669Y00009152D02*
X00012608D01*
X00012487Y0000902*
X00012511Y00009152*
X00012459*
X00012406Y00008861*
X00012562*
X00012457*
X00012472Y0000894*
X00012514Y00008986*
X00012568Y00008861*
X00012669*
X00012627*
X00012554Y00009024*
X00012669Y00009152*
G37*
G36*
X00012131Y00009155D02*
X000119D01*
Y00008861*
Y00009155*
X0001202*
X00012015Y00009155*
X00012009*
X00012003*
X00011997Y00009154*
X00011984Y00009154*
X00011978Y00009153*
X00011972Y00009153*
X00011967Y00009153*
X00011962*
X00011958*
X00011955Y00009152*
X00011953*
X000119Y00008861*
X00011953*
X00011975Y00008983*
X00011982Y00008983*
X00011988Y00008982*
X00011994Y00008982*
X00011999*
X00012003*
X00012008*
X00012064Y00008861*
X00012122*
X00012057Y0000899*
X00012063Y00008992*
X00012069Y00008994*
X00012074Y00008996*
X0001208Y00008999*
X00012084Y00009001*
X00012089Y00009004*
X00012093Y00009007*
X00012096Y0000901*
X000121Y00009012*
X00012102Y00009015*
X00012105Y00009017*
X00012107Y00009019*
X00012109Y00009021*
X0001211Y00009023*
X0001211Y00009023*
X00012111Y00009024*
X00012114Y00009029*
X00012117Y00009034*
X0001212Y00009039*
X00012122Y00009044*
X00012124Y00009049*
X00012125Y00009054*
X00012128Y00009064*
X00012129Y00009068*
X00012129Y00009072*
X0001213Y00009075*
X0001213Y00009078*
X00012131Y00009081*
Y00009084*
X0001213Y0000909*
X00012129Y00009096*
X00012128Y00009102*
X00012126Y00009107*
X00012124Y00009112*
X00012122Y00009116*
X0001212Y0000912*
X00012117Y00009123*
X00012114Y00009127*
X00012112Y00009129*
X0001211Y00009131*
X00012107Y00009133*
X00012106Y00009135*
X00012104Y00009136*
X00012103Y00009137*
X00012103Y00009137*
X00012098Y0000914*
X00012092Y00009143*
X00012086Y00009145*
X0001208Y00009147*
X00012068Y00009151*
X00012055Y00009153*
X0001205Y00009153*
X00012045Y00009154*
X0001204Y00009155*
X00012037*
X00012033Y00009155*
X00012131*
G37*
%LNnixie_in12-13*%
%LPD*%
G36*
X00012029Y00009109D02*
X00012033Y00009109D01*
X00012038Y00009108*
X00012043Y00009107*
X00012047Y00009107*
X0001205Y00009105*
X00012053Y00009105*
X00012056Y00009104*
X00012059Y00009103*
X00012061Y00009103*
X00012062Y00009102*
X00012063Y00009101*
X00012064Y00009101*
X00012064Y00009101*
X00012067Y00009099*
X0001207Y00009097*
X00012073Y00009092*
X00012075Y00009088*
X00012077Y00009083*
X00012078Y00009079*
X00012079Y00009075*
X00012079Y00009074*
Y00009073*
Y00009072*
X00012079Y00009068*
X00012078Y00009064*
X00012077Y0000906*
X00012076Y00009057*
X00012074Y00009053*
X00012072Y0000905*
X00012067Y00009045*
X00012062Y0000904*
X00012055Y00009037*
X00012048Y00009033*
X00012041Y00009031*
X00012035Y00009029*
X00012027Y00009027*
X00012021Y00009026*
X00012015Y00009025*
X00012011Y00009025*
X00012009*
X00012007*
X00012003*
X00011996*
X00011993*
X0001199Y00009025*
X00011987Y00009026*
X00011985*
X00011984Y00009026*
X00011983*
X00011998Y00009107*
X00012003Y00009108*
X00012007Y00009109*
X00012011Y00009109*
X00012013*
X00012015Y00009109*
X00012023*
X00012029Y00009109*
G37*
%LNnixie_in12-14*%
%LPC*%
G36*
X00001118Y0000816D02*
X00000894D01*
X00001055*
X00001042Y00008159*
X00001029Y00008158*
X00001018Y00008155*
X00001007Y00008151*
X00000996Y00008148*
X00000987Y00008143*
X00000978Y00008138*
X0000097Y00008133*
X00000963Y00008128*
X00000957Y00008123*
X00000951Y00008118*
X00000947Y00008114*
X00000943Y00008111*
X0000094Y00008108*
X00000939Y00008106*
X00000938Y00008105*
X00000931Y00008095*
X00000924Y00008084*
X00000918Y00008073*
X00000913Y00008062*
X00000909Y0000805*
X00000905Y00008039*
X00000902Y00008028*
X000009Y00008018*
X00000898Y00008008*
X00000896Y00007999*
X00000896Y00007991*
X00000895Y00007984*
X00000894Y00007981*
Y00007979*
Y00007976*
Y00007974*
Y00007971*
Y00007961*
X00000896Y00007953*
X00000897Y00007945*
X00000899Y00007937*
X00000901Y0000793*
X00000903Y00007924*
X00000906Y00007917*
X00000909Y00007912*
X00000911Y00007907*
X00000914Y00007902*
X00000916Y00007899*
X00000918Y00007896*
X0000092Y00007893*
X00000922Y00007891*
X00000923Y0000789*
X00000923Y0000789*
X00000929Y00007885*
X00000935Y0000788*
X00000941Y00007875*
X00000947Y00007872*
X00000953Y00007869*
X0000096Y00007867*
X00000966Y00007865*
X00000972Y00007863*
X00000977Y00007862*
X00000983Y00007861*
X00000987Y0000786*
X00000991Y0000786*
X00000995Y00007859*
X00000997Y00007859*
X00000999*
X00001009Y00007859*
X00001018Y0000786*
X00001026Y00007861*
X00001034Y00007863*
X00001042Y00007865*
X00001048Y00007867*
X00001054Y00007869*
X00001059Y00007872*
X00001064Y00007874*
X00001069Y00007876*
X00001072Y00007878*
X00001075Y0000788*
X00001077Y00007881*
X00001079Y00007883*
X0000108Y00007883*
X0000108Y00007884*
X00001081Y00007929*
X00001076Y00007925*
X00001071Y00007921*
X00001065Y00007918*
X00001059Y00007915*
X00001053Y00007912*
X00001048Y00007911*
X00001042Y00007909*
X00001036Y00007908*
X0000103Y00007906*
X00001025Y00007906*
X00001021Y00007905*
X00001017Y00007905*
X00001014*
X00001012Y00007904*
X0000101*
X00001005Y00007905*
X00001Y00007905*
X00000995Y00007906*
X0000099Y00007908*
X00000986Y00007909*
X00000983Y00007911*
X00000979Y00007912*
X00000976Y00007914*
X00000973Y00007916*
X00000971Y00007918*
X00000969Y0000792*
X00000967Y00007922*
X00000966Y00007922*
X00000965Y00007924*
X00000964Y00007924*
X00000964Y00007924*
X00000961Y00007928*
X00000959Y00007933*
X00000957Y00007937*
X00000955Y00007941*
X00000951Y0000795*
X0000095Y00007959*
X00000949Y00007962*
X00000949Y00007966*
X00000948Y0000797*
X00000948Y00007972*
X00000948Y00007975*
Y00007977*
Y00007977*
Y00007978*
X00000948Y00007987*
X00000949Y00007997*
X00000951Y00008006*
X00000952Y00008014*
X00000955Y00008023*
X00000957Y00008031*
X0000096Y00008038*
X00000963Y00008044*
X00000966Y00008051*
X00000968Y00008056*
X00000971Y00008061*
X00000973Y00008065*
X00000975Y00008068*
X00000977Y0000807*
X00000977Y00008072*
X00000978Y00008072*
X00000984Y0000808*
X0000099Y00008087*
X00000996Y00008092*
X00001002Y00008097*
X00001009Y00008101*
X00001015Y00008105*
X00001021Y00008107*
X00001027Y0000811*
X00001032Y00008111*
X00001037Y00008112*
X00001042Y00008114*
X00001045Y00008114*
X00001048*
X00001051Y00008115*
X00001053*
X00001058Y00008114*
X00001063*
X00001072Y00008112*
X00001081Y0000811*
X00001088Y00008107*
X00001091Y00008105*
X00001094Y00008104*
X00001097Y00008103*
X00001099Y00008101*
X00001101Y000081*
X00001102Y00008099*
X00001103Y00008099*
X00001118Y00008148*
X00001107Y00008152*
X00001096Y00008155*
X00001086Y00008157*
X00001076Y00008159*
X00001072Y00008159*
X00001068Y00008159*
X00001064Y0000816*
X00001061*
X00001059*
X00001118*
G37*
G36*
X00000871D02*
X00000676D01*
X00000803*
X00000795*
X00000787Y00008159*
X0000078Y00008158*
X00000774Y00008156*
X00000767Y00008154*
X00000762Y00008152*
X00000757Y0000815*
X00000751Y00008148*
X00000747Y00008146*
X00000744Y00008144*
X0000074Y00008142*
X00000738Y0000814*
X00000735Y00008138*
X00000734Y00008137*
X00000733Y00008137*
X00000733Y00008136*
X00000728Y00008132*
X00000724Y00008127*
X0000072Y00008122*
X00000718Y00008116*
X00000715Y00008111*
X00000713Y00008106*
X00000711Y00008101*
X0000071Y00008096*
X00000709Y00008091*
X00000708Y00008087*
X00000707Y00008083*
X00000707Y00008079*
Y00008077*
X00000706Y00008074*
Y00008073*
Y00008073*
X00000707Y00008065*
X00000707Y00008062*
X00000708Y00008059*
X00000708Y00008056*
X00000709Y00008054*
X00000709Y00008053*
Y00008053*
X00000712Y00008046*
X00000713Y00008042*
X00000714Y0000804*
X00000716Y00008037*
X00000716Y00008035*
X00000717Y00008034*
X00000718Y00008034*
X0000072Y0000803*
X00000722Y00008027*
X00000724Y00008025*
X00000725Y00008023*
X00000726Y00008022*
X00000727Y0000802*
X00000727Y0000802*
X00000728Y00008019*
X0000073Y00008017*
X00000733Y00008014*
X0000074Y00008009*
X00000743Y00008007*
X00000745Y00008005*
X00000747Y00008003*
X00000747Y00008003*
X00000779Y00007978*
X00000783Y00007974*
X00000787Y00007971*
X0000079Y00007967*
X00000794Y00007964*
X00000796Y00007961*
X00000798Y00007958*
X000008Y00007955*
X00000801Y00007952*
X00000803Y00007948*
X00000804Y00007944*
X00000804Y00007943*
Y00007942*
Y00007942*
Y00007938*
X00000804Y00007936*
X00000802Y00007931*
X000008Y00007926*
X00000798Y00007922*
X00000795Y0000792*
X00000792Y00007918*
X00000791Y00007916*
X0000079*
X0000079*
X00000785Y00007913*
X00000779Y00007911*
X00000773Y00007909*
X00000767Y00007908*
X00000762Y00007907*
X0000076*
X00000759Y00007907*
X00000755*
X00000748Y00007907*
X00000742Y00007908*
X00000736Y00007909*
X0000073Y0000791*
X00000725Y00007912*
X0000072Y00007913*
X00000715Y00007915*
X00000711Y00007917*
X00000707Y00007919*
X00000703Y00007921*
X000007Y00007922*
X00000698Y00007924*
X00000696Y00007925*
X00000694Y00007926*
X00000693Y00007927*
X00000693Y00007927*
X00000676Y00007876*
X00000683Y00007873*
X0000069Y0000787*
X00000696Y00007868*
X00000703Y00007866*
X00000715Y00007863*
X00000721Y00007862*
X00000726Y00007861*
X00000731Y00007861*
X00000736Y0000786*
X0000074Y0000786*
X00000744Y00007859*
X00000746Y00007859*
X0000075*
X00000759Y00007859*
X00000767Y0000786*
X00000775Y00007861*
X00000782Y00007863*
X00000789Y00007864*
X00000796Y00007866*
X00000801Y00007868*
X00000807Y0000787*
X00000812Y00007872*
X00000816Y00007875*
X0000082Y00007876*
X00000822Y00007878*
X00000825Y00007879*
X00000826Y00007881*
X00000827Y00007881*
Y00007881*
X00000833Y00007886*
X00000837Y0000789*
X00000842Y00007896*
X00000845Y000079*
X00000848Y00007906*
X00000851Y00007911*
X00000853Y00007916*
X00000854Y00007921*
X00000855Y00007926*
X00000856Y0000793*
X00000857Y00007934*
X00000857Y00007937*
Y0000794*
X00000858Y00007942*
Y00007944*
X00000857Y00007951*
Y00007955*
X00000856Y00007957*
X00000855Y0000796*
X00000855Y00007962*
X00000855Y00007963*
Y00007964*
X00000852Y00007971*
X00000851Y00007975*
X00000849Y00007977*
X00000848Y0000798*
X00000847Y00007982*
X00000846Y00007983*
X00000846Y00007983*
X00000843Y00007987*
X00000841Y0000799*
X00000839Y00007993*
X00000838Y00007995*
X00000836Y00007996*
X00000835Y00007998*
X00000835Y00007998*
X00000834Y00007999*
X00000832Y00008001*
X00000829Y00008004*
X00000823Y00008009*
X0000082Y00008012*
X00000818Y00008014*
X00000816Y00008016*
X00000815Y00008016*
X00000785Y00008042*
X00000781Y00008046*
X00000777Y00008049*
X00000773Y00008053*
X00000771Y00008056*
X00000768Y0000806*
X00000766Y00008062*
X00000764Y00008065*
X00000763Y00008068*
X00000761Y00008072*
X0000076Y00008075*
X0000076Y00008077*
Y00008078*
X00000761Y00008085*
X00000762Y0000809*
X00000764Y00008095*
X00000767Y00008099*
X00000771Y00008103*
X00000775Y00008105*
X00000779Y00008108*
X00000784Y0000811*
X00000788Y00008111*
X00000792Y00008112*
X00000796Y00008113*
X000008Y00008114*
X00000803Y00008114*
X00000806Y00008114*
X00000808*
X00000812Y00008114*
X00000816Y00008114*
X00000825Y00008112*
X00000833Y00008109*
X0000084Y00008106*
X00000843Y00008105*
X00000846Y00008103*
X00000849Y00008101*
X00000851Y000081*
X00000852Y00008099*
X00000853Y00008098*
X00000854Y00008098*
X00000855Y00008098*
X00000871Y00008149*
X00000867Y0000815*
X00000862Y00008152*
X00000857Y00008153*
X00000851Y00008154*
X00000847Y00008155*
X00000843Y00008156*
X00000841*
X0000084Y00008156*
X00000839*
X00000831Y00008158*
X00000824Y00008158*
X00000818Y00008159*
X00000812Y0000816*
X00000808*
X00000805*
X00000871*
G37*
G36*
X00001398Y00008155D02*
X00001337D01*
X00001216Y00008023*
X0000124Y00008155*
X00001296*
X00001188*
X00001135Y00007864*
X00001216*
X00001187*
X00001201Y00007943*
X00001242Y00007988*
X00001297Y00007864*
X00001355*
X00001283Y00008027*
X00001398Y00008155*
G37*
G36*
X00012365Y00008157D02*
X00012302D01*
X00012289Y00008157*
X00012277Y00008155*
X00012265Y00008152*
X00012253Y00008149*
X00012243Y00008145*
X00012233Y0000814*
X00012225Y00008135*
X00012217Y0000813*
X0001221Y00008125*
X00012204Y0000812*
X00012198Y00008115*
X00012194Y00008111*
X0001219Y00008107*
X00012188Y00008105*
X00012186Y00008103*
X00012186Y00008103*
X00012178Y00008092*
X00012171Y00008081*
X00012165Y0000807*
X0001216Y00008059*
X00012156Y00008047*
X00012152Y00008036*
X00012149Y00008025*
X00012147Y00008015*
X00012145Y00008005*
X00012144Y00007996*
X00012143Y00007988*
X00012142Y00007981*
X00012142Y00007978*
Y00007976*
Y00007974*
X00012141Y00007972*
Y00007968*
X00012142Y00007959*
X00012143Y0000795*
X00012144Y00007942*
X00012146Y00007935*
X00012148Y00007927*
X00012151Y00007921*
X00012153Y00007914*
X00012156Y00007909*
X00012159Y00007904*
X00012161Y000079*
X00012164Y00007896*
X00012166Y00007893*
X00012168Y0000789*
X00012169Y00007888*
X0001217Y00007887*
X0001217*
X00012176Y00007881*
X00012182Y00007877*
X00012188Y00007873*
X00012194Y0000787*
X00012201Y00007866*
X00012207Y00007864*
X00012213Y00007862*
X00012219Y0000786*
X00012225Y00007859*
X0001223Y00007858*
X00012235Y00007857*
X00012238Y00007857*
X00012242Y00007857*
X00012244Y00007856*
X00012141*
X00012246*
X00012256Y00007857*
X00012265Y00007857*
X00012274Y00007859*
X00012281Y0000786*
X00012288Y00007862*
X00012295Y00007864*
X00012301Y00007866*
X00012307Y00007869*
X00012312Y00007871*
X00012316Y00007873*
X00012319Y00007875*
X00012322Y00007877*
X00012324Y00007879*
X00012326Y0000788*
X00012327Y00007881*
X00012327Y00007881*
X00012329Y00007927*
X00012324Y00007922*
X00012318Y00007918*
X00012312Y00007915*
X00012306Y00007912*
X000123Y0000791*
X00012294Y00007908*
X00012288Y00007906*
X00012283Y00007905*
X00012277Y00007903*
X00012273Y00007903*
X00012268Y00007902*
X00012264Y00007902*
X00012261*
X00012259Y00007901*
X00012257*
X00012251Y00007902*
X00012247Y00007903*
X00012242Y00007903*
X00012237Y00007905*
X00012233Y00007906*
X00012229Y00007908*
X00012226Y0000791*
X00012223Y00007912*
X0001222Y00007913*
X00012218Y00007915*
X00012216Y00007917*
X00012214Y00007919*
X00012213Y0000792*
X00012212Y00007921*
Y00007921*
X00012211Y00007922*
X00012208Y00007925*
X00012206Y0000793*
X00012204Y00007934*
X00012202Y00007938*
X00012199Y00007947*
X00012197Y00007956*
X00012196Y0000796*
Y00007964*
X00012196Y00007967*
X00012195Y0000797*
X00012195Y00007972*
Y00007974*
Y00007975*
Y00007975*
X00012195Y00007985*
X00012196Y00007994*
X00012198Y00008003*
X000122Y00008012*
X00012202Y0000802*
X00012204Y00008028*
X00012207Y00008035*
X0001221Y00008042*
X00012213Y00008048*
X00012216Y00008053*
X00012218Y00008058*
X0001222Y00008062*
X00012222Y00008065*
X00012224Y00008068*
X00012225Y00008069*
X00012225Y0000807*
X00012231Y00008077*
X00012237Y00008084*
X00012243Y00008089*
X00012249Y00008094*
X00012256Y00008098*
X00012262Y00008101*
X00012268Y00008105*
X00012274Y00008107*
X00012279Y00008109*
X00012284Y0000811*
X00012288Y00008111*
X00012292Y00008111*
X00012296Y00008112*
X00012298Y00008112*
X000123*
X00012305Y00008112*
X0001231Y00008111*
X00012319Y00008109*
X00012328Y00008107*
X00012335Y00008104*
X00012338Y00008102*
X00012342Y00008101*
X00012344Y000081*
X00012346Y00008098*
X00012348Y00008098*
X00012349Y00008096*
X0001235Y00008096*
X0001235Y00008096*
X00012365Y00008145*
X00012354Y00008149*
X00012344Y00008152*
X00012333Y00008154*
X00012323Y00008156*
X00012319Y00008156*
X00012315Y00008157*
X00012311*
X00012308*
X00012306Y00008157*
X00012365*
G37*
G36*
X00012118D02*
D01*
Y00007856*
X00011998*
X00012006Y00007857*
X00012014Y00007857*
X00012022Y00007858*
X00012029Y0000786*
X00012037Y00007862*
X00012043Y00007864*
X00012049Y00007866*
X00012054Y00007868*
X00012059Y0000787*
X00012063Y00007872*
X00012066Y00007874*
X0001207Y00007875*
X00012072Y00007877*
X00012074Y00007877*
X00012074Y00007878*
X00012075Y00007879*
X0001208Y00007883*
X00012085Y00007888*
X00012089Y00007893*
X00012092Y00007898*
X00012095Y00007903*
X00012098Y00007908*
X000121Y00007913*
X00012101Y00007918*
X00012102Y00007923*
X00012103Y00007927*
X00012104Y00007931*
X00012105Y00007935*
Y00007937*
X00012105Y00007939*
Y0000794*
Y00007941*
X00012104Y00007948*
X00012104Y00007952*
X00012103Y00007955*
X00012103Y00007957*
X00012102Y00007959*
X00012102Y00007961*
Y00007961*
X00012099Y00007968*
X00012098Y00007972*
X00012096Y00007975*
X00012095Y00007977*
X00012094Y00007979*
X00012093Y0000798*
X00012093Y00007981*
X0001209Y00007984*
X00012088Y00007987*
X00012087Y0000799*
X00012085Y00007992*
X00012083Y00007994*
X00012082Y00007995*
X00012082Y00007996*
X00012081*
X00012079Y00007998*
X00012076Y00008001*
X0001207Y00008007*
X00012067Y00008009*
X00012064Y00008011*
X00012063Y00008013*
X00012062Y00008013*
X00012032Y00008039*
X00012027Y00008043*
X00012024Y00008046*
X0001202Y0000805*
X00012018Y00008053*
X00012015Y00008057*
X00012013Y0000806*
X00012011Y00008062*
X0001201Y00008065*
X00012008Y00008069*
X00012007Y00008072*
X00012007Y00008074*
Y00008075*
Y00008075*
X00012007Y00008082*
X00012009Y00008087*
X00012011Y00008092*
X00012014Y00008096*
X00012018Y000081*
X00012022Y00008103*
X00012026Y00008105*
X00012031Y00008107*
X00012035Y00008109*
X0001204Y00008109*
X00012044Y00008111*
X00012047Y00008111*
X00012051Y00008111*
X00012053*
X00012055*
X00012059*
X00012064Y00008111*
X00012072Y00008109*
X0001208Y00008106*
X00012087Y00008103*
X0001209Y00008101*
X00012093Y000081*
X00012096Y00008099*
X00012098Y00008098*
X000121Y00008096*
X00012101Y00008096*
X00012101Y00008095*
X00012102Y00008095*
X00012118Y00008146*
X00012114Y00008148*
X00012109Y00008149*
X00012104Y0000815*
X00012099Y00008151*
X00012094Y00008152*
X0001209Y00008153*
X00012088Y00008153*
X00012087Y00008153*
X00012086*
X00012078Y00008155*
X00012071Y00008155*
X00012065Y00008156*
X0001206Y00008157*
X00012055*
X00012053Y00008157*
X0001205*
X00012042Y00008157*
X00012035Y00008156*
X00012027Y00008155*
X00012021Y00008153*
X00012014Y00008151*
X00012009Y0000815*
X00012003Y00008148*
X00011999Y00008145*
X00011994Y00008143*
X00011991Y00008141*
X00011988Y00008139*
X00011985Y00008137*
X00011983Y00008136*
X00011981Y00008135*
X0001198Y00008134*
X0001198Y00008133*
X00011975Y00008129*
X00011971Y00008124*
X00011968Y00008119*
X00011964Y00008114*
X00011962Y00008109*
X0001196Y00008103*
X00011958Y00008098*
X00011957Y00008093*
X00011956Y00008088*
X00011955Y00008084*
X00011954Y0000808*
X00011954Y00008076*
Y00008074*
X00011953Y00008072*
Y0000807*
Y0000807*
X00011954Y00008062*
X00011954Y00008059*
X00011955Y00008056*
X00011955Y00008053*
X00011956Y00008051*
X00011956Y0000805*
Y0000805*
X00011959Y00008043*
X0001196Y0000804*
X00011961Y00008037*
X00011962Y00008035*
X00011964Y00008033*
X00011964Y00008031*
X00011964*
X00011966Y00008027*
X00011968Y00008025*
X0001197Y00008022*
X00011972Y0000802*
X00011973Y00008019*
X00011974Y00008017*
X00011975Y00008017*
X00011975Y00008016*
X00011977Y00008014*
X0001198Y00008012*
X00011987Y00008006*
X0001199Y00008004*
X00011992Y00008002*
X00011994Y00008001*
X00011994Y00008*
X00012026Y00007975*
X00012031Y00007972*
X00012035Y00007968*
X00012038Y00007964*
X00012041Y00007961*
X00012043Y00007958*
X00012045Y00007955*
X00012047Y00007952*
X00012048Y0000795*
X0001205Y00007945*
X00012051Y00007942*
X00012051Y0000794*
Y00007939*
Y00007939*
Y00007938*
Y00007936*
X00012051Y00007933*
X00012049Y00007928*
X00012047Y00007923*
X00012045Y0000792*
X00012042Y00007917*
X0001204Y00007915*
X00012038Y00007913*
X00012038Y00007913*
X00012037*
X00012032Y0000791*
X00012026Y00007908*
X0001202Y00007907*
X00012014Y00007905*
X00012009Y00007905*
X00012007*
X00012005Y00007904*
X00012002*
X00011996Y00007905*
X00011989Y00007905*
X00011983Y00007906*
X00011977Y00007907*
X00011972Y00007909*
X00011967Y00007911*
X00011962Y00007912*
X00011958Y00007914*
X00011954Y00007916*
X0001195Y00007918*
X00011947Y0000792*
X00011945Y00007921*
X00011942Y00007922*
X00011941Y00007923*
X0001194Y00007924*
X0001194Y00007924*
X00011924Y00007873*
X0001193Y0000787*
X00011937Y00007868*
X00011943Y00007865*
X0001195Y00007864*
X00011962Y0000786*
X00011968Y00007859*
X00011974Y00007858*
X00011979Y00007858*
X00011983Y00007857*
X00011987Y00007857*
X00011991Y00007857*
X00011994Y00007856*
X00011924*
X00012118*
Y00008157*
G37*
G36*
X00012645Y00008152D02*
X00012584D01*
X00012463Y0000802*
X00012487Y00008152*
X00012543*
X00012435*
X00012382Y00007861*
X00012463*
X00012434*
X00012448Y0000794*
X0001249Y00007986*
X00012544Y00007861*
X00012603*
X0001253Y00008024*
X00012645Y00008152*
G37*
G36*
D01*
Y00007861*
Y00008152*
G37*
G36*
X00012365Y00008157D02*
D01*
Y00007856*
Y00008157*
G37*
G36*
X00001077Y00007157D02*
X00000727D01*
X00000786Y00006862*
X00000814*
X00000977Y00007157*
X00001025*
X00000972Y00006866*
X00000977*
X00001024*
X00001077Y00007157*
G37*
G36*
X00001347D02*
X00001081D01*
X00001135*
X00001081Y00006866*
X00001133*
X00001165Y0000705*
X00001273Y00006862*
X00001293*
X00001347Y00007157*
G37*
%LNnixie_in12-15*%
%LPD*%
G36*
X00000818Y00006964D02*
X00000783Y00007157D01*
X0000092*
X00000818Y00006964*
G37*
G36*
X00001264Y00006976D02*
X00001159Y00007157D01*
X00001296*
X00001264Y00006976*
G37*
%LNnixie_in12-16*%
%LPC*%
G36*
X00012324Y00007154D02*
X00011975D01*
X00012033Y00006859*
X00012061*
X00012225Y00007154*
X00012272*
X00012219Y00006863*
X00012225*
X00012324*
X00012271*
X00012324Y00007154*
G37*
G36*
X00012594D02*
X00012329D01*
X00012382*
X00012329Y00006863*
X0001238*
X00012412Y00007047*
X0001252Y00006859*
X0001254*
X00012594Y00007154*
G37*
%LNnixie_in12-17*%
%LPD*%
G36*
X00012064Y00006962D02*
X0001203Y00007154D01*
X00012166*
X00012064Y00006962*
G37*
G36*
X00012511Y00006974D02*
X00012406Y00007154D01*
X00012543*
X00012511Y00006974*
G37*
%LNnixie_in12-18*%
%LPC*%
G36*
X00001428Y0000616D02*
X00001182D01*
X00001289*
X0000128Y00006159*
X0000127Y00006159*
X00001261Y00006158*
X00001253Y00006157*
X00001249Y00006157*
X00001245Y00006156*
X00001242*
X0000124Y00006155*
X00001238Y00006155*
X00001236Y00006155*
X00001235Y00006154*
X00001235*
X00001182Y00005864*
X00001252*
X00001267Y00005865*
X00001281Y00005866*
X00001294Y00005869*
X00001306Y00005872*
X00001317Y00005875*
X00001328Y00005879*
X00001337Y00005883*
X00001346Y00005888*
X00001354Y00005892*
X00001361Y00005897*
X00001366Y00005901*
X00001371Y00005904*
X00001375Y00005908*
X00001378Y0000591*
X00001379Y00005911*
X0000138Y00005912*
X00001389Y00005922*
X00001396Y00005931*
X00001403Y00005942*
X00001408Y00005953*
X00001412Y00005963*
X00001416Y00005974*
X0000142Y00005985*
X00001422Y00005995*
X00001424Y00006004*
X00001426Y00006013*
X00001427Y00006021*
X00001428Y00006028*
Y00006031*
Y00006033*
Y00006036*
X00001428Y00006038*
Y00005864*
Y0000616*
G37*
G36*
X0000118Y00006155D02*
D01*
Y0000586*
X00001126*
X0000118Y00006155*
X00000915*
X00000968*
X00000915Y00005864*
X00000966*
X00000998Y00006048*
X00001106Y0000586*
X0000118*
Y00006155*
G37*
G36*
X00000893Y0000616D02*
X00000646D01*
X00000823*
X00000808Y00006159*
X00000794Y00006158*
X00000781Y00006155*
X00000768Y00006152*
X00000757Y00006148*
X00000746Y00006144*
X00000737Y00006139*
X00000728Y00006135*
X0000072Y0000613*
X00000713Y00006125*
X00000707Y00006121*
X00000703Y00006117*
X00000699Y00006114*
X00000696Y00006111*
X00000694Y0000611*
X00000694Y00006109*
X00000685Y00006099*
X00000678Y00006089*
X00000672Y00006077*
X00000666Y00006066*
X00000661Y00006055*
X00000657Y00006044*
X00000655Y00006032*
X00000652Y00006022*
X0000065Y00006012*
X00000649Y00006002*
X00000648Y00005994*
X00000647Y00005987*
Y00005983*
X00000646Y00005981*
Y00005978*
X00000646Y00005976*
Y00005972*
X00000646Y00005963*
X00000648Y00005955*
X00000649Y00005946*
X00000651Y00005939*
X00000653Y00005932*
X00000656Y00005925*
X00000659Y00005919*
X00000662Y00005913*
X00000664Y00005908*
X00000667Y00005904*
X0000067Y000059*
X00000672Y00005897*
X00000674Y00005894*
X00000676Y00005892*
X00000677Y00005891*
Y00005891*
X00000683Y00005885*
X0000069Y00005881*
X00000696Y00005876*
X00000703Y00005873*
X0000071Y0000587*
X00000716Y00005867*
X00000723Y00005865*
X0000073Y00005863*
X00000736Y00005862*
X00000741Y00005861*
X00000746Y0000586*
X0000075Y0000586*
X00000754Y00005859*
X00000756Y00005859*
X00000759*
X0000077Y00005859*
X00000782Y00005861*
X00000793Y00005862*
X00000803Y00005864*
X00000813Y00005866*
X00000822Y00005869*
X00000831Y00005872*
X00000838Y00005875*
X00000845Y00005877*
X00000851Y00005881*
X00000856Y00005883*
X00000861Y00005885*
X00000864Y00005887*
X00000866Y00005889*
X00000868Y0000589*
X00000868Y0000589*
X00000893Y00006021*
X00000801*
X00000793Y00005977*
X00000834*
X00000823Y0000592*
X00000819Y00005917*
X00000815Y00005915*
X00000806Y00005911*
X00000798Y00005908*
X0000079Y00005906*
X00000787Y00005906*
X00000783Y00005905*
X0000078Y00005905*
X00000778*
X00000775Y00005904*
X00000773*
X00000767Y00005905*
X00000761Y00005905*
X00000755Y00005906*
X0000075Y00005907*
X00000746Y00005909*
X00000741Y00005911*
X00000737Y00005912*
X00000733Y00005914*
X0000073Y00005916*
X00000727Y00005918*
X00000725Y0000592*
X00000723Y00005921*
X00000721Y00005922*
X0000072Y00005923*
X0000072Y00005924*
X00000719*
X00000716Y00005928*
X00000712Y00005932*
X0000071Y00005937*
X00000708Y00005941*
X00000706Y00005946*
X00000705Y00005951*
X00000702Y00005959*
X00000701Y00005964*
X00000701Y00005967*
X000007Y00005971*
X000007Y00005974*
X000007Y00005977*
Y00005978*
Y00005979*
Y0000598*
X000007Y0000599*
X00000701Y00006001*
X00000703Y0000601*
X00000705Y00006019*
X00000707Y00006028*
X0000071Y00006036*
X00000712Y00006043*
X00000716Y0000605*
X00000718Y00006056*
X00000721Y00006061*
X00000724Y00006066*
X00000726Y00006069*
X00000728Y00006072*
X0000073Y00006074*
X00000731Y00006075*
X00000731Y00006076*
X00000738Y00006083*
X00000744Y00006089*
X00000751Y00006094*
X00000758Y00006098*
X00000765Y00006102*
X00000772Y00006105*
X00000779Y00006108*
X00000785Y0000611*
X00000792Y00006111*
X00000797Y00006112*
X00000803Y00006113*
X00000807Y00006114*
X00000811Y00006114*
X00000813*
X00000816*
X00000821*
X00000827Y00006114*
X00000837Y00006112*
X00000847Y00006109*
X00000851Y00006107*
X00000856Y00006106*
X00000859Y00006104*
X00000863Y00006103*
X00000866Y00006101*
X00000869Y000061*
X00000871Y00006099*
X00000872Y00006098*
X00000874Y00006097*
X00000874*
X0000089Y0000614*
X00000885Y00006144*
X0000088Y00006146*
X00000875Y00006149*
X0000087Y00006151*
X00000864Y00006153*
X00000859Y00006155*
X00000848Y00006157*
X00000843Y00006158*
X00000838Y00006159*
X00000834Y00006159*
X00000831Y0000616*
X00000827*
X00000893*
Y00005859*
Y0000616*
G37*
%LNnixie_in12-19*%
%LPD*%
G36*
X00001428Y00006041D02*
X00001428Y00006052D01*
X00001427Y00006062*
X00001425Y00006071*
X00001423Y00006079*
X0000142Y00006087*
X00001417Y00006094*
X00001414Y00006101*
X00001411Y00006107*
X00001407Y00006112*
X00001403Y00006116*
X00001401Y0000612*
X00001398Y00006124*
X00001395Y00006126*
X00001394Y00006128*
X00001392Y00006129*
X00001392Y00006129*
X00001385Y00006134*
X00001377Y00006139*
X00001369Y00006143*
X00001361Y00006147*
X00001352Y0000615*
X00001344Y00006152*
X00001335Y00006154*
X00001327Y00006156*
X00001319Y00006157*
X00001312Y00006158*
X00001306Y00006159*
X000013Y00006159*
X00001296*
X00001292Y0000616*
X00001428*
Y00006041*
G37*
G36*
X00001304Y00006114D02*
X0000131Y00006114D01*
X00001315Y00006112*
X0000132Y00006112*
X00001325Y0000611*
X0000133Y00006109*
X00001334Y00006107*
X00001338Y00006105*
X00001341Y00006103*
X00001344Y00006101*
X00001347Y000061*
X00001349Y00006098*
X0000135Y00006097*
X00001351Y00006096*
X00001352Y00006095*
X00001353*
X00001357Y00006091*
X0000136Y00006087*
X00001363Y00006083*
X00001365Y00006079*
X00001367Y00006074*
X00001369Y0000607*
X00001372Y00006062*
X00001373Y00006058*
X00001373Y00006055*
X00001374Y00006052*
X00001374Y00006049*
X00001374Y00006046*
Y00006045*
Y00006044*
Y00006044*
X00001374Y00006033*
X00001373Y00006022*
X00001371Y00006012*
X00001369Y00006003*
X00001367Y00005995*
X00001364Y00005987*
X00001361Y0000598*
X00001359Y00005973*
X00001355Y00005967*
X00001353Y00005962*
X0000135Y00005957*
X00001348Y00005954*
X00001346Y00005951*
X00001344Y00005949*
X00001343Y00005948*
X00001343Y00005947*
X00001337Y0000594*
X0000133Y00005935*
X00001324Y0000593*
X00001316Y00005925*
X00001309Y00005922*
X00001302Y00005919*
X00001295Y00005916*
X00001288Y00005914*
X00001283Y00005913*
X00001277Y00005912*
X00001272Y00005911*
X00001267Y0000591*
X00001263*
X00001261Y0000591*
X00001253*
X00001248Y0000591*
X00001246*
X00001244*
X00001242*
X00001278Y00006112*
X00001285Y00006114*
X00001288Y00006114*
X00001292Y00006114*
X00001294*
X00001298*
X00001304*
G37*
G36*
X00001097Y00005974D02*
X00000992Y00006155D01*
X00001129*
X00001097Y00005974*
G37*
%LNnixie_in12-20*%
%LPC*%
G36*
X00012675Y00006157D02*
D01*
Y00006038*
X00012675Y00006049*
X00012674Y00006059*
X00012672Y00006068*
X0001267Y00006076*
X00012667Y00006084*
X00012664Y00006092*
X00012661Y00006098*
X00012657Y00006104*
X00012654Y00006109*
X00012651Y00006113*
X00012648Y00006117*
X00012645Y00006121*
X00012642Y00006123*
X00012641Y00006125*
X00012639Y00006126*
Y00006126*
X00012632Y00006131*
X00012624Y00006137*
X00012616Y0000614*
X00012608Y00006144*
X00012599Y00006147*
X0001259Y00006149*
X00012582Y00006151*
X00012574Y00006153*
X00012566Y00006154*
X00012559Y00006155*
X00012553Y00006156*
X00012547Y00006157*
X00012543*
X00012539*
X00012537*
X00012527*
X00012517Y00006156*
X00012508Y00006155*
X000125Y00006154*
X00012496Y00006154*
X00012492Y00006153*
X0001249Y00006153*
X00012487*
X00012485Y00006152*
X00012483Y00006152*
X00012482Y00006151*
X00012429Y00005861*
X00012675*
Y00006157*
G37*
G36*
X00012427Y00006152D02*
D01*
Y00005857*
X00012373*
X00012427Y00006152*
X00012162*
X00012215*
X00012162Y00005861*
X00012213*
X00012246Y00006045*
X00012353Y00005857*
X00012427*
Y00006152*
G37*
G36*
X0001214Y00006157D02*
X00011893D01*
X0001207*
X00012055Y00006157*
X00012041Y00006155*
X00012028Y00006153*
X00012016Y00006149*
X00012004Y00006145*
X00011993Y00006141*
X00011984Y00006137*
X00011975Y00006132*
X00011967Y00006127*
X0001196Y00006122*
X00011954Y00006118*
X0001195Y00006114*
X00011946Y00006111*
X00011943Y00006109*
X00011942Y00006107*
X00011941Y00006106*
X00011933Y00006096*
X00011925Y00006086*
X00011919Y00006075*
X00011913Y00006064*
X00011909Y00006052*
X00011905Y00006041*
X00011902Y00006029*
X00011899Y00006019*
X00011897Y00006009*
X00011896Y00006*
X00011894Y00005991*
X00011894Y00005984*
Y00005981*
X00011894Y00005978*
Y00005975*
X00011893Y00005974*
Y0000597*
X00011894Y00005961*
X00011894Y00005952*
X00011896Y00005944*
X00011898Y00005936*
X000119Y00005929*
X00011903Y00005922*
X00011906Y00005916*
X00011909Y00005911*
X00011912Y00005905*
X00011914Y00005901*
X00011917Y00005897*
X0001192Y00005894*
X00011922Y00005891*
X00011923Y0000589*
X00011924Y00005888*
X00011924Y00005888*
X0001193Y00005883*
X00011937Y00005877*
X00011944Y00005874*
X0001195Y0000587*
X00011957Y00005867*
X00011964Y00005864*
X0001197Y00005862*
X00011977Y0000586*
X00011983Y00005859*
X00011988Y00005858*
X00011993Y00005857*
X00011998Y00005857*
X00012001Y00005857*
X00012003Y00005856*
X00012006*
X00012018Y00005857*
X00012029Y00005858*
X0001204Y00005859*
X0001205Y00005861*
X0001206Y00005864*
X00012069Y00005866*
X00012077Y00005869*
X00012085Y00005872*
X00012092Y00005875*
X00012098Y00005877*
X00012103Y0000588*
X00012108Y00005883*
X00012111Y00005885*
X00012114Y00005886*
X00012115Y00005887*
X00012116*
X0001214Y00006018*
X00012048*
X0001204Y00005975*
X00012081*
X0001207Y00005917*
X00012066Y00005914*
X00012062Y00005912*
X00012053Y00005908*
X00012045Y00005905*
X00012037Y00005903*
X00012034Y00005903*
X0001203Y00005903*
X00012027Y00005902*
X00012025*
X00012023Y00005901*
X0001202*
X00012014Y00005902*
X00012008Y00005903*
X00012003Y00005903*
X00011998Y00005905*
X00011993Y00005906*
X00011988Y00005908*
X00011984Y00005909*
X00011981Y00005911*
X00011977Y00005913*
X00011975Y00005915*
X00011972Y00005917*
X0001197Y00005918*
X00011968Y00005919*
X00011967Y0000592*
X00011967Y00005921*
X00011966Y00005921*
X00011963Y00005925*
X0001196Y00005929*
X00011957Y00005934*
X00011955Y00005938*
X00011953Y00005943*
X00011951Y00005948*
X0001195Y00005957*
X00011948Y00005961*
X00011948Y00005964*
Y00005968*
X00011947Y00005971*
X00011947Y00005974*
Y00005975*
Y00005977*
Y00005977*
X00011947Y00005988*
X00011948Y00005998*
X0001195Y00006007*
X00011951Y00006016*
X00011954Y00006025*
X00011957Y00006033*
X00011959Y0000604*
X00011963Y00006047*
X00011966Y00006053*
X00011968Y00006058*
X00011971Y00006062*
X00011974Y00006066*
X00011975Y00006069*
X00011977Y00006072*
X00011978Y00006073*
X00011979Y00006073*
X00011985Y0000608*
X00011991Y00006086*
X00011998Y00006091*
X00012005Y00006096*
X00012012Y000061*
X00012019Y00006102*
X00012026Y00006105*
X00012033Y00006107*
X00012039Y00006109*
X00012044Y0000611*
X0001205Y00006111*
X00012054Y00006111*
X00012058*
X00012061Y00006112*
X00012063*
X00012068Y00006111*
X00012074*
X00012084Y00006109*
X00012094Y00006106*
X00012099Y00006105*
X00012103Y00006103*
X00012107Y00006101*
X0001211Y000061*
X00012113Y00006098*
X00012116Y00006097*
X00012118Y00006096*
X0001212Y00006095*
X0001212Y00006094*
X00012121Y00006094*
X00012137Y00006137*
X00012132Y00006141*
X00012127Y00006144*
X00012122Y00006146*
X00012117Y00006149*
X00012111Y00006151*
X00012106Y00006152*
X00012095Y00006155*
X0001209Y00006155*
X00012085Y00006156*
X00012081Y00006157*
X00012077*
X00012075Y00006157*
X0001214*
Y00005856*
Y00006157*
G37*
%LNnixie_in12-21*%
%LPD*%
G36*
X00012551Y00006111D02*
X00012557Y00006111D01*
X00012562Y0000611*
X00012567Y00006109*
X00012572Y00006107*
X00012577Y00006105*
X00012581Y00006104*
X00012585Y00006102*
X00012588Y000061*
X00012591Y00006098*
X00012594Y00006097*
X00012596Y00006095*
X00012598Y00006094*
X00012599Y00006093*
X000126Y00006092*
X000126Y00006092*
X00012604Y00006088*
X00012607Y00006084*
X0001261Y0000608*
X00012612Y00006076*
X00012614Y00006072*
X00012616Y00006067*
X00012619Y00006059*
X0001262Y00006055*
X0001262Y00006052*
X00012621Y00006049*
X00012621Y00006046*
X00012622Y00006044*
Y00006042*
Y00006041*
X00012621Y0000603*
X0001262Y0000602*
X00012618Y0000601*
X00012616Y00006001*
X00012614Y00005992*
X00012612Y00005984*
X00012609Y00005977*
X00012606Y0000597*
X00012603Y00005964*
X000126Y00005959*
X00012597Y00005955*
X00012595Y00005951*
X00012593Y00005948*
X00012591Y00005946*
X0001259Y00005944*
X00012584Y00005938*
X00012577Y00005932*
X0001257Y00005927*
X00012563Y00005923*
X00012557Y00005919*
X00012549Y00005916*
X00012542Y00005913*
X00012536Y00005911*
X00012529Y0000591*
X00012524Y00005909*
X00012519Y00005908*
X00012514Y00005907*
X00012511Y00005907*
X00012508*
X000125*
X00012495*
X00012493*
X00012491Y00005907*
X0001249*
X00012525Y00006109*
X00012533Y00006111*
X00012536Y00006111*
X00012539*
X00012541Y00006112*
X00012545*
X00012551Y00006111*
G37*
G36*
X00012675Y00005861D02*
X00012499D01*
X00012514Y00005862*
X00012527Y00005863*
X00012541Y00005866*
X00012553Y00005869*
X00012564Y00005872*
X00012575Y00005876*
X00012584Y00005881*
X00012593Y00005885*
X00012601Y0000589*
X00012608Y00005894*
X00012614Y00005898*
X00012618Y00005901*
X00012622Y00005905*
X00012625Y00005907*
X00012627Y00005909*
X00012627Y00005909*
X00012636Y00005919*
X00012643Y00005929*
X0001265Y00005939*
X00012655Y0000595*
X0001266Y00005961*
X00012664Y00005971*
X00012667Y00005982*
X0001267Y00005992*
X00012672Y00006001*
X00012673Y0000601*
X00012674Y00006018*
X00012675Y00006025*
Y00006028*
X00012675Y00006031*
Y00006033*
X00012675Y00006035*
Y00005861*
G37*
G36*
X00012344Y00005972D02*
X00012239Y00006152D01*
X00012376*
X00012344Y00005972*
G37*
%LNnixie_in12-22*%
%LPC*%
G36*
X00001884Y000052D02*
D01*
Y00004954*
Y000052*
G37*
G36*
X00002152Y00005204D02*
X00001905D01*
X00002013*
X00002003*
X00001994Y00005204*
X00001984Y00005203*
X00001976Y00005202*
X00001972Y00005201*
X00001969Y00005201*
X00001966Y000052*
X00001963*
X00001961Y000052*
X0000196Y000052*
X00001959Y00005199*
X00001905Y00004909*
X00001975*
X0000199Y00004909*
X00002004Y00004911*
X00002017Y00004913*
X00002029Y00004916*
X00002041Y0000492*
X00002051Y00004924*
X00002061Y00004928*
X0000207Y00004933*
X00002077Y00004937*
X00002085Y00004942*
X0000209Y00004946*
X00002095Y00004949*
X00002099Y00004953*
X00002101Y00004955*
X00002103Y00004956*
X00002104Y00004957*
X00002112Y00004966*
X0000212Y00004976*
X00002126Y00004987*
X00002132Y00004998*
X00002136Y00005008*
X0000214Y00005019*
X00002143Y00005029*
X00002146Y00005039*
X00002148Y00005049*
X00002149Y00005058*
X00002151Y00005066*
X00002151Y00005072*
Y00005075*
X00002151Y00005078*
Y0000508*
X00002152Y00005082*
Y00004937*
Y00005204*
G37*
G36*
X00002348Y00005201D02*
D01*
Y00004909*
X00002293*
X00002348Y00005201*
X00002219*
X00002324*
X00002318Y00005195*
X00002312Y00005188*
X00002305Y00005183*
X00002298Y00005177*
X0000229Y00005171*
X00002281Y00005166*
X00002274Y00005161*
X00002265Y00005156*
X00002258Y00005152*
X00002251Y00005148*
X00002244Y00005144*
X00002238Y00005142*
X00002234Y00005139*
X00002232Y00005138*
X0000223Y00005137*
X00002229Y00005137*
X00002228Y00005137*
X00002227Y00005136*
X00002227*
X00002219Y00005084*
X00002277Y00005112*
X0000224Y00004909*
X00002219*
X00002348*
Y00005201*
G37*
G36*
X00001884Y000052D02*
X00001745D01*
X00001692Y00004909*
X00001875*
X00001884Y00004954*
X00001752*
X00001797Y000052*
X00001884*
G37*
%LNnixie_in12-23*%
%LPD*%
G36*
X00002152Y00005086D02*
X00002151Y00005096D01*
X0000215Y00005106*
X00002149Y00005116*
X00002146Y00005124*
X00002143Y00005132*
X0000214Y00005139*
X00002137Y00005146*
X00002134Y00005151*
X0000213Y00005157*
X00002127Y00005161*
X00002124Y00005165*
X00002121Y00005168*
X00002119Y00005171*
X00002117Y00005173*
X00002116Y00005174*
X00002116Y00005174*
X00002108Y00005179*
X00002101Y00005184*
X00002092Y00005188*
X00002084Y00005192*
X00002075Y00005194*
X00002067Y00005197*
X00002059Y00005199*
X00002051Y000052*
X00002043Y00005202*
X00002036Y00005203*
X00002029Y00005203*
X00002024Y00005204*
X00002019*
X00002016*
X00002152*
Y00005086*
G37*
G36*
X00002027Y00005159D02*
X00002033Y00005159D01*
X00002038Y00005157*
X00002044Y00005157*
X00002049Y00005155*
X00002053Y00005153*
X00002057Y00005151*
X00002061Y0000515*
X00002065Y00005148*
X00002068Y00005146*
X0000207Y00005144*
X00002072Y00005143*
X00002074Y00005142*
X00002075Y00005141*
X00002076Y0000514*
X00002076Y0000514*
X0000208Y00005136*
X00002083Y00005132*
X00002087Y00005128*
X00002088Y00005124*
X00002091Y00005119*
X00002092Y00005115*
X00002095Y00005107*
X00002096Y00005103*
X00002097Y000051*
X00002097Y00005096*
X00002098Y00005094*
X00002098Y00005091*
Y0000509*
Y00005088*
Y00005088*
X00002098Y00005077*
X00002096Y00005067*
X00002095Y00005057*
X00002093Y00005048*
X0000209Y0000504*
X00002088Y00005032*
X00002085Y00005025*
X00002082Y00005018*
X00002079Y00005012*
X00002076Y00005007*
X00002074Y00005002*
X00002071Y00004999*
X00002069Y00004996*
X00002068Y00004994*
X00002067Y00004992*
X00002066*
X0000206Y00004985*
X00002053Y00004979*
X00002047Y00004974*
X0000204Y0000497*
X00002033Y00004966*
X00002025Y00004964*
X00002019Y00004961*
X00002012Y00004959*
X00002006Y00004958*
X00002Y00004957*
X00001995Y00004956*
X0000199Y00004955*
X00001987Y00004955*
X00001984*
X00001976*
X00001971*
X00001969*
X00001968Y00004955*
X00001966*
X00002002Y00005157*
X00002009Y00005159*
X00002012Y00005159*
X00002015*
X00002018Y00005159*
X00002021*
X00002027Y00005159*
G37*
%LNnixie_in12-24*%
%LPC*%
G36*
X00011535Y00005156D02*
X00011288D01*
X00011396*
X00011386Y00005155*
X00011376Y00005155*
X00011367Y00005154*
X00011359Y00005153*
X00011355Y00005153*
X00011351Y00005152*
X00011349*
X00011346Y00005151*
X00011344Y00005151*
X00011342Y00005151*
X00011341Y0000515*
X00011341*
X00011288Y0000486*
X00011358*
X00011373Y00004861*
X00011387Y00004862*
X000114Y00004865*
X00011412Y00004868*
X00011424Y00004871*
X00011434Y00004875*
X00011443Y00004879*
X00011452Y00004884*
X0001146Y00004888*
X00011467Y00004893*
X00011472Y00004897*
X00011477Y000049*
X00011481Y00004904*
X00011484Y00004906*
X00011486Y00004907*
X00011486Y00004908*
X00011495Y00004918*
X00011502Y00004927*
X00011509Y00004938*
X00011514Y00004949*
X00011519Y00004959*
X00011523Y0000497*
X00011526Y00004981*
X00011529Y0000499*
X00011531Y00005*
X00011532Y00005009*
X00011533Y00005017*
X00011534Y00005024*
Y00005027*
X00011534Y00005029*
Y00005032*
X00011535Y00005034*
Y00004897*
Y00005037*
X00011534Y00005048*
X00011533Y00005057*
X00011531Y00005067*
X00011529Y00005075*
X00011526Y00005083*
X00011523Y0000509*
X0001152Y00005097*
X00011516Y00005103*
X00011513Y00005108*
X0001151Y00005112*
X00011507Y00005116*
X00011504Y0000512*
X00011501Y00005122*
X000115Y00005124*
X00011498Y00005125*
X00011498Y00005125*
X00011491Y0000513*
X00011483Y00005135*
X00011475Y00005139*
X00011466Y00005143*
X00011458Y00005146*
X0001145Y00005148*
X00011441Y0000515*
X00011433Y00005152*
X00011425Y00005153*
X00011418Y00005154*
X00011412Y00005155*
X00011406Y00005155*
X00011402*
X00011398Y00005156*
X00011535*
G37*
G36*
X00011674Y00005156D02*
X00011545D01*
Y0000486*
X00011734*
X00011743Y00004908*
X00011639*
X00011703Y00004985*
X00011709Y00004992*
X00011714Y00004999*
X00011719Y00005005*
X00011724Y00005011*
X00011727Y00005016*
X00011731Y00005022*
X00011734Y00005026*
X00011737Y0000503*
X0001174Y00005034*
X00011742Y00005037*
X00011743Y0000504*
X00011744Y00005042*
X00011746Y00005044*
X00011746Y00005045*
X00011747Y00005046*
Y00005046*
X00011751Y00005054*
X00011753Y00005062*
X00011755Y00005069*
X00011757Y00005075*
X00011758Y00005081*
X00011758Y00005083*
Y00005085*
X00011759Y00005086*
Y00005088*
X00011758Y00005094*
X00011757Y00005099*
X00011756Y00005105*
X00011755Y00005109*
X00011753Y00005114*
X00011751Y00005118*
X00011749Y00005122*
X00011747Y00005125*
X00011744Y00005128*
X00011742Y00005131*
X0001174Y00005133*
X00011738Y00005135*
X00011737Y00005136*
X00011736Y00005138*
X00011735Y00005138*
X00011735*
X0001173Y00005142*
X00011725Y00005144*
X0001172Y00005147*
X00011714Y00005149*
X00011704Y00005152*
X00011694Y00005154*
X00011689Y00005155*
X00011685Y00005155*
X00011681Y00005156*
X00011677*
X00011674Y00005156*
G37*
G36*
X00011266Y00005151D02*
X00011127D01*
X00011074Y0000486*
X00011258*
X00011266Y00004905*
X00011135*
X0001118Y00005151*
X00011266*
G37*
%LNnixie_in12-25*%
%LPD*%
G36*
X0001141Y00005111D02*
X00011416Y0000511D01*
X00011421Y00005109*
X00011426Y00005108*
X00011431Y00005106*
X00011436Y00005105*
X0001144Y00005103*
X00011444Y00005101*
X00011447Y00005099*
X0001145Y00005097*
X00011453Y00005096*
X00011455Y00005094*
X00011457Y00005093*
X00011458Y00005092*
X00011459Y00005091*
X00011459Y00005091*
X00011463Y00005087*
X00011466Y00005083*
X00011469Y00005079*
X00011471Y00005075*
X00011474Y0000507*
X00011475Y00005066*
X00011478Y00005058*
X00011479Y00005054*
X00011479Y00005051*
X0001148Y00005048*
X0001148Y00005045*
Y00005042*
Y00005041*
Y0000504*
Y00005029*
X00011479Y00005018*
X00011477Y00005009*
X00011475Y00005*
X00011473Y00004991*
X0001147Y00004983*
X00011468Y00004976*
X00011465Y00004969*
X00011462Y00004963*
X00011459Y00004958*
X00011456Y00004953*
X00011454Y0000495*
X00011452Y00004947*
X0001145Y00004945*
X00011449Y00004943*
X00011443Y00004937*
X00011436Y00004931*
X00011429Y00004925*
X00011422Y00004922*
X00011416Y00004918*
X00011408Y00004915*
X00011401Y00004912*
X00011395Y0000491*
X00011388Y00004909*
X00011383Y00004908*
X00011378Y00004907*
X00011373Y00004906*
X0001137*
X00011366Y00004906*
X00011359*
X00011354Y00004906*
X00011352*
X0001135*
X00011349*
X00011384Y00005109*
X00011392Y0000511*
X00011395Y0000511*
X00011398Y00005111*
X000114*
X00011404*
X0001141*
G37*
G36*
X00011659Y00005156D02*
X00011648Y00005154D01*
X00011639Y00005152*
X0001163Y00005148*
X00011622Y00005145*
X00011615Y0000514*
X00011609Y00005136*
X00011603Y00005132*
X00011598Y00005127*
X00011594Y00005122*
X00011591Y00005118*
X00011588Y00005114*
X00011587Y00005111*
X00011585Y00005109*
X00011584Y00005107*
X00011584Y00005107*
X0001162Y00005083*
X00011624Y00005088*
X00011628Y00005092*
X00011632Y00005096*
X00011636Y000051*
X0001164Y00005103*
X00011644Y00005105*
X00011648Y00005107*
X00011651Y00005109*
X00011654Y0000511*
X00011657Y00005111*
X00011659Y00005111*
X00011661Y00005112*
X00011663*
X00011664Y00005112*
X00011665*
X00011672Y00005112*
X00011679Y00005111*
X00011684Y0000511*
X00011688Y00005108*
X00011692Y00005106*
X00011695Y00005104*
X00011698Y00005101*
X000117Y00005099*
X00011702Y00005097*
X00011703Y00005094*
X00011704Y00005092*
X00011705Y0000509*
Y00005088*
X00011705Y00005087*
Y00005086*
Y00005086*
Y00005083*
X00011705Y0000508*
X00011704Y00005077*
X00011703Y00005074*
X00011703Y00005072*
X00011702Y0000507*
X00011702Y00005069*
X00011701Y00005069*
X00011699Y00005062*
X00011697Y00005059*
X00011696Y00005057*
X00011695Y00005055*
X00011694Y00005053*
X00011693Y00005052*
Y00005052*
X00011691Y0000505*
X0001169Y00005048*
X00011688Y00005046*
X00011686Y00005042*
X00011681Y00005036*
X00011675Y00005029*
X0001167Y00005023*
X00011667Y0000502*
X00011665Y00005018*
X00011663Y00005015*
X00011662Y00005014*
X00011661Y00005012*
X00011661Y00005012*
X00011545Y00004877*
Y00005156*
X0001167*
X00011659Y00005156*
G37*
%LNnixie_in12-26*%
%LPC*%
G36*
X00001144Y00003219D02*
X0000114D01*
X00000941*
X00000932Y0000317*
X00001067*
X00001056Y00003154*
X00001046Y0000314*
X00001037Y00003125*
X00001027Y00003112*
X00001019Y00003099*
X00001011Y00003086*
X00001003Y00003074*
X00000995Y00003062*
X00000988Y00003051*
X00000981Y0000304*
X00000974Y0000303*
X00000968Y0000302*
X00000962Y00003011*
X00000957Y00003003*
X00000952Y00002994*
X00000947Y00002987*
X00000943Y00002979*
X00000938Y00002972*
X00000935Y00002966*
X00000932Y0000296*
X00000928Y00002955*
X00000925Y0000295*
X00000923Y00002946*
X00000921Y00002942*
X00000919Y00002938*
X00000917Y00002935*
X00000916Y00002932*
X00000914Y0000293*
X00000914Y00002928*
X00000913Y00002927*
X00000912Y00002927*
Y00002926*
X00000976*
X00000989Y00002951*
X00001002Y00002975*
X00001015Y00002999*
X00001029Y00003022*
X00001044Y00003046*
X00001057Y00003068*
X00001071Y00003089*
X00001077Y00003099*
X00001084Y00003109*
X0000109Y00003118*
X00001096Y00003127*
X00001102Y00003136*
X00001108Y00003144*
X00001113Y00003151*
X00001118Y00003158*
X00001122Y00003165*
X00001127Y00003171*
X00001131Y00003176*
X00001134Y00003181*
X00001137Y00003185*
X0000114Y00003188*
X00001142Y00003191*
X00001143Y00003193*
X00001144Y00003194*
Y00003195*
Y00003219*
G37*
G36*
X00001357Y00003223D02*
X0000114D01*
X0000127*
X00001264Y00003222*
X00001253Y0000322*
X00001243Y00003217*
X00001233Y00003213*
X00001224Y00003209*
X00001216Y00003203*
X00001209Y00003198*
X00001201Y00003193*
X00001195Y00003187*
X0000119Y00003181*
X00001186Y00003176*
X00001182Y00003172*
X00001179Y00003168*
X00001177Y00003165*
X00001175Y00003163*
Y00003163*
Y00003162*
X00001169Y00003151*
X00001164Y00003139*
X00001159Y00003127*
X00001155Y00003114*
X00001151Y00003101*
X00001148Y00003088*
X00001146Y00003076*
X00001144Y00003064*
X00001142Y00003054*
X00001142Y00003044*
X0000114Y00003035*
X0000114Y00003031*
Y00003027*
Y00003024*
Y0000302*
X0000114Y00003018*
Y00003016*
Y00003014*
Y00003012*
Y00003012*
Y00003012*
X0000114Y00003004*
X0000114Y00002997*
X00001142Y0000299*
X00001143Y00002984*
X00001144Y00002979*
X00001144Y00002978*
X00001146Y00002973*
X00001148Y00002968*
X0000115Y00002963*
X00001152Y00002959*
X00001154Y00002956*
X00001156Y00002953*
X00001158Y0000295*
X00001159Y00002949*
X0000116Y00002947*
X00001161Y00002946*
X00001161Y00002946*
X00001165Y00002942*
X0000117Y00002938*
X00001174Y00002935*
X00001179Y00002932*
X00001184Y0000293*
X00001189Y00002928*
X00001194Y00002927*
X00001199Y00002925*
X00001203Y00002924*
X00001207Y00002924*
X00001211Y00002923*
X00001215Y00002923*
X00001217*
X00001219Y00002922*
X00001221*
X00001227Y00002923*
X00001233Y00002923*
X00001244Y00002925*
X00001255Y00002928*
X00001265Y00002931*
X00001274Y00002936*
X00001282Y0000294*
X0000129Y00002946*
X00001296Y00002951*
X00001302Y00002957*
X00001307Y00002962*
X00001312Y00002966*
X00001315Y00002971*
X00001318Y00002975*
X0000132Y00002977*
X00001322Y00002979*
X00001322Y0000298*
X00001328Y00002991*
X00001333Y00003003*
X00001338Y00003016*
X00001342Y00003028*
X00001346Y00003042*
X00001348Y00003055*
X0000135Y00003067*
X00001352Y00003079*
X00001354Y00003091*
X00001355Y00003102*
X00001356Y00003111*
X00001356Y00003116*
Y0000312*
Y00003123*
Y00003127*
X00001357Y00003129*
Y0000297*
Y00003223*
G37*
G36*
X00000838Y00003219D02*
D01*
Y00002926*
X00000784*
X00000838Y00003219*
X0000071*
X00000814*
X00000809Y00003212*
X00000803Y00003206*
X00000796Y000032*
X00000788Y00003194*
X00000781Y00003189*
X00000772Y00003183*
X00000764Y00003178*
X00000756Y00003174*
X00000749Y0000317*
X00000741Y00003166*
X00000735Y00003162*
X00000729Y00003159*
X00000724Y00003157*
X00000722Y00003156*
X00000721Y00003155*
X0000072Y00003154*
X00000718Y00003154*
X00000718*
X00000718*
X0000071Y00003101*
X00000768Y0000313*
X0000073Y00002926*
X0000071*
X00000838*
Y00003219*
G37*
%LNnixie_in12-27*%
%LPD*%
G36*
X00001357Y00003136D02*
X00001356Y00003144D01*
X00001356Y00003151*
X00001355Y00003158*
X00001353Y00003164*
X00001351Y0000317*
X00001349Y00003176*
X00001347Y00003181*
X00001344Y00003186*
X00001341Y0000319*
X00001338Y00003194*
X00001335Y00003198*
X00001331Y00003201*
X00001324Y00003207*
X00001317Y00003212*
X00001309Y00003215*
X00001302Y00003218*
X00001295Y0000322*
X00001289Y00003221*
X00001284Y00003222*
X00001282Y00003222*
X0000128Y00003223*
X00001357*
Y00003136*
G37*
G36*
X00001276Y00003177D02*
X00001281Y00003175D01*
X00001285Y00003173*
X00001289Y0000317*
X00001292Y00003166*
X00001295Y00003163*
X00001297Y00003159*
X00001299Y00003155*
X000013Y0000315*
X00001301Y00003146*
X00001302Y00003143*
X00001303Y00003139*
X00001303Y00003137*
Y00003135*
Y00003133*
Y00003133*
Y0000312*
X00001302Y00003107*
X00001301Y00003096*
X000013Y00003085*
X00001298Y00003075*
X00001297Y00003065*
X00001295Y00003056*
X00001293Y00003048*
X00001291Y00003041*
X00001289Y00003034*
X00001288Y00003029*
X00001286Y00003024*
X00001285Y0000302*
X00001283Y00003018*
X00001283Y00003016*
X00001283Y00003016*
X00001279Y00003007*
X00001274Y00003*
X0000127Y00002994*
X00001265Y00002988*
X0000126Y00002983*
X00001255Y00002979*
X0000125Y00002977*
X00001246Y00002974*
X00001241Y00002972*
X00001237Y00002971*
X00001233Y00002969*
X0000123Y00002969*
X00001227Y00002968*
X00001225Y00002968*
X00001224*
X00001218Y00002969*
X00001214Y0000297*
X00001209Y00002973*
X00001206Y00002976*
X00001203Y0000298*
X00001201Y00002984*
X00001199Y00002989*
X00001197Y00002994*
X00001196Y00002998*
X00001195Y00003003*
X00001194Y00003007*
X00001194Y00003011*
X00001193Y00003014*
Y00003016*
Y00003018*
Y00003019*
Y00003029*
X00001194Y0000304*
X00001195Y0000305*
X00001196Y0000306*
X00001198Y00003069*
X000012Y00003077*
X00001201Y00003086*
X00001203Y00003094*
X00001205Y00003101*
X00001207Y00003107*
X00001209Y00003113*
X00001211Y00003117*
X00001212Y00003121*
X00001213Y00003124*
X00001213Y00003125*
X00001214Y00003126*
X00001218Y00003135*
X00001222Y00003143*
X00001227Y0000315*
X00001231Y00003156*
X00001236Y00003161*
X0000124Y00003164*
X00001245Y00003168*
X0000125Y00003171*
X00001254Y00003173*
X00001258Y00003174*
X00001261Y00003175*
X00001264Y00003176*
X00001266Y00003177*
X00001268Y00003177*
X0000127*
X00001276Y00003177*
G37*
%LNnixie_in12-28*%
%LPC*%
G36*
X00012598Y00003146D02*
Y00003059D01*
X00012597Y00003067*
X00012596Y00003074*
X00012596Y00003081*
X00012594Y00003087*
X00012592Y00003093*
X0001259Y00003099*
X00012588Y00003104*
X00012585Y00003109*
X00012582Y00003113*
X00012579Y00003117*
X00012575Y00003121*
X00012572Y00003124*
X00012564Y0000313*
X00012557Y00003135*
X0001255Y00003138*
X00012543Y00003141*
X00012536Y00003143*
X00012529Y00003144*
X00012525Y00003145*
X00012522Y00003145*
X00012521Y00003146*
X00012598*
X0001238*
X00012511*
X00012505Y00003145*
X00012494Y00003143*
X00012484Y0000314*
X00012474Y00003136*
X00012465Y00003132*
X00012457Y00003126*
X00012449Y00003121*
X00012442Y00003116*
X00012436Y0000311*
X00012431Y00003105*
X00012427Y00003099*
X00012423Y00003095*
X0001242Y00003091*
X00012418Y00003088*
X00012416Y00003086*
X00012416Y00003086*
Y00003085*
X0001241Y00003074*
X00012404Y00003062*
X000124Y0000305*
X00012396Y00003037*
X00012392Y00003024*
X00012389Y00003011*
X00012387Y00002999*
X00012385Y00002987*
X00012383Y00002977*
X00012382Y00002966*
X00012381Y00002957*
X00012381Y00002953*
Y0000295*
X00012381Y00002946*
Y00002944*
X0001238Y00002941*
Y00002938*
Y00002937*
Y00002936*
Y00002935*
Y00002935*
X00012381Y00002927*
X00012381Y0000292*
X00012382Y00002913*
X00012384Y00002907*
X00012385Y00002902*
X00012385Y00002901*
X00012387Y00002896*
X00012389Y0000289*
X00012391Y00002886*
X00012393Y00002882*
X00012395Y00002879*
X00012397Y00002876*
X00012398Y00002873*
X000124Y00002872*
X00012401Y0000287*
X00012401Y00002869*
Y00002869*
X00012406Y00002865*
X00012411Y00002861*
X00012415Y00002858*
X0001242Y00002855*
X00012425Y00002853*
X0001243Y00002851*
X00012435Y0000285*
X0001244Y00002848*
X00012444Y00002848*
X00012448Y00002847*
X00012452Y00002846*
X00012455Y00002846*
X00012458*
X0001246Y00002845*
X0001238*
X00012598*
Y00003146*
G37*
G36*
X00012385Y00003142D02*
X0001238D01*
X00012181*
X00012173Y00003092*
X00012307*
X00012297Y00003077*
X00012287Y00003062*
X00012277Y00003048*
X00012268Y00003035*
X0001226Y00003022*
X00012251Y00003009*
X00012243Y00002997*
X00012236Y00002985*
X00012228Y00002974*
X00012222Y00002963*
X00012215Y00002953*
X00012209Y00002944*
X00012203Y00002934*
X00012198Y00002925*
X00012193Y00002917*
X00012188Y00002909*
X00012183Y00002902*
X00012179Y00002895*
X00012175Y00002889*
X00012172Y00002883*
X00012169Y00002877*
X00012166Y00002873*
X00012164Y00002868*
X00012162Y00002864*
X0001216Y00002861*
X00012158Y00002858*
X00012156Y00002855*
X00012155Y00002853*
X00012154Y00002851*
X00012154Y0000285*
X00012153Y0000285*
X00012217*
X00012229Y00002874*
X00012242Y00002898*
X00012256Y00002922*
X0001227Y00002946*
X00012284Y00002968*
X00012298Y00002991*
X00012312Y00003012*
X00012318Y00003022*
X00012325Y00003032*
X00012331Y00003041*
X00012337Y0000305*
X00012343Y00003059*
X00012348Y00003067*
X00012354Y00003074*
X00012359Y00003081*
X00012363Y00003088*
X00012368Y00003094*
X00012372Y00003099*
X00012375Y00003104*
X00012378Y00003108*
X0001238Y00003111*
X00012382Y00003114*
X00012384Y00003116*
X00012385Y00003117*
X00012385Y00003118*
Y00003142*
G37*
G36*
X00012079D02*
D01*
Y0000285*
X00012025*
X00012079Y00003142*
X00011951*
X00012055*
X0001205Y00003135*
X00012044Y00003129*
X00012037Y00003123*
X00012029Y00003117*
X00012021Y00003112*
X00012013Y00003107*
X00012005Y00003101*
X00011997Y00003097*
X00011989Y00003092*
X00011982Y00003088*
X00011975Y00003085*
X0001197Y00003082*
X00011965Y0000308*
X00011963Y00003079*
X00011961Y00003078*
X0001196Y00003077*
X00011959Y00003077*
Y00003077*
X00011959*
X00011951Y00003024*
X00012009Y00003053*
X00011971Y0000285*
X00011951*
X00012079*
Y00003142*
G37*
%LNnixie_in12-29*%
%LPD*%
G36*
X00012516Y000031D02*
X00012522Y00003098D01*
X00012526Y00003096*
X0001253Y00003093*
X00012533Y00003089*
X00012536Y00003086*
X00012538Y00003082*
X0001254Y00003077*
X00012541Y00003074*
X00012542Y0000307*
X00012543Y00003066*
X00012543Y00003062*
X00012544Y0000306*
X00012544Y00003057*
Y00003056*
Y00003055*
X00012544Y00003042*
X00012543Y0000303*
X00012542Y00003019*
X00012541Y00003008*
X00012539Y00002998*
X00012537Y00002988*
X00012535Y00002979*
X00012534Y00002971*
X00012532Y00002964*
X0001253Y00002957*
X00012528Y00002951*
X00012527Y00002947*
X00012525Y00002944*
X00012524Y00002941*
X00012524Y00002939*
X00012523Y00002938*
X00012519Y0000293*
X00012515Y00002923*
X0001251Y00002916*
X00012505Y00002911*
X00012501Y00002906*
X00012496Y00002902*
X00012491Y000029*
X00012486Y00002897*
X00012482Y00002895*
X00012478Y00002894*
X00012474Y00002892*
X00012471Y00002892*
X00012468Y00002891*
X00012466Y00002891*
X00012464*
X00012459Y00002892*
X00012454Y00002893*
X0001245Y00002896*
X00012447Y00002899*
X00012444Y00002903*
X00012441Y00002907*
X00012439Y00002912*
X00012438Y00002916*
X00012437Y00002921*
X00012435Y00002926*
X00012435Y0000293*
X00012435Y00002934*
X00012434Y00002937*
X00012434Y0000294*
Y00002941*
Y00002942*
X00012434Y00002952*
X00012435Y00002962*
X00012436Y00002973*
X00012437Y00002983*
X00012438Y00002992*
X0001244Y00003001*
X00012442Y00003009*
X00012444Y00003016*
X00012446Y00003024*
X00012448Y0000303*
X0001245Y00003036*
X00012451Y0000304*
X00012452Y00003044*
X00012453Y00003047*
X00012454Y00003048*
Y00003049*
X00012458Y00003058*
X00012463Y00003066*
X00012468Y00003073*
X00012472Y00003079*
X00012477Y00003083*
X00012481Y00003087*
X00012486Y00003091*
X0001249Y00003094*
X00012494Y00003096*
X00012498Y00003097*
X00012501Y00003098*
X00012505Y00003099*
X00012507Y000031*
X00012509Y000031*
X00012511*
X00012516Y000031*
G37*
G36*
X00012598Y00002845D02*
X00012462D01*
X00012468Y00002846*
X00012474Y00002846*
X00012485Y00002848*
X00012496Y00002851*
X00012505Y00002854*
X00012514Y00002859*
X00012523Y00002863*
X00012531Y00002869*
X00012537Y00002874*
X00012543Y00002879*
X00012548Y00002885*
X00012553Y00002889*
X00012556Y00002894*
X00012559Y00002898*
X00012561Y000029*
X00012562Y00002902*
Y00002903*
X00012569Y00002914*
X00012574Y00002926*
X00012579Y00002938*
X00012583Y00002951*
X00012586Y00002964*
X00012589Y00002977*
X00012591Y0000299*
X00012593Y00003003*
X00012594Y00003014*
X00012596Y00003025*
X00012596Y00003034*
X00012597Y00003038*
Y00003042*
X00012597Y00003046*
Y0000305*
X00012598Y00003052*
Y00002845*
G37*
%LNnixie_in12-30*%
%LPC*%
G36*
X00013859Y00001421D02*
X00013801D01*
X00013699Y00001228*
X00013664Y00001421*
X00013609*
X00013667Y00001126*
X00013609*
Y00001421*
Y00001126*
X00013859*
X00013695*
X00013859Y00001421*
G37*
G36*
X0001304Y00001422D02*
X00012911D01*
X00013016*
X00013011Y00001416*
X00013004Y0000141*
X00012998Y00001404*
X0001299Y00001398*
X00012982Y00001392*
X00012974Y00001387*
X00012966Y00001382*
X00012958Y00001377*
X0001295Y00001373*
X00012943Y00001369*
X00012937Y00001365*
X00012931Y00001362*
X00012926Y00001361*
X00012924Y00001359*
X00012922Y00001359*
X00012921Y00001358*
X0001292Y00001357*
X0001292Y00001357*
X00012919*
X00012911Y00001305*
X0001297Y00001333*
X00012932Y0000113*
X00012911*
X0001304*
X00012986*
X0001304Y00001422*
G37*
G36*
X00013481Y00001426D02*
X00013472D01*
X00013466Y00001425*
X00013455Y00001424*
X00013444Y0000142*
X00013435Y00001416*
X00013426Y00001412*
X00013418Y00001407*
X0001341Y00001402*
X00013403Y00001396*
X00013397Y0000139*
X00013392Y00001385*
X00013387Y0000138*
X00013383Y00001375*
X00013381Y00001372*
X00013379Y00001368*
X00013377Y00001366*
Y00001366*
X00013371Y00001355*
X00013365Y00001342*
X0001336Y0000133*
X00013356Y00001317*
X00013353Y00001304*
X0001335Y00001292*
X00013348Y0000128*
X00013346Y00001268*
X00013344Y00001257*
X00013343Y00001247*
X00013342Y00001238*
X00013342Y00001234*
Y0000123*
Y00001227*
Y00001224*
X00013341Y00001221*
Y00001219*
Y00001217*
Y00001216*
Y00001215*
Y00001215*
X00013342Y00001207*
X00013342Y000012*
X00013343Y00001194*
X00013344Y00001187*
X00013346Y00001183*
X00013346Y00001181*
X00013348Y00001176*
X0001335Y00001171*
X00013352Y00001166*
X00013354Y00001162*
X00013355Y00001159*
X00013357Y00001156*
X00013359Y00001154*
X00013361Y00001152*
X00013361Y0000115*
X00013362Y0000115*
X00013362Y0000115*
X00013367Y00001145*
X00013371Y00001142*
X00013376Y00001138*
X00013381Y00001136*
X00013386Y00001133*
X00013391Y00001132*
X00013396Y0000113*
X000134Y00001129*
X00013405Y00001128*
X00013409Y00001127*
X00013413Y00001127*
X00013416Y00001126*
X00013419*
X00013421Y00001126*
X00013341*
Y0000113*
X00013178*
X0001319Y00001154*
X00013203Y00001178*
X00013217Y00001202*
X00013231Y00001226*
X00013245Y00001249*
X00013259Y00001271*
X00013273Y00001292*
X00013279Y00001302*
X00013286Y00001312*
X00013292Y00001322*
X00013298Y00001331*
X00013304Y00001339*
X00013309Y00001347*
X00013314Y00001355*
X0001332Y00001362*
X00013324Y00001368*
X00013328Y00001374*
X00013332Y0000138*
X00013336Y00001384*
X00013338Y00001388*
X00013341Y00001392*
X00013343Y00001394*
X00013344Y00001396*
X00013346Y00001398*
Y00001422*
X00013341*
Y00001426*
Y00001422*
X00013142*
X00013133Y00001373*
X00013268*
X00013258Y00001358*
X00013248Y00001343*
X00013238Y00001329*
X00013229Y00001315*
X0001322Y00001302*
X00013212Y0000129*
X00013204Y00001277*
X00013196Y00001266*
X00013189Y00001255*
X00013182Y00001244*
X00013176Y00001234*
X0001317Y00001224*
X00013164Y00001215*
X00013159Y00001206*
X00013153Y00001198*
X00013149Y0000119*
X00013144Y00001183*
X0001314Y00001176*
X00013137Y0000117*
X00013133Y00001164*
X0001313Y00001158*
X00013127Y00001153*
X00013125Y00001149*
X00013122Y00001145*
X0001312Y00001141*
X00013119Y00001138*
X00013117Y00001136*
X00013116Y00001133*
X00013115Y00001132*
X00013115Y00001131*
X00013114Y0000113*
Y0000113*
X00013341*
Y00001126*
X00013558*
X00013422*
X00013429Y00001126*
X00013435Y00001127*
X00013446Y00001129*
X00013457Y00001131*
X00013466Y00001135*
X00013475Y00001139*
X00013484Y00001144*
X00013491Y00001149*
X00013498Y00001155*
X00013504Y0000116*
X00013509Y00001165*
X00013513Y0000117*
X00013517Y00001174*
X0001352Y00001178*
X00013522Y00001181*
X00013523Y00001183*
X00013524Y00001183*
X0001353Y00001194*
X00013535Y00001207*
X0001354Y00001219*
X00013544Y00001232*
X00013547Y00001245*
X0001355Y00001258*
X00013552Y0000127*
X00013554Y00001283*
X00013555Y00001294*
X00013556Y00001305*
X00013557Y00001315*
X00013558Y00001319*
Y00001323*
Y00001327*
Y0000133*
X00013558Y00001333*
Y00001339*
X00013558Y00001347*
X00013557Y00001355*
X00013556Y00001362*
X00013555Y00001368*
X00013553Y00001374*
X00013551Y00001379*
X00013548Y00001385*
X00013546Y0000139*
X00013543Y00001394*
X0001354Y00001398*
X00013536Y00001401*
X00013533Y00001405*
X00013525Y00001411*
X00013518Y00001415*
X00013511Y00001419*
X00013503Y00001422*
X00013497Y00001424*
X0001349Y00001425*
X00013485Y00001425*
X00013483*
X00013481Y00001426*
G37*
%LNnixie_in12-31*%
%LPD*%
G36*
X00013477Y0000138D02*
X00013483Y00001378D01*
X00013487Y00001376*
X00013491Y00001374*
X00013494Y0000137*
X00013497Y00001366*
X00013499Y00001362*
X00013501Y00001358*
X00013502Y00001354*
X00013503Y0000135*
X00013504Y00001346*
X00013504Y00001343*
X00013505Y0000134*
Y00001338*
Y00001337*
Y00001336*
Y00001323*
X00013504Y00001311*
X00013503Y000013*
X00013501Y00001288*
X000135Y00001278*
X00013498Y00001268*
X00013496Y0000126*
X00013495Y00001251*
X00013493Y00001244*
X00013491Y00001238*
X00013489Y00001232*
X00013487Y00001227*
X00013486Y00001224*
X00013485Y00001221*
X00013485Y0000122*
X00013484Y00001219*
X0001348Y00001211*
X00013476Y00001203*
X00013471Y00001197*
X00013466Y00001191*
X00013461Y00001187*
X00013457Y00001183*
X00013451Y0000118*
X00013447Y00001177*
X00013443Y00001175*
X00013438Y00001174*
X00013435Y00001173*
X00013432Y00001172*
X00013429*
X00013427Y00001172*
X00013425*
X0001342Y00001172*
X00013415Y00001174*
X00013411Y00001176*
X00013408Y00001179*
X00013405Y00001183*
X00013402Y00001187*
X000134Y00001192*
X00013399Y00001197*
X00013397Y00001201*
X00013396Y00001206*
X00013396Y00001211*
X00013395Y00001214*
X00013395Y00001218*
X00013394Y0000122*
Y00001222*
Y00001222*
X00013395Y00001233*
X00013396Y00001243*
X00013396Y00001253*
X00013398Y00001263*
X000134Y00001272*
X00013401Y00001281*
X00013403Y00001289*
X00013405Y00001297*
X00013407Y00001304*
X00013409Y00001311*
X0001341Y00001316*
X00013412Y00001321*
X00013413Y00001325*
X00013414Y00001327*
X00013415Y00001329*
X00013415Y00001329*
X00013419Y00001338*
X00013424Y00001346*
X00013428Y00001353*
X00013433Y00001359*
X00013438Y00001364*
X00013442Y00001368*
X00013447Y00001371*
X00013451Y00001374*
X00013455Y00001376*
X00013459Y00001378*
X00013462Y00001379*
X00013465Y0000138*
X00013468Y0000138*
X0001347*
X00013471*
X00013477*
G37*
%LNnixie_in12-32*%
%LPC*%
G36*
X-00000144Y00001368D02*
X-00000209D01*
X-00000214*
X-00000229Y00001367*
X-00000243Y00001365*
X-00000256Y00001363*
X-00000268Y0000136*
X-0000028Y00001356*
X-00000291Y00001351*
X-000003Y00001347*
X-00000309Y00001342*
X-00000317Y00001337*
X-00000324Y00001333*
X-0000033Y00001329*
X-00000335Y00001325*
X-00000338Y00001321*
X-00000341Y00001319*
X-00000342Y00001317*
X-00000343Y00001317*
X-00000351Y00001307*
X-00000359Y00001296*
X-00000365Y00001285*
X-00000371Y00001274*
X-00000375Y00001262*
X-00000379Y00001251*
X-00000382Y0000124*
X-00000385Y00001229*
X-00000387Y00001219*
X-00000388Y0000121*
X-0000039Y00001201*
X-0000039Y00001194*
Y00001191*
X-0000039Y00001188*
Y00001186*
X-00000391Y00001184*
Y00001067*
Y0000118*
X-0000039Y00001171*
X-0000039Y00001162*
X-00000388Y00001154*
X-00000386Y00001146*
X-00000384Y00001139*
X-00000381Y00001133*
X-00000378Y00001127*
X-00000375Y00001121*
X-00000372Y00001116*
X-0000037Y00001111*
X-00000367Y00001107*
X-00000364Y00001105*
X-00000362Y00001102*
X-00000361Y000011*
X-0000036Y00001099*
X-0000036Y00001099*
X-00000354Y00001093*
X-00000347Y00001088*
X-0000034Y00001084*
X-00000334Y0000108*
X-00000327Y00001077*
X-0000032Y00001075*
X-00000314Y00001072*
X-00000307Y00001071*
X-00000301Y0000107*
X-00000296Y00001068*
X-00000291Y00001068*
X-00000287*
X-00000283Y00001067*
X-00000281Y00001067*
X-00000391*
X-00000144*
X-00000278*
X-00000266Y00001067*
X-00000255Y00001068*
X-00000244Y0000107*
X-00000234Y00001072*
X-00000224Y00001074*
X-00000215Y00001077*
X-00000207Y00001079*
X-00000199Y00001083*
X-00000192Y00001085*
X-00000186Y00001088*
X-00000181Y00001091*
X-00000176Y00001093*
X-00000173Y00001095*
X-0000017Y00001097*
X-00000169Y00001098*
X-00000168Y00001098*
X-00000144Y00001229*
X-00000236*
X-00000244Y00001185*
X-00000203*
X-00000214Y00001127*
X-00000218Y00001125*
X-00000222Y00001123*
X-00000231Y00001119*
X-00000239Y00001116*
X-00000247Y00001114*
X-0000025Y00001113*
X-00000254Y00001113*
X-00000257Y00001112*
X-00000259*
X-00000261Y00001112*
X-00000264*
X-0000027Y00001112*
X-00000276Y00001113*
X-00000281Y00001114*
X-00000287Y00001115*
X-00000291Y00001117*
X-00000296Y00001118*
X-000003Y0000112*
X-00000303Y00001122*
X-00000307Y00001124*
X-00000309Y00001125*
X-00000312Y00001127*
X-00000314Y00001129*
X-00000316Y0000113*
X-00000317Y00001131*
X-00000317Y00001131*
X-00000318Y00001132*
X-00000321Y00001136*
X-00000324Y0000114*
X-00000327Y00001144*
X-00000329Y00001149*
X-00000331Y00001153*
X-00000333Y00001158*
X-00000335Y00001167*
X-00000336Y00001172*
X-00000337Y00001175*
Y00001179*
X-00000337Y00001182*
X-00000337Y00001184*
Y00001186*
Y00001187*
Y00001188*
X-00000337Y00001198*
X-00000336Y00001208*
X-00000335Y00001218*
X-00000333Y00001227*
X-0000033Y00001235*
X-00000327Y00001243*
X-00000325Y00001251*
X-00000321Y00001257*
X-00000318Y00001263*
X-00000316Y00001268*
X-00000313Y00001273*
X-00000311Y00001277*
X-00000309Y0000128*
X-00000307Y00001282*
X-00000306Y00001283*
X-00000305Y00001284*
X-00000299Y0000129*
X-00000293Y00001296*
X-00000286Y00001301*
X-00000279Y00001306*
X-00000272Y0000131*
X-00000265Y00001313*
X-00000258Y00001315*
X-00000251Y00001317*
X-00000245Y00001319*
X-0000024Y0000132*
X-00000234Y00001321*
X-0000023Y00001322*
X-00000226Y00001322*
X-00000224Y00001322*
X-00000221*
X-00000216Y00001322*
X-00000211Y00001322*
X-000002Y0000132*
X-0000019Y00001317*
X-00000185Y00001315*
X-00000181Y00001313*
X-00000177Y00001312*
X-00000174Y0000131*
X-00000171Y00001309*
X-00000168Y00001307*
X-00000166Y00001306*
X-00000164Y00001305*
X-00000164Y00001305*
X-00000163Y00001305*
X-00000148Y00001348*
X-00000152Y00001351*
X-00000157Y00001354*
X-00000162Y00001357*
X-00000167Y00001359*
X-00000173Y00001361*
X-00000178Y00001362*
X-00000189Y00001365*
X-00000194Y00001366*
X-00000199Y00001366*
X-00000203Y00001367*
X-00000207Y00001367*
X-00000209Y00001368*
X-00000144*
G37*
G36*
X00000254Y00001367D02*
X00000251D01*
X00000242Y00001367*
X00000232Y00001366*
X00000223Y00001366*
X00000215Y00001364*
X00000211*
X00000207Y00001364*
X00000205Y00001363*
X00000202Y00001363*
X000002Y00001362*
X00000198*
X00000197Y00001362*
X00000144Y00001072*
X0000039*
Y00001249*
X0000039Y00001259*
X00000389Y00001269*
X00000387Y00001278*
X00000385Y00001287*
X00000382Y00001295*
X00000379Y00001302*
X00000376Y00001309*
X00000372Y00001314*
X00000369Y0000132*
X00000366Y00001324*
X00000362Y00001328*
X0000036Y00001331*
X00000357Y00001333*
X00000356Y00001335*
X00000354Y00001337*
Y00001337*
X00000347Y00001342*
X00000339Y00001347*
X00000331Y00001351*
X00000323Y00001355*
X00000314Y00001357*
X00000305Y0000136*
X00000297Y00001362*
X00000289Y00001363*
X00000281Y00001364*
X00000274Y00001366*
X00000268Y00001366*
X00000262Y00001367*
X00000258*
X00000254Y00001367*
G37*
G36*
X00000142Y00001362D02*
X-00000122D01*
Y00001068*
Y00001362*
X-00000069*
X-00000122Y00001072*
X-00000071*
X-00000038Y00001255*
X00000068Y00001068*
X00000142*
X00000088*
X00000142Y00001362*
G37*
%LNnixie_in12-33*%
%LPD*%
G36*
X00000266Y00001322D02*
X00000272Y00001321D01*
X00000277Y0000132*
X00000282Y00001319*
X00000287Y00001318*
X00000292Y00001316*
X00000296Y00001314*
X000003Y00001312*
X00000303Y00001311*
X00000306Y00001309*
X00000309Y00001307*
X00000311Y00001305*
X00000312Y00001305*
X00000314Y00001303*
X00000314Y00001303*
X00000315Y00001303*
X00000319Y00001299*
X00000322Y00001295*
X00000325Y00001291*
X00000327Y00001287*
X00000329Y00001282*
X00000331Y00001278*
X00000334Y0000127*
X00000335Y00001266*
X00000335Y00001262*
X00000336Y00001259*
X00000336Y00001257*
X00000337Y00001254*
Y00001253*
Y00001251*
Y00001251*
X00000336Y0000124*
X00000335Y0000123*
X00000333Y0000122*
X00000331Y00001211*
X00000329Y00001203*
X00000327Y00001195*
X00000324Y00001188*
X00000321Y00001181*
X00000318Y00001175*
X00000315Y0000117*
X00000312Y00001165*
X0000031Y00001162*
X00000308Y00001159*
X00000306Y00001156*
X00000305Y00001155*
Y00001155*
X00000299Y00001148*
X00000292Y00001142*
X00000285Y00001137*
X00000278Y00001133*
X00000272Y00001129*
X00000264Y00001127*
X00000257Y00001124*
X00000251Y00001122*
X00000244Y00001121*
X00000238Y00001119*
X00000234Y00001119*
X00000229Y00001118*
X00000225Y00001118*
X00000223Y00001117*
X00000215*
X0000021Y00001118*
X00000208*
X00000206Y00001118*
X00000205*
X0000024Y0000132*
X00000248Y00001321*
X00000251Y00001322*
X00000254Y00001322*
X00000256Y00001322*
X0000026*
X00000266Y00001322*
G37*
G36*
X0000039Y00001072D02*
X00000214D01*
X00000229Y00001072*
X00000242Y00001074*
X00000256Y00001076*
X00000268Y00001079*
X00000279Y00001083*
X0000029Y00001087*
X00000299Y00001091*
X00000308Y00001096*
X00000316Y000011*
X00000323Y00001105*
X00000329Y00001109*
X00000333Y00001112*
X00000337Y00001115*
X0000034Y00001118*
X00000342Y00001119*
X00000342Y0000112*
X00000351Y00001129*
X00000358Y00001139*
X00000364Y0000115*
X0000037Y0000116*
X00000375Y00001171*
X00000379Y00001182*
X00000382Y00001192*
X00000385Y00001202*
X00000387Y00001212*
X00000388Y00001221*
X00000389Y00001229*
X0000039Y00001235*
Y00001238*
X0000039Y00001241*
Y00001243*
X0000039Y00001245*
Y00001072*
G37*
G36*
X00000059Y00001182D02*
X-00000045Y00001362D01*
X00000091*
X00000059Y00001182*
G37*
%LNnixie_in12-34*%
%LPC*%
G36*
X00001295Y00010155D02*
X00001107D01*
X00001054Y00009864*
X00001239*
X00001248Y00009909*
X00001116*
X00001131Y0001*
X00001228*
X00001236Y00010043*
X0000114*
X00001152Y0001011*
X00001286*
X00001295Y00010155*
G37*
G36*
X00001041Y0001016D02*
X00000779D01*
Y00009859*
Y00009972*
X0000078Y00009963*
X00000781Y00009954*
X00000782Y00009946*
X00000784Y00009938*
X00000786Y0000993*
X00000788Y00009924*
X0000079Y00009918*
X00000793Y00009912*
X00000795Y00009907*
X00000798Y00009902*
X000008Y00009899*
X00000802Y00009896*
X00000804Y00009893*
X00000805Y00009891*
X00000806Y0000989*
X00000806Y0000989*
X00000811Y00009885*
X00000817Y0000988*
X00000823Y00009875*
X00000829Y00009872*
X00000835Y00009869*
X00000841Y00009867*
X00000847Y00009865*
X00000852Y00009863*
X00000858Y00009862*
X00000863Y00009861*
X00000868Y0000986*
X00000872Y0000986*
X00000874Y00009859*
X00000877Y00009859*
X00001041*
Y00010052*
Y00010062*
X0000104Y0001007*
X00001038Y00010079*
X00001037Y00010087*
X00001035Y00010094*
X00001032Y00010101*
X00001029Y00010107*
X00001027Y00010112*
X00001024Y00010116*
X00001022Y0001012*
X00001019Y00010124*
X00001017Y00010127*
X00001015Y00010129*
X00001014Y00010131*
X00001013Y00010132*
X00001013Y00010132*
X00001007Y00010137*
X00001001Y00010141*
X00000995Y00010145*
X00000988Y00010148*
X00000982Y00010151*
X00000975Y00010153*
X00000968Y00010155*
X00000962Y00010156*
X00000956Y00010158*
X0000095Y00010159*
X00000945Y00010159*
X0000094Y0001016*
X00000937*
X00000935*
X00001041*
G37*
%LNnixie_in12-35*%
%LPD*%
G36*
X0000092Y00010159D02*
X00000908Y00010158D01*
X00000897Y00010155*
X00000886Y00010151*
X00000876Y00010147*
X00000868Y00010142*
X00000859Y00010138*
X00000851Y00010132*
X00000845Y00010127*
X00000839Y00010122*
X00000834Y00010118*
X00000829Y00010113*
X00000826Y0001011*
X00000824Y00010107*
X00000823Y00010105*
X00000822Y00010105*
X00000814Y00010094*
X00000808Y00010083*
X00000802Y00010072*
X00000797Y00010061*
X00000793Y0001005*
X0000079Y00010038*
X00000787Y00010028*
X00000785Y00010018*
X00000783Y00010008*
X00000782Y0001*
X00000781Y00009992*
X0000078Y00009985*
X0000078Y00009982*
Y00009979*
Y00009977*
X00000779Y00009975*
Y0001016*
X00000932*
X0000092Y00010159*
G37*
G36*
X00000934Y00010114D02*
X00000939D01*
X00000944Y00010113*
X00000948Y00010112*
X00000956Y00010109*
X00000962Y00010105*
X00000968Y000101*
X00000973Y00010094*
X00000977Y00010088*
X0000098Y00010081*
X00000983Y00010075*
X00000985Y0001007*
X00000986Y00010064*
X00000987Y00010059*
X00000987Y00010054*
X00000988Y00010051*
Y0001005*
Y00010049*
Y00010048*
Y00010048*
X00000987Y00010037*
X00000986Y00010027*
X00000985Y00010017*
X00000983Y00010007*
X00000981Y00009999*
X00000979Y0000999*
X00000976Y00009983*
X00000974Y00009975*
X00000971Y00009969*
X00000969Y00009963*
X00000966Y00009958*
X00000964Y00009954*
X00000962Y00009951*
X00000961Y00009949*
X0000096Y00009948*
Y00009947*
X00000955Y00009939*
X00000949Y00009933*
X00000943Y00009927*
X00000937Y00009922*
X00000931Y00009918*
X00000924Y00009915*
X00000918Y00009912*
X00000912Y0000991*
X00000907Y00009908*
X00000901Y00009907*
X00000897Y00009906*
X00000893Y00009905*
X0000089Y00009905*
X00000887Y00009904*
X00000885*
X00000881Y00009905*
X00000876Y00009905*
X00000872Y00009906*
X00000868Y00009907*
X00000862Y00009911*
X00000856Y00009914*
X00000852Y00009918*
X00000849Y00009921*
X00000848Y00009922*
X00000847Y00009923*
X00000846Y00009924*
X00000842Y00009932*
X00000838Y00009941*
X00000837Y0000995*
X00000835Y00009958*
X00000834Y00009962*
X00000834Y00009966*
X00000833Y00009969*
Y00009972*
X00000833Y00009974*
Y00009976*
Y00009977*
Y00009977*
X00000833Y00009987*
X00000835Y00009996*
X00000836Y00010005*
X00000837Y00010013*
X00000839Y00010021*
X00000842Y00010029*
X00000844Y00010036*
X00000846Y00010043*
X00000849Y00010049*
X00000851Y00010055*
X00000854Y0001006*
X00000856Y00010064*
X00000857Y00010067*
X00000859Y00010069*
X0000086Y00010071*
X0000086Y00010071*
X00000865Y00010079*
X00000871Y00010085*
X00000876Y00010091*
X00000882Y00010097*
X00000888Y00010101*
X00000894Y00010104*
X000009Y00010107*
X00000905Y00010109*
X00000909Y00010111*
X00000914Y00010112*
X00000918Y00010114*
X00000922Y00010114*
X00000925*
X00000927Y00010115*
X00000929*
X00000934Y00010114*
G37*
G36*
X00001041Y00009859D02*
X00000879D01*
X00000893Y0000986*
X00000905Y00009861*
X00000918Y00009864*
X00000929Y00009868*
X0000094Y00009872*
X0000095Y00009876*
X00000958Y00009881*
X00000966Y00009886*
X00000974Y00009891*
X0000098Y00009896*
X00000985Y000099*
X0000099Y00009904*
X00000993Y00009908*
X00000996Y0000991*
X00000997Y00009912*
X00000998Y00009912*
X00001005Y00009923*
X00001012Y00009934*
X00001018Y00009946*
X00001023Y00009957*
X00001027Y00009969*
X00001031Y0000998*
X00001033Y00009992*
X00001035Y00010003*
X00001037Y00010012*
X00001039Y00010022*
X0000104Y0001003*
X0000104Y00010034*
X0000104Y00010038*
X00001041Y00010041*
Y00010044*
Y00010046*
Y00009859*
G37*
G54D10*
X0000685Y00010413D02*
D01*
X0000685Y00010416*
X0000685Y00010418*
X00006849Y00010421*
X00006848Y00010424*
X00006848Y00010426*
X00006846Y00010429*
X00006845Y00010431*
X00006844Y00010434*
X00006842Y00010436*
X00006841Y00010438*
X00006839Y0001044*
X00006837Y00010442*
X00006835Y00010444*
X00006833Y00010446*
X0000683Y00010447*
X00006828Y00010448*
X00006825Y00010449*
X00006823Y0001045*
X0000682Y00010451*
X00006817Y00010452*
X00006815Y00010452*
X00006812Y00010452*
X00006809*
X00006806Y00010452*
X00006804Y00010452*
X00006801Y00010451*
X00006798Y0001045*
X00006796Y00010449*
X00006793Y00010448*
X00006791Y00010447*
X00006789Y00010446*
X00006786Y00010444*
X00006784Y00010442*
X00006782Y0001044*
X0000678Y00010438*
X00006779Y00010436*
X00006777Y00010434*
X00006776Y00010431*
X00006775Y00010429*
X00006774Y00010426*
X00006773Y00010424*
X00006772Y00010421*
X00006772Y00010418*
X00006771Y00010416*
X00006771Y00010413*
X00006771Y0001041*
X00006772Y00010407*
X00006772Y00010405*
X00006773Y00010402*
X00006774Y00010399*
X00006775Y00010397*
X00006776Y00010394*
X00006777Y00010392*
X00006779Y0001039*
X0000678Y00010388*
X00006782Y00010386*
X00006784Y00010384*
X00006786Y00010382*
X00006789Y0001038*
X00006791Y00010379*
X00006793Y00010378*
X00006796Y00010376*
X00006798Y00010375*
X00006801Y00010375*
X00006804Y00010374*
X00006806Y00010374*
X00006809Y00010374*
X00006812*
X00006815Y00010374*
X00006817Y00010374*
X0000682Y00010375*
X00006823Y00010375*
X00006825Y00010376*
X00006828Y00010378*
X0000683Y00010379*
X00006833Y0001038*
X00006835Y00010382*
X00006837Y00010384*
X00006839Y00010386*
X00006841Y00010388*
X00006842Y0001039*
X00006844Y00010392*
X00006845Y00010394*
X00006846Y00010397*
X00006848Y00010399*
X00006848Y00010402*
X00006849Y00010405*
X0000685Y00010407*
X0000685Y0001041*
X0000685Y00010413*
X00006614Y0000498D02*
D01*
X00006614Y00004983*
X00006613Y00004985*
X00006613Y00004988*
X00006612Y00004991*
X00006611Y00004993*
X0000661Y00004996*
X00006609Y00004998*
X00006608Y00005001*
X00006606Y00005003*
X00006604Y00005005*
X00006603Y00005007*
X00006601Y00005009*
X00006599Y00005011*
X00006596Y00005012*
X00006594Y00005014*
X00006592Y00005015*
X00006589Y00005016*
X00006586Y00005017*
X00006584Y00005018*
X00006581Y00005019*
X00006578Y00005019*
X00006576Y00005019*
X00006573*
X0000657Y00005019*
X00006567Y00005019*
X00006565Y00005018*
X00006562Y00005017*
X0000656Y00005016*
X00006557Y00005015*
X00006555Y00005014*
X00006552Y00005012*
X0000655Y00005011*
X00006548Y00005009*
X00006546Y00005007*
X00006544Y00005005*
X00006542Y00005003*
X00006541Y00005001*
X0000654Y00004998*
X00006538Y00004996*
X00006537Y00004993*
X00006536Y00004991*
X00006536Y00004988*
X00006535Y00004985*
X00006535Y00004983*
X00006535Y0000498*
X00006535Y00004977*
X00006535Y00004974*
X00006536Y00004972*
X00006536Y00004969*
X00006537Y00004966*
X00006538Y00004964*
X0000654Y00004961*
X00006541Y00004959*
X00006542Y00004957*
X00006544Y00004955*
X00006546Y00004952*
X00006548Y00004951*
X0000655Y00004949*
X00006552Y00004947*
X00006555Y00004946*
X00006557Y00004944*
X0000656Y00004943*
X00006562Y00004942*
X00006565Y00004942*
X00006567Y00004941*
X0000657Y00004941*
X00006573Y0000494*
X00006576*
X00006578Y00004941*
X00006581Y00004941*
X00006584Y00004942*
X00006586Y00004942*
X00006589Y00004943*
X00006592Y00004944*
X00006594Y00004946*
X00006596Y00004947*
X00006599Y00004949*
X00006601Y00004951*
X00006603Y00004952*
X00006604Y00004955*
X00006606Y00004957*
X00006608Y00004959*
X00006609Y00004961*
X0000661Y00004964*
X00006611Y00004966*
X00006612Y00004969*
X00006613Y00004972*
X00006613Y00004974*
X00006614Y00004977*
X00006614Y0000498*
X00007405Y00001092D02*
D01*
X00007405Y00001095*
X00007405Y00001097*
X00007404Y000011*
X00007403Y00001103*
X00007403Y00001105*
X00007402Y00001108*
X000074Y00001111*
X00007399Y00001113*
X00007397Y00001115*
X00007396Y00001117*
X00007394Y00001119*
X00007392Y00001121*
X0000739Y00001123*
X00007388Y00001125*
X00007385Y00001126*
X00007383Y00001127*
X0000738Y00001129*
X00007378Y00001129*
X00007375Y0000113*
X00007372Y00001131*
X0000737Y00001131*
X00007367Y00001131*
X00007364*
X00007362Y00001131*
X00007359Y00001131*
X00007356Y0000113*
X00007353Y00001129*
X00007351Y00001129*
X00007348Y00001127*
X00007346Y00001126*
X00007344Y00001125*
X00007341Y00001123*
X00007339Y00001121*
X00007337Y00001119*
X00007335Y00001117*
X00007334Y00001115*
X00007332Y00001113*
X00007331Y00001111*
X0000733Y00001108*
X00007329Y00001105*
X00007328Y00001103*
X00007327Y000011*
X00007327Y00001097*
X00007326Y00001095*
X00007326Y00001092*
X00007326Y00001089*
X00007327Y00001087*
X00007327Y00001084*
X00007328Y00001081*
X00007329Y00001079*
X0000733Y00001076*
X00007331Y00001074*
X00007332Y00001071*
X00007334Y00001069*
X00007335Y00001067*
X00007337Y00001065*
X00007339Y00001063*
X00007341Y00001061*
X00007344Y00001059*
X00007346Y00001058*
X00007348Y00001057*
X00007351Y00001056*
X00007353Y00001055*
X00007356Y00001054*
X00007359Y00001053*
X00007362Y00001053*
X00007364Y00001053*
X00007367*
X0000737Y00001053*
X00007372Y00001053*
X00007375Y00001054*
X00007378Y00001055*
X0000738Y00001056*
X00007383Y00001057*
X00007385Y00001058*
X00007388Y00001059*
X0000739Y00001061*
X00007392Y00001063*
X00007394Y00001065*
X00007396Y00001067*
X00007397Y00001069*
X00007399Y00001071*
X000074Y00001074*
X00007402Y00001076*
X00007403Y00001079*
X00007403Y00001081*
X00007404Y00001084*
X00007405Y00001087*
X00007405Y00001089*
X00007405Y00001092*
X00002838D02*
D01*
X00002838Y00001095*
X00002838Y00001097*
X00002838Y000011*
X00002837Y00001103*
X00002836Y00001105*
X00002835Y00001108*
X00002834Y00001111*
X00002832Y00001113*
X00002831Y00001115*
X00002829Y00001117*
X00002827Y00001119*
X00002825Y00001121*
X00002823Y00001123*
X00002821Y00001125*
X00002819Y00001126*
X00002816Y00001127*
X00002814Y00001129*
X00002811Y00001129*
X00002809Y0000113*
X00002806Y00001131*
X00002803Y00001131*
X000028Y00001131*
X00002798*
X00002795Y00001131*
X00002792Y00001131*
X0000279Y0000113*
X00002787Y00001129*
X00002784Y00001129*
X00002782Y00001127*
X00002779Y00001126*
X00002777Y00001125*
X00002775Y00001123*
X00002773Y00001121*
X00002771Y00001119*
X00002769Y00001117*
X00002767Y00001115*
X00002766Y00001113*
X00002764Y00001111*
X00002763Y00001108*
X00002762Y00001105*
X00002761Y00001103*
X00002761Y000011*
X0000276Y00001097*
X0000276Y00001095*
X0000276Y00001092*
X0000276Y00001089*
X0000276Y00001087*
X00002761Y00001084*
X00002761Y00001081*
X00002762Y00001079*
X00002763Y00001076*
X00002764Y00001074*
X00002766Y00001071*
X00002767Y00001069*
X00002769Y00001067*
X00002771Y00001065*
X00002773Y00001063*
X00002775Y00001061*
X00002777Y00001059*
X00002779Y00001058*
X00002782Y00001057*
X00002784Y00001056*
X00002787Y00001055*
X0000279Y00001054*
X00002792Y00001053*
X00002795Y00001053*
X00002798Y00001053*
X000028*
X00002803Y00001053*
X00002806Y00001053*
X00002809Y00001054*
X00002811Y00001055*
X00002814Y00001056*
X00002816Y00001057*
X00002819Y00001058*
X00002821Y00001059*
X00002823Y00001061*
X00002825Y00001063*
X00002827Y00001065*
X00002829Y00001067*
X00002831Y00001069*
X00002832Y00001071*
X00002834Y00001074*
X00002835Y00001076*
X00002836Y00001079*
X00002837Y00001081*
X00002838Y00001084*
X00002838Y00001087*
X00002838Y00001089*
X00002838Y00001092*
X00012138Y00004514D02*
X00012638D01*
X00012888Y00004764D02*
Y00005264D01*
X00011888Y00004764D02*
Y00005264D01*
Y00004764D02*
X00012138Y00004514D01*
X00011888Y00005264D02*
X00012138Y00005514D01*
X00012638D02*
X00012888Y00005264D01*
X00012638Y00004514D02*
X00012888Y00004764D01*
X00012138Y00005514D02*
X00012638D01*
X00000755Y00004538D02*
X00001255D01*
X00001505Y00004788D02*
Y00005288D01*
X00000505Y00004788D02*
Y00005288D01*
Y00004788D02*
X00000755Y00004538D01*
X00000505Y00005288D02*
X00000755Y00005538D01*
X00001255D02*
X00001505Y00005288D01*
X00001255Y00004538D02*
X00001505Y00004788D01*
X00000755Y00005538D02*
X00001255D01*
X00013135Y00010523D02*
X00013635D01*
X00013885Y00010773D02*
Y00011273D01*
X00012885Y00010773D02*
Y00011273D01*
Y00010773D02*
X00013135Y00010523D01*
X00012885Y00011273D02*
X00013135Y00011523D01*
X00013635D02*
X00013885Y00011273D01*
X00013635Y00010523D02*
X00013885Y00010773D01*
X00013135Y00011523D02*
X00013635D01*
X00013135Y00007523D02*
X00013635D01*
X00013885Y00007773D02*
Y00008273D01*
X00012885Y00007773D02*
Y00008273D01*
Y00007773D02*
X00013135Y00007523D01*
X00012885Y00008273D02*
X00013135Y00008523D01*
X00013635D02*
X00013885Y00008273D01*
X00013635Y00007523D02*
X00013885Y00007773D01*
X00013135Y00008523D02*
X00013635D01*
X00013135Y00006523D02*
X00013635D01*
X00013885Y00006773D02*
Y00007273D01*
X00012885Y00006773D02*
Y00007273D01*
Y00006773D02*
X00013135Y00006523D01*
X00012885Y00007273D02*
X00013135Y00007523D01*
X00013635D02*
X00013885Y00007273D01*
X00013635Y00006523D02*
X00013885Y00006773D01*
X00013135Y00007523D02*
X00013635D01*
X00013135Y00008523D02*
X00013635D01*
X00013885Y00008773D02*
Y00009273D01*
X00012885Y00008773D02*
Y00009273D01*
Y00008773D02*
X00013135Y00008523D01*
X00012885Y00009273D02*
X00013135Y00009523D01*
X00013635D02*
X00013885Y00009273D01*
X00013635Y00008523D02*
X00013885Y00008773D01*
X00013135Y00009523D02*
X00013635D01*
X00013135Y00005523D02*
X00013635D01*
X00013885Y00005773D02*
Y00006273D01*
X00012885Y00005773D02*
Y00006273D01*
Y00005773D02*
X00013135Y00005523D01*
X00012885Y00006273D02*
X00013135Y00006523D01*
X00013635D02*
X00013885Y00006273D01*
X00013635Y00005523D02*
X00013885Y00005773D01*
X00013135Y00006523D02*
X00013635D01*
X00013135Y00009523D02*
X00013635D01*
X00013885Y00009773D02*
Y00010273D01*
X00012885Y00009773D02*
Y00010273D01*
Y00009773D02*
X00013135Y00009523D01*
X00012885Y00010273D02*
X00013135Y00010523D01*
X00013635D02*
X00013885Y00010273D01*
X00013635Y00009523D02*
X00013885Y00009773D01*
X00013135Y00010523D02*
X00013635D01*
X00013143Y00004527D02*
X00013643D01*
X00013893Y00004777D02*
Y00005277D01*
X00012893Y00004777D02*
Y00005277D01*
Y00004777D02*
X00013143Y00004527D01*
X00012893Y00005277D02*
X00013143Y00005527D01*
X00013643D02*
X00013893Y00005277D01*
X00013643Y00004527D02*
X00013893Y00004777D01*
X00013143Y00005527D02*
X00013643D01*
X-0000025Y00004539D02*
X0000025D01*
X000005Y00004789D02*
Y00005289D01*
X-000005Y00004789D02*
Y00005289D01*
Y00004789D02*
X-0000025Y00004539D01*
X-000005Y00005289D02*
X-0000025Y00005539D01*
X0000025D02*
X000005Y00005289D01*
X0000025Y00004539D02*
X000005Y00004789D01*
X-0000025Y00005539D02*
X0000025D01*
X-0000025Y00009523D02*
X0000025D01*
X000005Y00009773D02*
Y00010273D01*
X-000005Y00009773D02*
Y00010273D01*
Y00009773D02*
X-0000025Y00009523D01*
X-000005Y00010273D02*
X-0000025Y00010523D01*
X0000025D02*
X000005Y00010273D01*
X0000025Y00009523D02*
X000005Y00009773D01*
X-0000025Y00010523D02*
X0000025D01*
X-0000025Y00008523D02*
X0000025D01*
X000005Y00008773D02*
Y00009273D01*
X-000005Y00008773D02*
Y00009273D01*
Y00008773D02*
X-0000025Y00008523D01*
X-000005Y00009273D02*
X-0000025Y00009523D01*
X0000025D02*
X000005Y00009273D01*
X0000025Y00008523D02*
X000005Y00008773D01*
X-0000025Y00009523D02*
X0000025D01*
X-0000025Y00007523D02*
X0000025D01*
X000005Y00007773D02*
Y00008273D01*
X-000005Y00007773D02*
Y00008273D01*
Y00007773D02*
X-0000025Y00007523D01*
X-000005Y00008273D02*
X-0000025Y00008523D01*
X0000025D02*
X000005Y00008273D01*
X0000025Y00007523D02*
X000005Y00007773D01*
X-0000025Y00008523D02*
X0000025D01*
X-0000025Y00006523D02*
X0000025D01*
X000005Y00006773D02*
Y00007273D01*
X-000005Y00006773D02*
Y00007273D01*
Y00006773D02*
X-0000025Y00006523D01*
X-000005Y00007273D02*
X-0000025Y00007523D01*
X0000025D02*
X000005Y00007273D01*
X0000025Y00006523D02*
X000005Y00006773D01*
X-0000025Y00007523D02*
X0000025D01*
X-0000025Y00010523D02*
X0000025D01*
X000005Y00010773D02*
Y00011273D01*
X-000005Y00010773D02*
Y00011273D01*
Y00010773D02*
X-0000025Y00010523D01*
X-000005Y00011273D02*
X-0000025Y00011523D01*
X0000025D02*
X000005Y00011273D01*
X0000025Y00010523D02*
X000005Y00010773D01*
X-0000025Y00011523D02*
X0000025D01*
X-0000025Y00005523D02*
X0000025D01*
X000005Y00005773D02*
Y00006273D01*
X-000005Y00005773D02*
Y00006273D01*
Y00005773D02*
X-0000025Y00005523D01*
X-000005Y00006273D02*
X-0000025Y00006523D01*
X0000025D02*
X000005Y00006273D01*
X0000025Y00005523D02*
X000005Y00005773D01*
X-0000025Y00006523D02*
X0000025D01*
X-0000025Y00002555D02*
X0000025D01*
X000005Y00002805D02*
Y00003305D01*
X-000005Y00002805D02*
Y00003305D01*
Y00002805D02*
X-0000025Y00002555D01*
X-000005Y00003305D02*
X-0000025Y00003555D01*
X0000025D02*
X000005Y00003305D01*
X0000025Y00002555D02*
X000005Y00002805D01*
X-0000025Y00003555D02*
X0000025D01*
X00013129Y00002512D02*
X00013629D01*
X00013879Y00002762D02*
Y00003262D01*
X00012879Y00002762D02*
Y00003262D01*
Y00002762D02*
X00013129Y00002512D01*
X00012879Y00003262D02*
X00013129Y00003512D01*
X00013629D02*
X00013879Y00003262D01*
X00013629Y00002512D02*
X00013879Y00002762D01*
X00013129Y00003512D02*
X00013629D01*
G54D11*
X00002559Y00004133D02*
D01*
X00002712Y0000385*
X00002885Y00003578*
X00003077Y00003319*
X00003286Y00003074*
X00003512Y00002844*
X00003754Y0000263*
X00004009Y00002434*
X00004278Y00002256*
X00004559Y00002097*
X00004849Y00001958*
X00005149Y0000184*
X00005457Y00001743*
X0000577Y00001667*
X00006088Y00001614*
X00006409Y00001583*
X00006731Y00001575*
X00007053Y00001588*
X00007374Y00001625*
X00007691Y00001684*
X00008003Y00001764*
X00008308Y00001866*
X00008606Y0000199*
X00008895Y00002133*
X00009173Y00002297*
X00009438Y00002479*
X00009691Y0000268*
X00009928Y00002898*
X0001015Y00003131*
X00010356Y0000338*
X00010543Y00003643*
X00010711Y00003917*
X00010826Y00004133*
Y0001122D02*
D01*
X00010673Y00011503*
X00010499Y00011775*
X00010308Y00012034*
X00010098Y0001228*
X00009873Y0001251*
X00009631Y00012723*
X00009376Y0001292*
X00009107Y00013098*
X00008826Y00013256*
X00008535Y00013395*
X00008235Y00013514*
X00007928Y00013611*
X00007615Y00013686*
X00007297Y00013739*
X00006976Y0001377*
X00006654Y00013779*
X00006331Y00013765*
X00006011Y00013728*
X00005694Y0001367*
X00005382Y00013589*
X00005076Y00013487*
X00004778Y00013364*
X0000449Y0001322*
X00004212Y00013056*
X00003946Y00012874*
X00003694Y00012673*
X00003456Y00012456*
X00003234Y00012222*
X00003029Y00011973*
X00002842Y00011711*
X00002673Y00011436*
X00002559Y0001122*
Y00004133D02*
Y0001122D01*
X00010826Y00004133D02*
Y0001122D01*
G54D12*
X00014339Y0D02*
D01*
X00014337Y00000066*
X0001433Y00000132*
X00014318Y00000198*
X00014302Y00000262*
X00014282Y00000326*
X00014257Y00000388*
X00014228Y00000447*
X00014194Y00000505*
X00014157Y0000056*
X00014116Y00000613*
X00014072Y00000662*
X00014024Y00000708*
X00013973Y00000751*
X00013919Y0000079*
X00013862Y00000826*
X00013804Y00000857*
X00013743Y00000884*
X0001368Y00000907*
X00013616Y00000925*
X00013551Y00000939*
X00013485Y00000948*
X00013419Y00000953*
X00013352*
X00013286Y00000948*
X0001322Y00000939*
X00013155Y00000925*
X00013091Y00000907*
X00013028Y00000884*
X00012967Y00000857*
X00012908Y00000826*
X00012852Y0000079*
X00012798Y00000751*
X00012747Y00000708*
X00012699Y00000662*
X00012655Y00000613*
X00012614Y0000056*
X00012576Y00000505*
X00012543Y00000447*
X00012514Y00000388*
X00012489Y00000326*
X00012468Y00000262*
X00012452Y00000198*
X00012441Y00000132*
X00012434Y00000066*
X00012431Y0*
X00012434Y-00000066*
X00012441Y-00000132*
X00012452Y-00000198*
X00012468Y-00000262*
X00012489Y-00000326*
X00012514Y-00000388*
X00012543Y-00000447*
X00012576Y-00000505*
X00012614Y-0000056*
X00012655Y-00000613*
X00012699Y-00000662*
X00012747Y-00000708*
X00012798Y-00000751*
X00012852Y-0000079*
X00012908Y-00000826*
X00012967Y-00000857*
X00013028Y-00000884*
X00013091Y-00000907*
X00013155Y-00000925*
X0001322Y-00000939*
X00013286Y-00000948*
X00013352Y-00000953*
X00013419*
X00013485Y-00000948*
X00013551Y-00000939*
X00013616Y-00000925*
X0001368Y-00000907*
X00013743Y-00000884*
X00013804Y-00000857*
X00013862Y-00000826*
X00013919Y-0000079*
X00013973Y-00000751*
X00014024Y-00000708*
X00014072Y-00000662*
X00014116Y-00000613*
X00014157Y-0000056*
X00014194Y-00000505*
X00014228Y-00000447*
X00014257Y-00000388*
X00014282Y-00000326*
X00014302Y-00000262*
X00014318Y-00000198*
X0001433Y-00000132*
X00014337Y-00000066*
X00014339Y0*
X00000953D02*
D01*
X00000951Y00000066*
X00000944Y00000132*
X00000933Y00000198*
X00000916Y00000262*
X00000896Y00000326*
X00000871Y00000388*
X00000842Y00000447*
X00000808Y00000505*
X00000771Y0000056*
X0000073Y00000613*
X00000686Y00000662*
X00000638Y00000708*
X00000587Y00000751*
X00000533Y0000079*
X00000476Y00000826*
X00000418Y00000857*
X00000357Y00000884*
X00000294Y00000907*
X0000023Y00000925*
X00000165Y00000939*
X00000099Y00000948*
X00000033Y00000953*
X-00000033*
X-00000099Y00000948*
X-00000165Y00000939*
X-0000023Y00000925*
X-00000294Y00000907*
X-00000357Y00000884*
X-00000418Y00000857*
X-00000476Y00000826*
X-00000533Y0000079*
X-00000587Y00000751*
X-00000638Y00000708*
X-00000686Y00000662*
X-0000073Y00000613*
X-00000771Y0000056*
X-00000808Y00000505*
X-00000842Y00000447*
X-00000871Y00000388*
X-00000896Y00000326*
X-00000916Y00000262*
X-00000933Y00000198*
X-00000944Y00000132*
X-00000951Y00000066*
X-00000953Y0*
X-00000951Y-00000066*
X-00000944Y-00000132*
X-00000933Y-00000198*
X-00000916Y-00000262*
X-00000896Y-00000326*
X-00000871Y-00000388*
X-00000842Y-00000447*
X-00000808Y-00000505*
X-00000771Y-0000056*
X-0000073Y-00000613*
X-00000686Y-00000662*
X-00000638Y-00000708*
X-00000587Y-00000751*
X-00000533Y-0000079*
X-00000476Y-00000826*
X-00000418Y-00000857*
X-00000357Y-00000884*
X-00000294Y-00000907*
X-0000023Y-00000925*
X-00000165Y-00000939*
X-00000099Y-00000948*
X-00000033Y-00000953*
X00000033*
X00000099Y-00000948*
X00000165Y-00000939*
X0000023Y-00000925*
X00000294Y-00000907*
X00000357Y-00000884*
X00000418Y-00000857*
X00000476Y-00000826*
X00000533Y-0000079*
X00000587Y-00000751*
X00000638Y-00000708*
X00000686Y-00000662*
X0000073Y-00000613*
X00000771Y-0000056*
X00000808Y-00000505*
X00000842Y-00000447*
X00000871Y-00000388*
X00000896Y-00000326*
X00000916Y-00000262*
X00000933Y-00000198*
X00000944Y-00000132*
X00000951Y-00000066*
X00000953Y0*
X00014339Y00013385D02*
D01*
X00014337Y00013452*
X0001433Y00013518*
X00014318Y00013584*
X00014302Y00013648*
X00014282Y00013712*
X00014257Y00013773*
X00014228Y00013833*
X00014194Y00013891*
X00014157Y00013946*
X00014116Y00013999*
X00014072Y00014048*
X00014024Y00014094*
X00013973Y00014137*
X00013919Y00014176*
X00013862Y00014211*
X00013804Y00014243*
X00013743Y0001427*
X0001368Y00014293*
X00013616Y00014311*
X00013551Y00014325*
X00013485Y00014334*
X00013419Y00014339*
X00013352*
X00013286Y00014334*
X0001322Y00014325*
X00013155Y00014311*
X00013091Y00014293*
X00013028Y0001427*
X00012967Y00014243*
X00012908Y00014211*
X00012852Y00014176*
X00012798Y00014137*
X00012747Y00014094*
X00012699Y00014048*
X00012655Y00013999*
X00012614Y00013946*
X00012576Y00013891*
X00012543Y00013833*
X00012514Y00013773*
X00012489Y00013712*
X00012468Y00013648*
X00012452Y00013584*
X00012441Y00013518*
X00012434Y00013452*
X00012431Y00013385*
X00012434Y00013319*
X00012441Y00013253*
X00012452Y00013187*
X00012468Y00013122*
X00012489Y00013059*
X00012514Y00012997*
X00012543Y00012937*
X00012576Y0001288*
X00012614Y00012825*
X00012655Y00012772*
X00012699Y00012723*
X00012747Y00012676*
X00012798Y00012634*
X00012852Y00012594*
X00012908Y00012559*
X00012967Y00012528*
X00013028Y00012501*
X00013091Y00012478*
X00013155Y0001246*
X0001322Y00012446*
X00013286Y00012437*
X00013352Y00012432*
X00013419*
X00013485Y00012437*
X00013551Y00012446*
X00013616Y0001246*
X0001368Y00012478*
X00013743Y00012501*
X00013804Y00012528*
X00013862Y00012559*
X00013919Y00012594*
X00013973Y00012634*
X00014024Y00012676*
X00014072Y00012723*
X00014116Y00012772*
X00014157Y00012825*
X00014194Y0001288*
X00014228Y00012937*
X00014257Y00012997*
X00014282Y00013059*
X00014302Y00013122*
X00014318Y00013187*
X0001433Y00013253*
X00014337Y00013319*
X00014339Y00013385*
X00000953D02*
D01*
X00000951Y00013452*
X00000944Y00013518*
X00000933Y00013584*
X00000916Y00013648*
X00000896Y00013712*
X00000871Y00013773*
X00000842Y00013833*
X00000808Y00013891*
X00000771Y00013946*
X0000073Y00013999*
X00000686Y00014048*
X00000638Y00014094*
X00000587Y00014137*
X00000533Y00014176*
X00000476Y00014211*
X00000418Y00014243*
X00000357Y0001427*
X00000294Y00014293*
X0000023Y00014311*
X00000165Y00014325*
X00000099Y00014334*
X00000033Y00014339*
X-00000033*
X-00000099Y00014334*
X-00000165Y00014325*
X-0000023Y00014311*
X-00000294Y00014293*
X-00000357Y0001427*
X-00000418Y00014243*
X-00000476Y00014211*
X-00000533Y00014176*
X-00000587Y00014137*
X-00000638Y00014094*
X-00000686Y00014048*
X-0000073Y00013999*
X-00000771Y00013946*
X-00000808Y00013891*
X-00000842Y00013833*
X-00000871Y00013773*
X-00000896Y00013712*
X-00000916Y00013648*
X-00000933Y00013584*
X-00000944Y00013518*
X-00000951Y00013452*
X-00000953Y00013385*
X-00000951Y00013319*
X-00000944Y00013253*
X-00000933Y00013187*
X-00000916Y00013122*
X-00000896Y00013059*
X-00000871Y00012997*
X-00000842Y00012937*
X-00000808Y0001288*
X-00000771Y00012825*
X-0000073Y00012772*
X-00000686Y00012723*
X-00000638Y00012676*
X-00000587Y00012634*
X-00000533Y00012594*
X-00000476Y00012559*
X-00000418Y00012528*
X-00000357Y00012501*
X-00000294Y00012478*
X-0000023Y0001246*
X-00000165Y00012446*
X-00000099Y00012437*
X-00000033Y00012432*
X00000033*
X00000099Y00012437*
X00000165Y00012446*
X0000023Y0001246*
X00000294Y00012478*
X00000357Y00012501*
X00000418Y00012528*
X00000476Y00012559*
X00000533Y00012594*
X00000587Y00012634*
X00000638Y00012676*
X00000686Y00012723*
X0000073Y00012772*
X00000771Y00012825*
X00000808Y0001288*
X00000842Y00012937*
X00000871Y00012997*
X00000896Y00013059*
X00000916Y00013122*
X00000933Y00013187*
X00000944Y00013253*
X00000951Y00013319*
X00000953Y00013385*
G54D13*
X00005935Y00008809D02*
Y00010167D01*
X0000745Y00008809D02*
Y00010167D01*
Y00005226D02*
Y00006584D01*
X00005935Y00005226D02*
Y00006584D01*
X0000832Y-00000787D02*
X0000971D01*
X0000832Y00001181D02*
X0000971D01*
X00003754Y-00000787D02*
X00005144D01*
X00003754Y00001181D02*
X00005144D01*
G54D14*
X00007245Y00000274D02*
Y000011D01*
X00006694Y00000274D02*
Y000011D01*
X00006693Y00000275D02*
Y00001102D01*
X00006142Y00000275D02*
Y00001102D01*
M02*