%FSTAX44Y44*%
%MOIN*%
%SFA1B1*%

%IPPOS*%
%AMD17*
4,1,8,0.029200,0.009800,-0.029200,0.009800,-0.033900,0.005200,-0.033900,-0.005200,-0.029200,-0.009800,0.029200,-0.009800,0.033900,-0.005200,0.033900,0.005200,0.029200,0.009800,0.0*
1,1,0.009370,0.029200,0.005200*
1,1,0.009370,-0.029200,0.005200*
1,1,0.009370,-0.029200,-0.005200*
1,1,0.009370,0.029200,-0.005200*
%
%AMD18*
4,1,8,-0.019700,0.007800,-0.019700,-0.007800,-0.009800,-0.017700,0.009800,-0.017700,0.019700,-0.007800,0.019700,0.007800,0.009800,0.017700,-0.009800,0.017700,-0.019700,0.007800,0.0*
1,1,0.019764,-0.009800,0.007800*
1,1,0.019764,-0.009800,-0.007800*
1,1,0.019764,0.009800,-0.007800*
1,1,0.019764,0.009800,0.007800*
%
%ADD15R,0.135827X0.057087*%
%ADD16R,0.135827X0.025591*%
G04~CAMADD=17~8~0.0~0.0~677.2~196.9~46.9~0.0~15~0.0~0.0~0.0~0.0~0~0.0~0.0~0.0~0.0~0~0.0~0.0~0.0~0.0~677.2~196.9*
%ADD17D17*%
G04~CAMADD=18~8~0.0~0.0~354.3~393.7~98.8~0.0~15~0.0~0.0~0.0~0.0~0~0.0~0.0~0.0~0.0~0~0.0~0.0~0.0~90.0~394.0~354.0*
%ADD18D18*%
%ADD19C,0.163386*%
%ADD20C,0.076771*%
%ADD21C,0.084645*%
%ADD22O,0.084645X0.076771*%
%ADD23C,0.112205*%
%LNnixie_in12-1*%
%LPD*%
G36*
X00008232Y00006534D02*
Y00005674D01*
X00008147Y00005589*
X00007412*
X00007293Y00005708*
X00006092*
X00005974Y0000559*
X00005237*
X00005153Y00005674*
Y00006534*
X00005235Y00006616*
X00005863*
X00005897Y00006582*
Y00006288*
X0000603Y00006155*
X00007355*
X00007488Y00006288*
Y00006582*
X00007522Y00006616*
X0000815*
X00008232Y00006534*
G37*
G36*
X00006092Y00009685D02*
X00007293D01*
X00007411Y00009802*
X00008148*
X00008232Y00009719*
Y00008859*
X0000815Y00008777*
X00007522*
X00007488Y00008811*
Y00009104*
X00007355Y00009237*
X0000603*
X00005897Y00009104*
Y00008811*
X00005863Y00008777*
X00005235*
X00005153Y00008859*
Y00009719*
X00005238Y00009804*
X00005972*
X00006092Y00009685*
G37*
G36*
X00005381Y00013649D02*
X00005381D01*
Y00013649*
X00005381*
Y00013649*
X00005381*
Y0001365*
X00005381*
Y00013649*
G37*
G36*
X00005575Y00013609D02*
X00005576D01*
Y00013609*
X00005575*
Y00013609*
Y0001361*
Y00013609*
G37*
G36*
X00002596Y00013567D02*
X00002596D01*
Y00013567*
X00002596*
Y00013567*
X00002595*
Y00013568*
X00002596*
Y00013567*
G37*
G54D15*
X00006692Y00009488D03*
Y00005905D03*
G54D16*
X00006692Y00008937D03*
Y00010039D03*
Y00006456D03*
Y00005354D03*
G54D17*
X00010145Y00001092D03*
Y00000836D03*
Y0000058D03*
Y00000324D03*
Y00000068D03*
Y-00000187D03*
Y-00000442D03*
Y-00000698D03*
X00007885D03*
Y-00000442D03*
Y-00000187D03*
Y00000068D03*
Y00000324D03*
Y0000058D03*
Y00000836D03*
Y00001092D03*
X00005579D03*
Y00000836D03*
Y0000058D03*
Y00000324D03*
Y00000068D03*
Y-00000187D03*
Y-00000442D03*
Y-00000698D03*
X00003319D03*
Y-00000442D03*
Y-00000187D03*
Y00000068D03*
Y00000324D03*
Y0000058D03*
Y00000836D03*
Y00001092D03*
G54D18*
X0000697Y00000392D03*
Y00000982D03*
X00006417Y00000393D03*
Y00000984D03*
G54D19*
X0Y00013385D03*
X00013385Y0D03*
Y00013385D03*
X0Y0D03*
G54D20*
X00012388Y00005014D03*
X00013393Y00005027D03*
G54D21*
X00001005Y00005038D03*
X0Y00005039D03*
Y00010023D03*
Y00009023D03*
Y00008023D03*
Y00007023D03*
Y00011023D03*
Y00006023D03*
Y00003055D03*
G54D22*
X00013385Y00011023D03*
Y00008023D03*
Y00007023D03*
Y00009023D03*
Y00006023D03*
Y00010023D03*
X00013379Y00003012D03*
G54D23*
X00008956Y00005905D03*
Y00007677D03*
Y00009448D03*
X00004429D03*
Y00007677D03*
Y00005905D03*
X00006692Y00004133D03*
Y0001122D03*
X00005118Y00004527D03*
Y00010826D03*
X00008267D03*
Y00004527D03*
M02*