%FSTAX44Y44*%
%MOIN*%
%SFA1B1*%

%IPPOS*%
%AMD28*
4,1,8,-0.015700,0.007800,-0.015700,-0.007800,-0.009800,-0.013800,0.009800,-0.013800,0.015700,-0.007800,0.015700,0.007800,0.009800,0.013800,-0.009800,0.013800,-0.015700,0.007800,0.0*
1,1,0.011890,-0.009800,0.007800*
1,1,0.011890,-0.009800,-0.007800*
1,1,0.011890,0.009800,-0.007800*
1,1,0.011890,0.009800,0.007800*
%
%AMD40*
4,1,8,-0.017700,0.011500,-0.017700,-0.011500,-0.011500,-0.017700,0.011500,-0.017700,0.017700,-0.011500,0.017700,0.011500,0.011500,0.017700,-0.011500,0.017700,-0.017700,0.011500,0.0*
1,1,0.012441,-0.011500,0.011500*
1,1,0.012441,-0.011500,-0.011500*
1,1,0.012441,0.011500,-0.011500*
1,1,0.012441,0.011500,0.011500*
%
%AMD41*
4,1,8,0.011500,0.017700,-0.011500,0.017700,-0.017700,0.011500,-0.017700,-0.011500,-0.011500,-0.017700,0.011500,-0.017700,0.017700,-0.011500,0.017700,0.011500,0.011500,0.017700,0.0*
1,1,0.012441,0.011500,0.011500*
1,1,0.012441,-0.011500,0.011500*
1,1,0.012441,-0.011500,-0.011500*
1,1,0.012441,0.011500,-0.011500*
%
%ADD10C,0.007874*%
%ADD24C,0.015748*%
G04~CAMADD=28~8~0.0~0.0~275.6~315.0~59.4~0.0~15~0.0~0.0~0.0~0.0~0~0.0~0.0~0.0~0.0~0~0.0~0.0~0.0~90.0~315.0~275.0*
%ADD28D28*%
%ADD29C,0.027559*%
%ADD32C,0.157480*%
%ADD33C,0.070866*%
%ADD34C,0.078740*%
%ADD35O,0.078740X0.070866*%
%ADD36C,0.106299*%
%ADD37C,0.023622*%
%ADD38C,0.047244*%
G04~CAMADD=40~8~0.0~0.0~354.3~354.3~62.2~0.0~15~0.0~0.0~0.0~0.0~0~0.0~0.0~0.0~0.0~0~0.0~0.0~0.0~90.0~354.0~354.0*
%ADD40D40*%
G04~CAMADD=41~8~0.0~0.0~354.3~354.3~62.2~0.0~15~0.0~0.0~0.0~0.0~0~0.0~0.0~0.0~0.0~0~0.0~0.0~0.0~0.0~354.3~354.3*
%ADD41D41*%
%ADD42R,0.039370X0.023622*%
%ADD43R,0.055118X0.106299*%
%ADD44C,0.059055*%
%ADD45C,0.039370*%
%ADD46C,0.019685*%
%ADD47C,0.051181*%
%ADD48C,0.023622*%
%ADD49C,0.070866*%
%LNnixie_in12-1*%
%LPD*%
G36*
X00010433Y00000787D02*
X00010871Y00001151D01*
X00010826Y00001377*
X00010503Y00001431*
X00009842Y00000787*
X00010433*
G37*
G54D10*
X0001116Y00008051D02*
X00012008Y00007203D01*
X00011179Y00006476D02*
X00011718Y00005937D01*
X00011882Y00004609D02*
X00011885Y00004606D01*
X0001147Y00003793D02*
Y00004496D01*
X0001179Y00004857D02*
X00011882Y00004765D01*
X00011578Y00004767D02*
Y00005402D01*
X00011882Y00004609D02*
Y00004765D01*
X00012008Y00005522D02*
Y00007203D01*
X00011578Y00005402D02*
X00011718Y00005542D01*
X0001179Y00005303D02*
X00012008Y00005522D01*
X00011578Y00004767D02*
X00011667Y00004678D01*
X0001179Y00004857D02*
Y00005303D01*
X00011718Y00005542D02*
Y00005937D01*
X00011023Y00002952D02*
X00011667Y00003596D01*
X00011885Y00003368D02*
Y00004606D01*
X00011102Y00004864D02*
Y00004901D01*
X00011667Y00003596D02*
Y00004678D01*
X00011102Y00004864D02*
X0001147Y00004496D01*
X00011806Y00003289D02*
X00011885Y00003368D01*
X00011102Y00008051D02*
X0001116D01*
X00011023Y00002559D02*
Y00002952D01*
X00010236Y00002559D02*
X0001147Y00003793D01*
X00001581Y00002544D02*
X00001623Y00002587D01*
X00001062Y00006222D02*
X00001623Y00005661D01*
Y00002587D02*
Y00005661D01*
X0000182Y00003092D02*
Y00005856D01*
Y00003092D02*
X00002368Y00002544D01*
X00001338Y00006338D02*
X0000182Y00005856D01*
X00001062Y0000931D02*
X00002204Y00010452D01*
X00001062Y00006222D02*
Y0000931D01*
X00001338Y00006338D02*
Y00006929D01*
X00002204Y00008877D02*
X00002768Y00008314D01*
Y00004042D02*
X00003267Y00003543D01*
X00002768Y00004042D02*
Y00008314D01*
X00004403Y00001547D02*
X00004731Y00001914D01*
X00004731Y00001914D02*
X00004731Y00001914D01*
X00011806Y00002563D02*
Y00003289D01*
X00011102Y00006476D02*
X00011179D01*
X00010737Y00003856D02*
Y00009335D01*
X00011028Y00009625D02*
X00011102D01*
X00010737Y00009335D02*
X00011028Y00009625D01*
X00009444Y00002563D02*
X00010737Y00003856D01*
X00010516Y0000402D02*
Y00010614D01*
X00010218Y00003722D02*
X00010516Y0000402D01*
Y00010614D02*
X00011102Y000112D01*
X00008661Y00002559D02*
X00009824Y00003722D01*
X00010218*
X00003943Y00001914D02*
X00004316Y00001916D01*
X00003156Y00001914D02*
X00003529Y00001916D01*
X00002368Y00001914D02*
X00002741Y00001916D01*
X00001581Y00001914D02*
X00001954Y00001916D01*
X00003732Y00003543D02*
X00004731Y00002544D01*
X00003267Y00003543D02*
X00003732D01*
X00002284Y00005728D02*
X00002559Y00005453D01*
Y00003929D02*
X00003943Y00002544D01*
X00002559Y00003929D02*
Y00005453D01*
X00002204Y00005728D02*
X00002284D01*
X00002204Y00003496D02*
Y00004153D01*
Y00003496D02*
X00003156Y00002544D01*
X00001712Y00007303D02*
X00002204D01*
X00001338Y00006929D02*
X00001712Y00007303D01*
G54D24*
X00011141Y00000687D02*
D01*
Y00000686*
Y00000686*
Y00000686*
Y00000686*
Y00000685*
Y0000059D02*
D01*
X00011142Y00000579*
X00011143Y00000568*
X00011143Y00000566*
X0001142Y00000585D02*
D01*
X0001142Y00000586*
X0001142Y00000587*
X0001142Y00000588*
X0001142Y00000589*
X0001142Y0000059*
X00011109Y00005721D02*
X00011442D01*
X00011102Y00004153D02*
X00011106Y00004437D01*
X00011109Y00007296D02*
X00011442D01*
X00011109Y00008871D02*
X00011442D01*
X00009879Y00001929D02*
X00010236Y00001929D01*
X00010666Y00001929D02*
X00011023Y00001929D01*
X00011102Y00003866D02*
Y00004153D01*
X00011038Y00003802D02*
X00011102Y00003866D01*
Y00005728D02*
X00011106Y00006011D01*
X00011102Y00007303D02*
X00011106Y00007586D01*
X00011102Y00008877D02*
X00011106Y00009161D01*
X00011102Y00010452D02*
X00011106Y00010736D01*
X00011109Y00010446D02*
X00011442D01*
X00011143Y00000566D02*
X00011155Y00000491D01*
X00011141Y00000687D02*
Y00000688D01*
Y00000685D02*
Y0000059D01*
Y00000747D02*
Y00000688D01*
X00011416Y00000493D02*
X0001142Y00000585D01*
X00011415Y00000493D02*
X00011416D01*
X0001142Y00000748D02*
Y0000059D01*
X00011449Y00001929D02*
X00011806Y00001928D01*
X00002194Y00009629D02*
X00002201Y00009622D01*
X00002194Y00011204D02*
X00002201Y00011197D01*
X00002191Y00008051D02*
X00002198Y00008044D01*
X00002191Y00006476D02*
X00002198Y00006469D01*
X00002191Y00004901D02*
X00002198Y00004894D01*
X0001142Y00000748D02*
X00011698D01*
X00011141Y00000747D02*
X0001142Y00000748D01*
X0000914Y00001933D02*
X00009444D01*
X00008357Y00001929D02*
X00008661D01*
X00002204Y00009625D02*
X00002208Y00009629D01*
X00002201Y00009622D02*
X00002204Y00009625D01*
Y000112D02*
X00002208Y00011204D01*
X00002201Y00011197D02*
X00002204Y000112D01*
X00002198Y00004894D02*
X00002204Y00004901D01*
X00002194Y00004611D02*
X00002198Y00004894D01*
Y00006469D02*
X00002204Y00006476D01*
X00001857D02*
X00002191D01*
X00002194Y00006186D02*
X00002198Y00006469D01*
X00001861Y00011204D02*
X00002194D01*
X00002197Y00010914D02*
X00002201Y00011197D01*
X00001861Y00009629D02*
X00002194D01*
X00002197Y00009339D02*
X00002201Y00009622D01*
X00002194Y00007761D02*
X00002198Y00008044D01*
X00001857Y00008051D02*
X00002191D01*
X00002198Y00008044D02*
X00002204Y00008051D01*
G54D28*
X00011698Y00000748D03*
Y00001338D03*
X00011141Y00000747D03*
Y00001338D03*
G54D29*
X0000697Y00001286D02*
X00007222Y00000782D01*
X00010377Y00000771D02*
X00010703Y00001097D01*
X00007659Y00000771D02*
X00010377D01*
X00007247Y00000772D02*
X00007658D01*
G54D32*
X0Y00013385D03*
X00013385Y0D03*
Y00013385D03*
X0Y0D03*
G54D33*
X00012388Y00005014D03*
X00013393Y00005027D03*
G54D34*
X00001005Y00005038D03*
X0Y00005039D03*
Y00010023D03*
Y00009023D03*
Y00008023D03*
Y00007023D03*
Y00011023D03*
Y00006023D03*
Y00003055D03*
G54D35*
X00013385Y00011023D03*
Y00008023D03*
Y00007023D03*
Y00009023D03*
Y00006023D03*
Y00010023D03*
X00013379Y00003012D03*
G54D36*
X00008956Y00005905D03*
Y00007677D03*
Y00009448D03*
X00004429D03*
Y00007677D03*
Y00005905D03*
X00006692Y00004133D03*
Y0001122D03*
X00005118Y00004527D03*
Y00010826D03*
X00008267D03*
Y00004527D03*
G54D37*
X00011442Y00005721D03*
X00011106Y00004437D03*
X00010561Y-00000837D03*
X00007677Y00008897D03*
Y00009685D03*
Y00009291D03*
X0000807D03*
Y00009685D03*
Y00008897D03*
X00005314D03*
Y00009685D03*
Y00009291D03*
X00005708D03*
Y00009685D03*
Y00008897D03*
X00007677Y00006496D03*
Y00005708D03*
Y00006102D03*
X0000807D03*
Y00005708D03*
Y00006496D03*
X00005314D03*
Y00005708D03*
Y00006102D03*
X00005708D03*
Y00005708D03*
Y00006496D03*
X00006739Y00000088D03*
X00008996Y-00000619D03*
X00008342Y-0000069D03*
X00009396Y-00000592D03*
X00007247Y00000772D03*
X00007277Y00000393D03*
X00011442Y00007296D03*
Y00008871D03*
X00008446Y00001149D03*
X00006417Y00000089D03*
X00010702Y00000491D03*
X00009879Y00001929D03*
X00010666D03*
X00011038Y00003802D03*
X00011106Y00006011D03*
Y00007586D03*
Y00009161D03*
Y00010736D03*
X00011442Y00010446D03*
X00004907Y00000456D03*
X00004871Y00000093D03*
X00004914Y-00000305D03*
X00006117Y00000689D03*
X00006109Y-00000189D03*
X00011155Y00000491D03*
X00007441Y-00000707D03*
X00011415Y00000493D03*
X00003825Y-00000699D03*
X00011449Y00001929D03*
X00010703Y00001097D03*
X00006689Y00000653D03*
X00004403Y00001547D03*
X00001954Y00001916D03*
X00002741D03*
X00004316D03*
X00003529D03*
X00002812Y-00000697D03*
X0000914Y00001933D03*
X00008357Y00001929D03*
X00010559Y00001329D03*
X0000697Y00001286D03*
X00002194Y00004611D03*
X00001857Y00006476D03*
X00002194Y00006186D03*
X00001861Y00011204D03*
X00002197Y00010914D03*
X00001861Y00009629D03*
X00002197Y00009339D03*
X00002194Y00007761D03*
X00001857Y00008051D03*
G54D38*
X00010523Y-0000024D02*
X00011023Y00000017D01*
X00010498Y-00000253D02*
X00010523Y-0000024D01*
X00005536Y-00000312D02*
D01*
X00007677Y0D02*
X00009844D01*
X00009895D02*
X00010475Y-00000298D01*
X00010988Y-00000479D02*
X00011023Y-0000059D01*
X00010523Y-0000024D02*
X00010988Y-00000479D01*
X00005536Y-00000312D02*
Y00001396D01*
Y-00000312D02*
X00005923Y-00000699D01*
X00006401D02*
X00007677Y0D01*
X00005923Y-00000699D02*
X00006401D01*
X00005787Y00001647D02*
Y00002165D01*
G54D40*
X00011023Y-0000059D03*
X00011653D03*
X00011023Y00000017D03*
X00011653D03*
G54D41*
X00013385Y00002165D03*
Y00001535D03*
X0001399Y00002165D03*
Y00001535D03*
X00004731Y00001914D03*
Y00002544D03*
X00002368Y00001914D03*
Y00002544D03*
X00010236Y00001929D03*
Y00002559D03*
X00003156Y00001914D03*
Y00002544D03*
X00003943Y00001914D03*
Y00002544D03*
X00001581Y00001914D03*
Y00002544D03*
X00008661Y00001929D03*
Y00002559D03*
X00009444Y00001933D03*
Y00002563D03*
X00011806Y00001933D03*
Y00002563D03*
X00011023Y00001929D03*
Y00002559D03*
G54D42*
X00003149Y00010826D03*
X00002204Y000112D03*
Y00010452D03*
X00003149Y00009251D03*
X00002204Y00009625D03*
Y00008877D03*
X00003149Y00006102D03*
X00002204Y00006476D03*
Y00005728D03*
X00003149Y00004527D03*
X00002204Y00004901D03*
Y00004153D03*
X00010157Y00004527D03*
X00011102Y00004153D03*
Y00004901D03*
X00003149Y00007677D03*
X00002204Y00008051D03*
Y00007303D03*
X00010157Y00009251D03*
X00011102Y00008877D03*
Y00009625D03*
X00010157Y00010826D03*
X00011102Y00010452D03*
Y000112D03*
X00010157Y00006102D03*
X00011102Y00005728D03*
Y00006476D03*
X00010157Y00007677D03*
X00011102Y00007303D03*
Y00008051D03*
G54D43*
X00005787Y00002165D03*
X00007598D03*
G54D44*
X00012934Y00007023D02*
X00013385D01*
X00012231Y00007726D02*
Y00012231D01*
Y00007726D02*
X00012934Y00007023D01*
X00012231Y00012231D02*
X00013385Y00013385D01*
X0Y00002264D02*
Y00003055D01*
X00001267Y00000996D02*
X00005136D01*
X0Y00002264D02*
X00001267Y00000996D01*
X00005136D02*
X00005536Y00001396D01*
X00005787Y00001647*
X00013368Y00000017D02*
X00013385Y0D01*
G54D45*
X00014172Y00004515D02*
Y00006775D01*
X00013385Y00007023D02*
X00013924D01*
X00014172Y00006775*
X00013674Y00004018D02*
X00014172Y00004515D01*
X00012442Y00003584D02*
X00012876Y00004018D01*
X00013674*
X00012144Y00001338D02*
X00012442Y00001636D01*
Y00003584*
X00011698Y00001338D02*
X00012144D01*
G54D46*
X00010559Y00001329D02*
X00011141Y00001351D01*
X00010869Y00001188D02*
X00011141Y00001338D01*
X00010703Y00001097D02*
X00010869Y00001188D01*
X00011142Y00001338D02*
X00011698D01*
X00011141Y00001338D02*
X00011142Y00001338D01*
G54D47*
X00013438Y00003049D02*
X00013931Y00002259D01*
X00013385Y00002286D02*
Y00003133D01*
X00013438Y00003049*
X00011653Y-0000059D02*
X00013385Y0D01*
X00011653Y00000017D02*
X00013368D01*
X00013385Y0D02*
X00013946Y00001424D01*
X00013385Y0D02*
Y00001447D01*
G54D48*
X00007658Y00000772D02*
X00007659Y00000771D01*
X00003149Y00010826D02*
X00005118D01*
X00004232Y00009251D02*
X00004429Y00009448D01*
X00003149Y00009251D02*
X00004232D01*
X00003149Y00007677D02*
X00004429D01*
X00004232Y00006102D02*
X00004429Y00005905D01*
X00003149Y00006102D02*
X00004232D01*
X00003149Y00004527D02*
X00005118D01*
X00006692Y0001122D02*
X0000748Y00012007D01*
X00008976*
X00010157Y00010826*
X00008267D02*
X00009055D01*
X00010157Y00009724*
Y00009251D02*
Y00009724D01*
X00008956Y00009448D02*
X00010157Y00008248D01*
Y00007677D02*
Y00008248D01*
X00008956Y00007677D02*
X00010157Y00006102D01*
X00008956Y00005905D02*
X00010157Y00004527D01*
X00005118Y00010826D02*
D01*
X00004429Y00007677D02*
D01*
X00005118Y00004527D02*
D01*
G54D49*
X00007598Y00002648D02*
Y00003005D01*
X00007927Y00003335D02*
Y00004187D01*
X00007598Y00003005D02*
X00007927Y00003335D01*
Y00004187D02*
X00008267Y00004527D01*
M02*