%FSTAX44Y44*%
%MOIN*%
%SFA1B1*%

%IPPOS*%
%ADD32C,0.157480*%
%ADD34C,0.078740*%
%ADD35O,0.078740X0.070866*%
%ADD37C,0.023622*%
%LNnixie_in12-1*%
%LPD*%
G36*
X00012636Y00014376D02*
X00012652Y00014328D01*
X00012596Y00014285*
X00012485Y00014175*
X0001239Y0001405*
X00012312Y00013915*
X00012252Y0001377*
X00012211Y00013619*
X00012191Y00013464*
Y00013307*
X00012211Y00013152*
X00012252Y00013001*
X00012312Y00012856*
X0001239Y0001272*
X00012485Y00012596*
X00012596Y00012485*
X0001272Y0001239*
X00012856Y00012312*
X00013001Y00012252*
X00013152Y00012211*
X00013307Y00012191*
X00013464*
X00013619Y00012211*
X0001377Y00012252*
X00013915Y00012312*
X0001405Y0001239*
X00014175Y00012485*
X00014285Y00012596*
X00014328Y00012652*
X00014376Y00012636*
Y00000749*
X00014328Y00000733*
X00014285Y00000789*
X00014175Y000009*
X0001405Y00000995*
X00013915Y00001073*
X0001377Y00001133*
X00013619Y00001174*
X00013464Y00001194*
X00013307*
X00013152Y00001174*
X00013001Y00001133*
X00012856Y00001073*
X0001272Y00000995*
X00012596Y000009*
X00012485Y00000789*
X0001239Y00000664*
X00012312Y00000529*
X00012252Y00000384*
X00012211Y00000233*
X00012191Y00000078*
Y-00000078*
X00012211Y-00000233*
X00012252Y-00000384*
X00012312Y-00000529*
X0001239Y-00000664*
X00012485Y-00000789*
X00012596Y-000009*
X00012652Y-00000942*
X00012636Y-0000099*
X00010808*
X00010775Y-0000094*
X00010798Y-00000884*
Y-0000079*
X00010762Y-00000703*
X00010695Y-00000637*
X00010609Y-00000601*
X00010514*
X00010427Y-00000637*
X00010361Y-00000703*
X00010325Y-0000079*
Y-00000884*
X00010348Y-0000094*
X00010315Y-0000099*
X00000087*
X-00000062Y-0000097*
X-00000208Y-00000931*
X-00000348Y-00000873*
X-00000479Y-00000798*
X-00000599Y-00000705*
X-00000705Y-00000599*
X-00000798Y-00000479*
X-00000873Y-00000348*
X-00000931Y-00000208*
X-0000097Y-00000062*
X-0000099Y00000087*
Y00000162*
Y00013222*
Y00013298*
X-0000097Y00013448*
X-00000931Y00013594*
X-00000873Y00013733*
X-00000798Y00013864*
X-00000705Y00013985*
X-00000599Y00014091*
X-00000479Y00014183*
X-00000348Y00014259*
X-00000208Y00014317*
X-00000062Y00014356*
X00000087Y00014376*
X00000162*
X00012636*
G37*
%LNnixie_in12-2*%
%LPC*%
G36*
X00006757Y0001187D02*
X00006628D01*
X00006503Y00011845*
X00006385Y00011796*
X00006278Y00011725*
X00006188Y00011634*
X00006117Y00011528*
X00006068Y00011409*
X00006043Y00011284*
Y00011156*
X00006068Y00011031*
X00006117Y00010912*
X00006188Y00010806*
X00006278Y00010715*
X00006385Y00010644*
X00006503Y00010595*
X00006628Y0001057*
X00006757*
X00006882Y00010595*
X00007Y00010644*
X00007107Y00010715*
X00007197Y00010806*
X00007268Y00010912*
X00007317Y00011031*
X00007342Y00011156*
Y00011284*
X00007317Y00011409*
X00007268Y00011528*
X00007197Y00011634*
X00007107Y00011725*
X00007Y00011796*
X00006882Y00011845*
X00006757Y0001187*
G37*
G36*
X00008331Y00011476D02*
X00008203D01*
X00008078Y00011451*
X00007959Y00011402*
X00007853Y00011331*
X00007762Y0001124*
X00007692Y00011134*
X00007642Y00011016*
X00007618Y0001089*
Y00010762*
X00007642Y00010637*
X00007692Y00010518*
X00007762Y00010412*
X00007853Y00010322*
X00007959Y00010251*
X00008078Y00010201*
X00008203Y00010177*
X00008331*
X00008457Y00010201*
X00008575Y00010251*
X00008681Y00010322*
X00008772Y00010412*
X00008843Y00010518*
X00008892Y00010637*
X00008917Y00010762*
Y0001089*
X00008892Y00011016*
X00008843Y00011134*
X00008772Y0001124*
X00008681Y00011331*
X00008575Y00011402*
X00008457Y00011451*
X00008331Y00011476*
G37*
G36*
X00005182D02*
X00005053D01*
X00004928Y00011451*
X0000481Y00011402*
X00004703Y00011331*
X00004613Y0001124*
X00004542Y00011134*
X00004493Y00011016*
X00004468Y0001089*
Y00010762*
X00004493Y00010637*
X00004542Y00010518*
X00004613Y00010412*
X00004703Y00010322*
X0000481Y00010251*
X00004928Y00010201*
X00005053Y00010177*
X00005182*
X00005307Y00010201*
X00005425Y00010251*
X00005532Y00010322*
X00005622Y00010412*
X00005693Y00010518*
X00005742Y00010637*
X00005767Y00010762*
Y0001089*
X00005742Y00011016*
X00005693Y00011134*
X00005622Y0001124*
X00005532Y00011331*
X00005425Y00011402*
X00005307Y00011451*
X00005182Y00011476*
G37*
G36*
X0000902Y00010098D02*
X00008892D01*
X00008767Y00010073*
X00008648Y00010024*
X00008542Y00009953*
X00008451Y00009862*
X00008381Y00009756*
X00008357Y00009698*
X00008307Y00009708*
Y00009731*
X00008271Y00009818*
X00008204Y00009885*
X00008117Y00009921*
X00008024*
X00007937Y00009885*
X00007874Y00009822*
X00007811Y00009885*
X00007724Y00009921*
X0000763*
X00007543Y00009885*
X00007476Y00009818*
X0000744Y00009731*
Y00009638*
X00007476Y00009551*
X00007539Y00009488*
X00007476Y00009425*
X0000744Y00009338*
Y00009244*
X00007476Y00009157*
X00007539Y00009094*
X00007476Y00009031*
X0000744Y00008944*
Y0000885*
X00007476Y00008763*
X00007543Y00008697*
X0000763Y00008661*
X00007724*
X00007811Y00008697*
X00007874Y0000876*
X00007937Y00008697*
X00008024Y00008661*
X00008117*
X00008204Y00008697*
X00008271Y00008763*
X00008307Y0000885*
Y00008944*
X00008271Y00009031*
X00008208Y00009094*
X00008271Y00009157*
X00008295Y00009216*
X00008349*
X00008381Y0000914*
X00008451Y00009034*
X00008542Y00008944*
X00008648Y00008873*
X00008767Y00008824*
X00008892Y00008799*
X0000902*
X00009146Y00008824*
X00009264Y00008873*
X0000937Y00008944*
X00009461Y00009034*
X00009532Y0000914*
X00009581Y00009259*
X00009606Y00009384*
Y00009512*
X00009581Y00009638*
X00009532Y00009756*
X00009461Y00009862*
X0000937Y00009953*
X00009264Y00010024*
X00009146Y00010073*
X0000902Y00010098*
G37*
G36*
X00004493D02*
X00004364D01*
X00004239Y00010073*
X00004121Y00010024*
X00004014Y00009953*
X00003924Y00009862*
X00003853Y00009756*
X00003804Y00009638*
X00003779Y00009512*
Y00009384*
X00003804Y00009259*
X00003853Y0000914*
X00003924Y00009034*
X00004014Y00008944*
X00004121Y00008873*
X00004239Y00008824*
X00004364Y00008799*
X00004493*
X00004618Y00008824*
X00004737Y00008873*
X00004843Y00008944*
X00004933Y00009034*
X00005004Y0000914*
X00005036Y00009216*
X0000509*
X00005114Y00009157*
X00005177Y00009094*
X00005114Y00009031*
X00005078Y00008944*
Y0000885*
X00005114Y00008763*
X00005181Y00008697*
X00005268Y00008661*
X00005361*
X00005448Y00008697*
X00005511Y0000876*
X00005574Y00008697*
X00005661Y00008661*
X00005755*
X00005842Y00008697*
X00005909Y00008763*
X00005944Y0000885*
Y00008944*
X00005909Y00009031*
X00005846Y00009094*
X00005909Y00009157*
X00005944Y00009244*
Y00009338*
X00005909Y00009425*
X00005846Y00009488*
X00005909Y00009551*
X00005944Y00009638*
Y00009731*
X00005909Y00009818*
X00005842Y00009885*
X00005755Y00009921*
X00005661*
X00005574Y00009885*
X00005511Y00009822*
X00005448Y00009885*
X00005361Y00009921*
X00005268*
X00005181Y00009885*
X00005114Y00009818*
X00005078Y00009731*
Y00009708*
X00005028Y00009698*
X00005004Y00009756*
X00004933Y00009862*
X00004843Y00009953*
X00004737Y00010024*
X00004618Y00010073*
X00004493Y00010098*
G37*
G36*
X0000902Y00008326D02*
X00008892D01*
X00008767Y00008301*
X00008648Y00008252*
X00008542Y00008181*
X00008451Y00008091*
X00008381Y00007985*
X00008331Y00007866*
X00008307Y00007741*
Y00007612*
X00008331Y00007487*
X00008381Y00007369*
X00008451Y00007262*
X00008542Y00007172*
X00008648Y00007101*
X00008767Y00007052*
X00008892Y00007027*
X0000902*
X00009146Y00007052*
X00009264Y00007101*
X0000937Y00007172*
X00009461Y00007262*
X00009532Y00007369*
X00009581Y00007487*
X00009606Y00007612*
Y00007741*
X00009581Y00007866*
X00009532Y00007985*
X00009461Y00008091*
X0000937Y00008181*
X00009264Y00008252*
X00009146Y00008301*
X0000902Y00008326*
G37*
G36*
X00004493D02*
X00004364D01*
X00004239Y00008301*
X00004121Y00008252*
X00004014Y00008181*
X00003924Y00008091*
X00003853Y00007985*
X00003804Y00007866*
X00003779Y00007741*
Y00007612*
X00003804Y00007487*
X00003853Y00007369*
X00003924Y00007262*
X00004014Y00007172*
X00004121Y00007101*
X00004239Y00007052*
X00004364Y00007027*
X00004493*
X00004618Y00007052*
X00004737Y00007101*
X00004843Y00007172*
X00004933Y00007262*
X00005004Y00007369*
X00005053Y00007487*
X00005078Y00007612*
Y00007741*
X00005053Y00007866*
X00005004Y00007985*
X00004933Y00008091*
X00004843Y00008181*
X00004737Y00008252*
X00004618Y00008301*
X00004493Y00008326*
G37*
G36*
X00008117Y00006732D02*
X00008024D01*
X00007937Y00006696*
X00007874Y00006633*
X00007811Y00006696*
X00007724Y00006732*
X0000763*
X00007543Y00006696*
X00007476Y00006629*
X0000744Y00006542*
Y00006449*
X00007476Y00006362*
X00007539Y00006299*
X00007476Y00006236*
X0000744Y00006149*
Y00006055*
X00007476Y00005968*
X00007539Y00005905*
X00007476Y00005842*
X0000744Y00005755*
Y00005661*
X00007476Y00005574*
X00007543Y00005508*
X0000763Y00005472*
X00007724*
X00007811Y00005508*
X00007874Y00005571*
X00007937Y00005508*
X00008024Y00005472*
X00008117*
X00008204Y00005508*
X00008271Y00005574*
X00008303Y00005653*
X00008332Y0000566*
X00008355Y00005658*
X00008381Y00005597*
X00008451Y00005491*
X00008542Y000054*
X00008648Y00005329*
X00008767Y0000528*
X00008892Y00005255*
X0000902*
X00009146Y0000528*
X00009264Y00005329*
X0000937Y000054*
X00009461Y00005491*
X00009532Y00005597*
X00009581Y00005716*
X00009606Y00005841*
Y00005969*
X00009581Y00006094*
X00009532Y00006213*
X00009461Y00006319*
X0000937Y0000641*
X00009264Y00006481*
X00009146Y0000653*
X0000902Y00006555*
X00008892*
X00008767Y0000653*
X00008648Y00006481*
X00008542Y0000641*
X00008451Y00006319*
X00008381Y00006213*
X00008355Y00006152*
X00008332Y0000615*
X00008303Y00006157*
X00008271Y00006236*
X00008208Y00006299*
X00008271Y00006362*
X00008307Y00006449*
Y00006542*
X00008271Y00006629*
X00008204Y00006696*
X00008117Y00006732*
G37*
G36*
X00005755D02*
X00005661D01*
X00005574Y00006696*
X00005511Y00006633*
X00005448Y00006696*
X00005361Y00006732*
X00005268*
X00005181Y00006696*
X00005114Y00006629*
X00005078Y00006542*
Y00006449*
X00005114Y00006362*
X00005177Y00006299*
X00005114Y00006236*
X00005081Y00006157*
X00005053Y0000615*
X00005029Y00006152*
X00005004Y00006213*
X00004933Y00006319*
X00004843Y0000641*
X00004737Y00006481*
X00004618Y0000653*
X00004493Y00006555*
X00004364*
X00004239Y0000653*
X00004121Y00006481*
X00004014Y0000641*
X00003924Y00006319*
X00003853Y00006213*
X00003804Y00006094*
X00003779Y00005969*
Y00005841*
X00003804Y00005716*
X00003853Y00005597*
X00003924Y00005491*
X00004014Y000054*
X00004121Y00005329*
X00004239Y0000528*
X00004364Y00005255*
X00004493*
X00004618Y0000528*
X00004737Y00005329*
X00004843Y000054*
X00004933Y00005491*
X00005004Y00005597*
X00005029Y00005658*
X00005053Y0000566*
X00005081Y00005653*
X00005114Y00005574*
X00005181Y00005508*
X00005268Y00005472*
X00005361*
X00005448Y00005508*
X00005511Y00005571*
X00005574Y00005508*
X00005661Y00005472*
X00005755*
X00005842Y00005508*
X00005909Y00005574*
X00005944Y00005661*
Y00005755*
X00005909Y00005842*
X00005846Y00005905*
X00005909Y00005968*
X00005944Y00006055*
Y00006149*
X00005909Y00006236*
X00005846Y00006299*
X00005909Y00006362*
X00005944Y00006449*
Y00006542*
X00005909Y00006629*
X00005842Y00006696*
X00005755Y00006732*
G37*
G36*
X00013425Y000115D02*
X00013346D01*
X00013223Y00011483*
X00013108Y00011436*
X00013009Y0001136*
X00012933Y00011261*
X00012886Y00011146*
X0001287Y00011023*
X00012886Y000109*
X00012933Y00010785*
X00013009Y00010686*
X00013108Y00010611*
X00013223Y00010563*
X00013333Y00010548*
Y00010498*
X00013223Y00010483*
X00013108Y00010436*
X00013009Y0001036*
X00012933Y00010261*
X00012886Y00010146*
X0001287Y00010023*
X00012886Y000099*
X00012933Y00009785*
X00013009Y00009686*
X00013108Y00009611*
X00013223Y00009563*
X00013333Y00009548*
Y00009498*
X00013223Y00009483*
X00013108Y00009436*
X00013009Y0000936*
X00012933Y00009261*
X00012886Y00009146*
X0001287Y00009023*
X00012886Y000089*
X00012933Y00008785*
X00013009Y00008686*
X00013108Y00008611*
X00013223Y00008563*
X00013333Y00008548*
Y00008498*
X00013223Y00008483*
X00013108Y00008436*
X00013009Y0000836*
X00012933Y00008261*
X00012886Y00008146*
X0001287Y00008023*
X00012886Y000079*
X00012933Y00007785*
X00013009Y00007686*
X00013108Y00007611*
X00013223Y00007563*
X00013333Y00007548*
Y00007498*
X00013223Y00007483*
X00013108Y00007436*
X00013009Y0000736*
X00012933Y00007261*
X00012886Y00007146*
X0001287Y00007023*
X00012886Y000069*
X00012933Y00006785*
X00013009Y00006686*
X00013108Y00006611*
X00013223Y00006563*
X00013346Y00006547*
X00013425*
X00013548Y00006563*
X00013663Y00006611*
X00013762Y00006686*
X00013837Y00006785*
X00013885Y000069*
X00013901Y00007023*
X00013885Y00007146*
X00013837Y00007261*
X00013762Y0000736*
X00013663Y00007436*
X00013548Y00007483*
X00013438Y00007498*
Y00007548*
X00013548Y00007563*
X00013663Y00007611*
X00013762Y00007686*
X00013837Y00007785*
X00013885Y000079*
X00013901Y00008023*
X00013885Y00008146*
X00013837Y00008261*
X00013762Y0000836*
X00013663Y00008436*
X00013548Y00008483*
X00013438Y00008498*
Y00008548*
X00013548Y00008563*
X00013663Y00008611*
X00013762Y00008686*
X00013837Y00008785*
X00013885Y000089*
X00013901Y00009023*
X00013885Y00009146*
X00013837Y00009261*
X00013762Y0000936*
X00013663Y00009436*
X00013548Y00009483*
X00013438Y00009498*
Y00009548*
X00013548Y00009563*
X00013663Y00009611*
X00013762Y00009686*
X00013837Y00009785*
X00013885Y000099*
X00013901Y00010023*
X00013885Y00010146*
X00013837Y00010261*
X00013762Y0001036*
X00013663Y00010436*
X00013548Y00010483*
X00013438Y00010498*
Y00010548*
X00013548Y00010563*
X00013663Y00010611*
X00013762Y00010686*
X00013837Y00010785*
X00013885Y000109*
X00013901Y00011023*
X00013885Y00011146*
X00013837Y00011261*
X00013762Y0001136*
X00013663Y00011436*
X00013548Y00011483*
X00013425Y000115*
G37*
G36*
X00000067Y00011535D02*
X-00000067D01*
X-00000197Y000115*
X-00000314Y00011433*
X-00000409Y00011337*
X-00000476Y00011221*
X-00000511Y0001109*
Y00010956*
X-00000476Y00010825*
X-00000409Y00010709*
X-00000314Y00010614*
X-00000204Y0001055*
X-000002Y00010523*
X-00000204Y00010496*
X-00000314Y00010433*
X-00000409Y00010337*
X-00000476Y00010221*
X-00000511Y0001009*
Y00009956*
X-00000476Y00009825*
X-00000409Y00009709*
X-00000314Y00009614*
X-00000204Y0000955*
X-000002Y00009523*
X-00000204Y00009496*
X-00000314Y00009433*
X-00000409Y00009337*
X-00000476Y00009221*
X-00000511Y0000909*
Y00008956*
X-00000476Y00008825*
X-00000409Y00008709*
X-00000314Y00008614*
X-00000204Y0000855*
X-000002Y00008523*
X-00000204Y00008496*
X-00000314Y00008433*
X-00000409Y00008337*
X-00000476Y00008221*
X-00000511Y0000809*
Y00007956*
X-00000476Y00007825*
X-00000409Y00007709*
X-00000314Y00007614*
X-00000204Y0000755*
X-000002Y00007523*
X-00000204Y00007496*
X-00000314Y00007433*
X-00000409Y00007337*
X-00000476Y00007221*
X-00000511Y0000709*
Y00006956*
X-00000476Y00006825*
X-00000409Y00006709*
X-00000314Y00006614*
X-00000197Y00006546*
X-00000067Y00006511*
X00000067*
X00000197Y00006546*
X00000314Y00006614*
X00000409Y00006709*
X00000476Y00006825*
X00000511Y00006956*
Y0000709*
X00000476Y00007221*
X00000409Y00007337*
X00000314Y00007433*
X00000204Y00007496*
X000002Y00007523*
X00000204Y0000755*
X00000314Y00007614*
X00000409Y00007709*
X00000476Y00007825*
X00000511Y00007956*
Y0000809*
X00000476Y00008221*
X00000409Y00008337*
X00000314Y00008433*
X00000204Y00008496*
X000002Y00008523*
X00000204Y0000855*
X00000314Y00008614*
X00000409Y00008709*
X00000476Y00008825*
X00000511Y00008956*
Y0000909*
X00000476Y00009221*
X00000409Y00009337*
X00000314Y00009433*
X00000204Y00009496*
X000002Y00009523*
X00000204Y0000955*
X00000314Y00009614*
X00000409Y00009709*
X00000476Y00009825*
X00000511Y00009956*
Y0001009*
X00000476Y00010221*
X00000409Y00010337*
X00000314Y00010433*
X00000204Y00010496*
X000002Y00010523*
X00000204Y0001055*
X00000314Y00010614*
X00000409Y00010709*
X00000476Y00010825*
X00000511Y00010956*
Y0001109*
X00000476Y00011221*
X00000409Y00011337*
X00000314Y00011433*
X00000197Y000115*
X00000067Y00011535*
G37*
G36*
X00013455Y00005499D02*
X00013331D01*
X00013211Y00005467*
X00013103Y00005405*
X00013015Y00005316*
X00012953Y00005209*
X00012921Y00005089*
Y00004964*
X00012953Y00004844*
X00013015Y00004737*
X00013103Y00004648*
X00013211Y00004586*
X00013331Y00004554*
X00013455*
X00013575Y00004586*
X00013683Y00004648*
X00013771Y00004737*
X00013833Y00004844*
X00013866Y00004964*
Y00005089*
X00013833Y00005209*
X00013771Y00005316*
X00013683Y00005405*
X00013575Y00005467*
X00013455Y00005499*
G37*
G36*
X00012451Y00005487D02*
X00012326D01*
X00012206Y00005455*
X00012098Y00005392*
X00012011Y00005305*
X00011948Y00005197*
X00011916Y00005077*
Y00004952*
X00011948Y00004832*
X00012011Y00004724*
X00012098Y00004637*
X00012206Y00004574*
X00012326Y00004542*
X00012451*
X00012571Y00004574*
X00012679Y00004637*
X00012767Y00004724*
X00012829Y00004832*
X00012861Y00004952*
Y00005077*
X00012829Y00005197*
X00012767Y00005305*
X00012679Y00005392*
X00012571Y00005455*
X00012451Y00005487*
G37*
G36*
X00000067Y00005551D02*
X-00000067D01*
X-00000197Y00005516*
X-00000314Y00005448*
X-00000409Y00005353*
X-00000476Y00005237*
X-00000511Y00005106*
Y00004972*
X-00000476Y00004841*
X-00000409Y00004725*
X-00000314Y00004629*
X-00000197Y00004562*
X-00000067Y00004527*
X00000067*
X00000197Y00004562*
X00000314Y00004629*
X00000409Y00004725*
X00000476Y00004841*
X00000477Y00004845*
X00000527*
X00000529Y0000484*
X00000596Y00004724*
X00000691Y00004628*
X00000808Y00004561*
X00000938Y00004526*
X00001073*
X00001203Y00004561*
X0000132Y00004628*
X00001415Y00004724*
X00001483Y0000484*
X00001517Y0000497*
Y00005105*
X00001483Y00005235*
X00001415Y00005352*
X0000132Y00005448*
X00001203Y00005515*
X00001073Y0000555*
X00000938*
X00000808Y00005515*
X00000691Y00005448*
X00000596Y00005352*
X00000529Y00005235*
X00000528Y00005232*
X00000478*
X00000476Y00005237*
X00000409Y00005353*
X00000314Y00005448*
X00000197Y00005516*
X00000067Y00005551*
G37*
G36*
X00008331Y00005177D02*
X00008203D01*
X00008078Y00005152*
X00007959Y00005103*
X00007853Y00005032*
X00007762Y00004941*
X00007692Y00004835*
X00007642Y00004716*
X00007618Y00004591*
Y00004463*
X00007642Y00004338*
X00007692Y00004219*
X00007762Y00004113*
X00007853Y00004022*
X00007959Y00003951*
X00008078Y00003902*
X00008203Y00003877*
X00008331*
X00008457Y00003902*
X00008575Y00003951*
X00008681Y00004022*
X00008772Y00004113*
X00008843Y00004219*
X00008892Y00004338*
X00008917Y00004463*
Y00004591*
X00008892Y00004716*
X00008843Y00004835*
X00008772Y00004941*
X00008681Y00005032*
X00008575Y00005103*
X00008457Y00005152*
X00008331Y00005177*
G37*
G36*
X00005182D02*
X00005053D01*
X00004928Y00005152*
X0000481Y00005103*
X00004703Y00005032*
X00004613Y00004941*
X00004542Y00004835*
X00004493Y00004716*
X00004468Y00004591*
Y00004463*
X00004493Y00004338*
X00004542Y00004219*
X00004613Y00004113*
X00004703Y00004022*
X0000481Y00003951*
X00004928Y00003902*
X00005053Y00003877*
X00005182*
X00005307Y00003902*
X00005425Y00003951*
X00005532Y00004022*
X00005622Y00004113*
X00005693Y00004219*
X00005742Y00004338*
X00005767Y00004463*
Y00004591*
X00005742Y00004716*
X00005693Y00004835*
X00005622Y00004941*
X00005532Y00005032*
X00005425Y00005103*
X00005307Y00005152*
X00005182Y00005177*
G37*
G36*
X00006757Y00004783D02*
X00006628D01*
X00006503Y00004758*
X00006385Y00004709*
X00006278Y00004638*
X00006188Y00004548*
X00006117Y00004441*
X00006068Y00004323*
X00006043Y00004198*
Y00004069*
X00006068Y00003944*
X00006117Y00003825*
X00006188Y00003719*
X00006278Y00003629*
X00006385Y00003558*
X00006503Y00003509*
X00006628Y00003484*
X00006757*
X00006882Y00003509*
X00007Y00003558*
X00007107Y00003629*
X00007197Y00003719*
X00007268Y00003825*
X00007317Y00003944*
X00007342Y00004069*
Y00004198*
X00007317Y00004323*
X00007268Y00004441*
X00007197Y00004548*
X00007107Y00004638*
X00007Y00004709*
X00006882Y00004758*
X00006757Y00004783*
G37*
G36*
X00000067Y00003566D02*
X-00000067D01*
X-00000197Y00003531*
X-00000314Y00003464*
X-00000409Y00003369*
X-00000476Y00003252*
X-00000511Y00003122*
Y00002987*
X-00000476Y00002857*
X-00000409Y0000274*
X-00000314Y00002645*
X-00000197Y00002578*
X-00000067Y00002543*
X00000067*
X00000197Y00002578*
X00000314Y00002645*
X00000409Y0000274*
X00000476Y00002857*
X00000511Y00002987*
Y00003122*
X00000476Y00003252*
X00000409Y00003369*
X00000314Y00003464*
X00000197Y00003531*
X00000067Y00003566*
G37*
G36*
X00013418Y00003488D02*
X0001334D01*
X00013216Y00003472*
X00013101Y00003425*
X00013003Y00003349*
X00012927Y0000325*
X00012879Y00003135*
X00012863Y00003012*
X00012879Y00002888*
X00012927Y00002774*
X00013003Y00002675*
X00013101Y00002599*
X00013216Y00002551*
X0001334Y00002535*
X00013418*
X00013542Y00002551*
X00013657Y00002599*
X00013755Y00002675*
X00013831Y00002774*
X00013879Y00002888*
X00013895Y00003012*
X00013879Y00003135*
X00013831Y0000325*
X00013755Y00003349*
X00013657Y00003425*
X00013542Y00003472*
X00013418Y00003488*
G37*
G36*
X00009187Y00002169D02*
X00009093D01*
X00009006Y00002133*
X00008939Y00002067*
X00008903Y0000198*
Y00001886*
X00008939Y00001799*
X00009006Y00001733*
X00009093Y00001697*
X00009187*
X00009274Y00001733*
X0000934Y00001799*
X00009376Y00001886*
Y0000198*
X0000934Y00002067*
X00009274Y00002133*
X00009187Y00002169*
G37*
G36*
X00010713Y00002166D02*
X00010619D01*
X00010532Y00002129*
X00010466Y00002063*
X0001043Y00001976*
Y00001882*
X00010466Y00001796*
X00010532Y00001729*
X00010619Y00001693*
X00010713*
X000108Y00001729*
X00010866Y00001796*
X00010902Y00001882*
Y00001976*
X00010866Y00002063*
X000108Y00002129*
X00010713Y00002166*
G37*
G36*
X00009925D02*
X00009831D01*
X00009745Y00002129*
X00009678Y00002063*
X00009642Y00001976*
Y00001882*
X00009678Y00001796*
X00009745Y00001729*
X00009831Y00001693*
X00009925*
X00010012Y00001729*
X00010079Y00001796*
X00010115Y00001882*
Y00001976*
X00010079Y00002063*
X00010012Y00002129*
X00009925Y00002166*
G37*
G36*
X00011496Y00002165D02*
X00011402D01*
X00011315Y00002129*
X00011249Y00002062*
X00011212Y00001976*
Y00001882*
X00011249Y00001795*
X00011315Y00001729*
X00011402Y00001693*
X00011496*
X00011583Y00001729*
X00011649Y00001795*
X00011685Y00001882*
Y00001976*
X00011649Y00002062*
X00011583Y00002129*
X00011496Y00002165*
G37*
G36*
X00008404Y00002165D02*
X0000831D01*
X00008223Y00002129*
X00008157Y00002062*
X00008121Y00001975*
Y00001881*
X00008157Y00001795*
X00008223Y00001728*
X0000831Y00001692*
X00008404*
X0000849Y00001728*
X00008557Y00001795*
X00008593Y00001881*
Y00001975*
X00008557Y00002062*
X0000849Y00002129*
X00008404Y00002165*
G37*
G36*
X00003575Y00002152D02*
X00003481D01*
X00003395Y00002116*
X00003328Y0000205*
X00003292Y00001963*
Y00001869*
X00003328Y00001782*
X00003395Y00001716*
X00003481Y00001679*
X00003575*
X00003662Y00001716*
X00003729Y00001782*
X00003765Y00001869*
Y00001963*
X00003729Y0000205*
X00003662Y00002116*
X00003575Y00002152*
G37*
G36*
X00002788D02*
X00002694D01*
X00002607Y00002116*
X00002541Y0000205*
X00002505Y00001963*
Y00001869*
X00002541Y00001782*
X00002607Y00001716*
X00002694Y00001679*
X00002788*
X00002875Y00001716*
X00002941Y00001782*
X00002977Y00001869*
Y00001963*
X00002941Y0000205*
X00002875Y00002116*
X00002788Y00002152*
G37*
G36*
X00002001D02*
X00001907D01*
X0000182Y00002116*
X00001753Y0000205*
X00001718Y00001963*
Y00001869*
X00001753Y00001782*
X0000182Y00001716*
X00001907Y00001679*
X00002001*
X00002088Y00001716*
X00002154Y00001782*
X0000219Y00001869*
Y00001963*
X00002154Y0000205*
X00002088Y00002116*
X00002001Y00002152*
G37*
G36*
X00004363D02*
X00004269D01*
X00004182Y00002116*
X00004116Y0000205*
X0000408Y00001963*
Y00001869*
X00004116Y00001782*
X00004182Y00001716*
X00004192Y00001657*
X00004166Y00001594*
Y000015*
X00004202Y00001413*
X00004269Y00001347*
X00004355Y00001311*
X0000445*
X00004537Y00001347*
X00004603Y00001413*
X00004639Y000015*
Y00001594*
X00004603Y00001681*
X00004537Y00001748*
X00004526Y00001806*
X00004552Y00001869*
Y00001963*
X00004516Y0000205*
X0000445Y00002116*
X00004363Y00002152*
G37*
G36*
X00007016Y00001522D02*
X00006923D01*
X00006836Y00001487*
X00006769Y0000142*
X00006733Y00001333*
Y00001239*
X00006769Y00001152*
X00006836Y00001086*
X00006923Y0000105*
X00007016*
X00007103Y00001086*
X0000717Y00001152*
X00007206Y00001239*
Y00001333*
X0000717Y0000142*
X00007103Y00001487*
X00007016Y00001522*
G37*
G36*
X00008493Y00001385D02*
X00008399D01*
X00008312Y0000135*
X00008246Y00001283*
X0000821Y00001196*
Y00001102*
X00008246Y00001015*
X00008312Y00000949*
X00008399Y00000913*
X00008493*
X0000858Y00000949*
X00008646Y00001015*
X00008682Y00001102*
Y00001196*
X00008646Y00001283*
X0000858Y0000135*
X00008493Y00001385*
G37*
G36*
X00010605Y00001566D02*
X00010512D01*
X00010425Y0000153*
X00010358Y00001463*
X00010322Y00001377*
Y00001283*
X00010358Y00001196*
X00010425Y00001129*
X00010467Y00001112*
Y0000105*
X00010503Y00000963*
X0001057Y00000897*
X00010656Y00000861*
X0001075*
X00010837Y00000897*
X00010903Y00000963*
X0001094Y0000105*
Y00001144*
X00010903Y00001231*
X00010837Y00001297*
X00010795Y00001315*
Y00001377*
X00010759Y00001463*
X00010692Y0000153*
X00010605Y00001566*
G37*
G36*
X00007294Y00001008D02*
X000072D01*
X00007113Y00000972*
X00007047Y00000905*
X00007011Y00000819*
Y00000725*
X00007047Y00000638*
X00007113Y00000572*
X000072Y00000536*
X00007294*
X00007381Y00000572*
X00007448Y00000638*
X00007483Y00000725*
Y00000819*
X00007448Y00000905*
X00007381Y00000972*
X00007294Y00001008*
G37*
G36*
X00006164Y00000925D02*
X0000607D01*
X00005983Y0000089*
X00005917Y00000823*
X00005881Y00000736*
Y00000642*
X00005917Y00000555*
X00005983Y00000489*
X0000607Y00000453*
X00006164*
X00006251Y00000489*
X00006318Y00000555*
X00006353Y00000642*
Y00000736*
X00006318Y00000823*
X00006251Y0000089*
X00006164Y00000925*
G37*
G36*
X0001075Y00000727D02*
X00010655D01*
X00010568Y00000691*
X00010502Y00000625*
X00010466Y00000538*
Y00000444*
X00010502Y00000357*
X00010568Y00000291*
X00010655Y00000255*
X0001075*
X00010836Y00000291*
X00010903Y00000357*
X00010938Y00000444*
Y00000538*
X00010903Y00000625*
X00010836Y00000691*
X0001075Y00000727*
G37*
G36*
X00006156Y00000046D02*
X00006062D01*
X00005975Y0000001*
X00005909Y-00000055*
X00005873Y-00000142*
Y-00000236*
X00005909Y-00000323*
X00005975Y-00000389*
X00006062Y-00000425*
X00006156*
X00006243Y-00000389*
X00006309Y-00000323*
X00006345Y-00000236*
Y-00000142*
X00006309Y-00000055*
X00006243Y0000001*
X00006156Y00000046*
G37*
G36*
X00009443Y-00000356D02*
X00009349D01*
X00009262Y-00000392*
X00009213Y-0000044*
X00009152Y-00000442*
X00009129Y-00000419*
X00009042Y-00000383*
X00008948*
X00008862Y-00000419*
X00008795Y-00000486*
X00008759Y-00000572*
Y-00000666*
X00008795Y-00000753*
X00008862Y-0000082*
X00008948Y-00000855*
X00009042*
X00009129Y-0000082*
X00009178Y-00000771*
X00009239Y-00000769*
X00009262Y-00000792*
X00009349Y-00000828*
X00009443*
X00009529Y-00000792*
X00009596Y-00000726*
X00009632Y-00000639*
Y-00000545*
X00009596Y-00000458*
X00009529Y-00000392*
X00009443Y-00000356*
G37*
G36*
X00004954Y00000692D02*
X0000486D01*
X00004774Y00000656*
X00004707Y0000059*
X00004671Y00000503*
Y00000409*
X00004707Y00000322*
X00004737Y00000293*
X00004671Y00000227*
X00004635Y0000014*
Y00000046*
X00004671Y-0000004*
X00004737Y-00000106*
X00004744Y-00000141*
X00004714Y-00000171*
X00004678Y-00000258*
Y-00000352*
X00004714Y-00000438*
X0000478Y-00000505*
X00004867Y-00000541*
X00004961*
X00005048Y-00000505*
X00005114Y-00000438*
X0000515Y-00000352*
Y-00000258*
X00005114Y-00000171*
X00005048Y-00000105*
X00005041Y-0000007*
X00005071Y-0000004*
X00005107Y00000046*
Y0000014*
X00005071Y00000227*
X00005042Y00000257*
X00005107Y00000322*
X00005144Y00000409*
Y00000503*
X00005107Y0000059*
X00005041Y00000656*
X00004954Y00000692*
G37*
%LNnixie_in12-3*%
%LPD*%
G54D32*
X0Y00013385D03*
Y0D03*
G54D34*
X0Y00006023D03*
G54D35*
X00013385Y00006023D03*
G54D37*
X00011442Y00005721D03*
X00011106Y00004437D03*
X00006739Y00000088D03*
X00008342Y-0000069D03*
X00007277Y00000393D03*
X00011442Y00007296D03*
Y00008871D03*
X00006417Y00000089D03*
X00011038Y00003802D03*
X00011106Y00006011D03*
Y00007586D03*
Y00009161D03*
Y00010736D03*
X00011442Y00010446D03*
X00011155Y00000491D03*
X00007441Y-00000707D03*
X00011415Y00000493D03*
X00003825Y-00000699D03*
X00006689Y00000653D03*
X00002812Y-00000697D03*
X00002194Y00004611D03*
X00001857Y00006476D03*
X00002194Y00006186D03*
X00001861Y00011204D03*
X00002197Y00010914D03*
X00001861Y00009629D03*
X00002197Y00009339D03*
X00002194Y00007761D03*
X00001857Y00008051D03*
M02*